<svg width="20" height="20" viewBox="0 0 20 20" fill="none" xmlns="http://www.w3.org/2000/svg">
<path fill-rule="evenodd" clip-rule="evenodd" d="M9.707 16.707C9.51947 16.8945 9.26516 16.9998 9 16.9998C8.73484 16.9998 8.48053 16.8945 8.293 16.707L2.293 10.707C2.10553 10.5195 2.00021 10.2651 2.00021 9.99998C2.00021 9.73482 2.10553 9.48051 2.293 9.29298L8.293 3.29298C8.4816 3.11082 8.7342 3.01003 8.9964 3.01231C9.2586 3.01458 9.50941 3.11975 9.69482 3.30516C9.88023 3.49057 9.9854 3.74138 9.98767 4.00358C9.98995 4.26578 9.88916 4.51838 9.707 4.70698L5.414 8.99998H17C17.2652 8.99998 17.5196 9.10534 17.7071 9.29287C17.8946 9.48041 18 9.73476 18 9.99998C18 10.2652 17.8946 10.5196 17.7071 10.7071C17.5196 10.8946 17.2652 11 17 11H5.414L9.707 15.293C9.89447 15.4805 9.99979 15.7348 9.99979 16C9.99979 16.2651 9.89447 16.5195 9.707 16.707Z" fill="white"/>
</svg>
