<svg width="12" height="23" viewBox="0 0 12 23" fill="none" xmlns="http://www.w3.org/2000/svg">
<path d="M4.67133 22.2812C2.3584 22.2812 0.476685 20.5429 0.476685 18.4062V5.40328C0.476685 2.55436 2.98564 0.236572 6.06955 0.236572C9.15346 0.236572 11.6624 2.55436 11.6624 5.40328V18.4062H10.2642V5.40328C10.2642 3.26659 8.38248 1.52825 6.06955 1.52825C3.75662 1.52825 1.8749 3.26659 1.8749 5.40328V18.4062C1.8749 19.8306 3.12938 20.9895 4.67133 20.9895C6.21329 20.9895 7.46777 19.8306 7.46777 18.4062V7.98664C7.46777 7.27441 6.84053 6.69496 6.06955 6.69496C5.29857 6.69496 4.67133 7.27441 4.67133 7.98664V18.4062H3.27312V7.98664C3.27312 6.56218 4.5276 5.40328 6.06955 5.40328C7.6115 5.40328 8.86598 6.56218 8.86598 7.98664V18.4062C8.86598 20.5429 6.98426 22.2812 4.67133 22.2812Z" fill="#1F8734"/>
</svg>
