<svg width="24" height="24" viewBox="0 0 24 24" fill="none" xmlns="http://www.w3.org/2000/svg">
<g clip-path="url(#clip0_21_583)">
<path d="M2.34375 0.0702958C1.52344 0.248421 0.721875 0.876546 0.3375 1.64061C0.0140625 2.29217 0 2.39061 0 4.94998V7.19998L0.121875 7.44842C0.43125 8.06248 1.25625 8.18436 1.70625 7.6828C1.8 7.57967 1.90313 7.43905 1.93594 7.36873C1.97813 7.27967 1.99688 6.58592 2.01562 4.94061L2.03906 2.63905L2.15625 2.4703C2.22188 2.37186 2.35781 2.23592 2.45625 2.16561L2.63906 2.03905L4.94063 2.01561C7.52813 1.98748 7.43906 2.00155 7.75781 1.63123C8.175 1.13905 8.025 0.412484 7.44844 0.121859L7.2 -1.66893e-05L4.92656 0.0046711C3.17344 0.0046711 2.57812 0.0234208 2.34375 0.0702958Z" fill="#1F8734"/>
<path d="M16.5516 0.121835C15.975 0.41246 15.825 1.13902 16.2422 1.63121C16.5609 2.00152 16.4719 1.98746 19.0594 2.01558L21.3609 2.03902L21.5437 2.16558C21.6422 2.2359 21.7781 2.37183 21.8437 2.47027L21.9609 2.63902L21.9844 4.94059C22.0125 7.52809 21.9984 7.43902 22.3687 7.75777C22.8609 8.17965 23.5922 8.02496 23.8828 7.43902L24.0047 7.1859L23.9906 4.79996C23.9766 2.48433 23.9719 2.40465 23.8734 2.10933C23.6156 1.34996 23.0391 0.679647 22.3594 0.33746C21.7078 0.0140224 21.6094 -4.05312e-05 19.05 -4.05312e-05H16.8L16.5516 0.121835Z" fill="#1F8734"/>
<path d="M6.39844 5.1C5.83594 5.29687 5.4375 5.64843 5.18907 6.17812L5.03907 6.49218L5.025 8.32031C5.01094 10.2703 5.02032 10.3875 5.23594 10.6406C5.65313 11.1375 6.43594 11.0953 6.82032 10.5562L6.96094 10.35L6.98438 8.68125L7.00782 7.00781H12H16.9922L17.0156 8.67187C17.0391 10.4672 17.0438 10.4812 17.3063 10.7156C17.7703 11.1375 18.4594 11.0672 18.8203 10.5562L18.9609 10.35V8.42343V6.49218L18.8109 6.17812C18.6047 5.7375 18.3 5.42812 17.8641 5.2125L17.5125 5.03906L12.075 5.02968C7.00782 5.02031 6.61875 5.025 6.39844 5.1Z" fill="#1F8734"/>
<path d="M3.75937 13.0313C3.49219 13.0922 3.25313 13.2891 3.12188 13.5516C2.91563 13.9688 2.97656 14.3719 3.29531 14.6906C3.55312 14.9438 3.75469 15 4.44375 15H5.01094L5.025 16.2563L5.03906 17.5125L5.2125 17.8641C5.42812 18.3 5.7375 18.6047 6.17812 18.8109L6.49219 18.9609H12H17.5078L17.8219 18.8109C18.2625 18.6047 18.5719 18.3 18.7875 17.8641L18.9609 17.5125L18.975 16.2563L18.9891 15H19.5562C20.2406 15 20.4469 14.9438 20.7 14.6953C21.1594 14.2359 21.0609 13.4719 20.4937 13.1391L20.2734 13.0078L12.0937 12.9984C7.59375 12.9984 3.84375 13.0078 3.75937 13.0313Z" fill="#1F8734"/>
<path d="M0.759375 16.0313C0.492188 16.0922 0.253125 16.2891 0.121875 16.5516L0 16.8V19.05C0 21.6094 0.0140625 21.7078 0.3375 22.3594C0.679688 23.0391 1.35 23.6156 2.10938 23.8734C2.40469 23.9719 2.48438 23.9766 4.8 23.9906L7.18594 24.0047L7.43906 23.8828C8.025 23.5922 8.17969 22.8609 7.75781 22.3688C7.43906 21.9984 7.52813 22.0125 4.94063 21.9844L2.63906 21.9609L2.47031 21.8438C2.37188 21.7781 2.23594 21.6422 2.16563 21.5438L2.03906 21.3609L2.01562 19.0594C1.99688 17.4141 1.97813 16.7203 1.93594 16.6313C1.82344 16.3781 1.54688 16.1297 1.29844 16.0547C1.04063 15.9797 0.989063 15.975 0.759375 16.0313Z" fill="#1F8734"/>
<path d="M22.725 16.0359C22.6312 16.0641 22.4672 16.1625 22.3594 16.2563C21.9984 16.5609 22.0125 16.4766 21.9844 19.0594L21.9609 21.3609L21.8344 21.5438C21.764 21.6422 21.6281 21.7781 21.5297 21.8438L21.3609 21.9609L19.0594 21.9844C16.5375 22.0125 16.6078 22.0031 16.2984 22.3031C15.8156 22.7766 15.9469 23.5781 16.5609 23.8781L16.814 24.0047L19.2 23.9906C21.5156 23.9766 21.5953 23.9719 21.8906 23.8734C22.8047 23.5594 23.5594 22.8047 23.8734 21.8906C23.9719 21.5953 23.9766 21.5156 23.9906 19.1953L24.0047 16.8L23.8734 16.5469C23.6531 16.1297 23.1703 15.9141 22.725 16.0359Z" fill="#1F8734"/>
</g>
<defs>
<clipPath id="clip0_21_583">
<rect width="24" height="24" fill="white"/>
</clipPath>
</defs>
</svg>
