<svg width="16" height="20" viewBox="0 0 16 20" fill="none" xmlns="http://www.w3.org/2000/svg">
<path d="M8.02871 19.7728C9.52262 19.7728 10.3392 18.7326 10.3392 17.2668H5.71339C5.71339 18.7326 6.53 19.7728 8.02871 19.7728ZM15.5271 14.8649C14.7873 13.9051 13.3319 13.3424 13.3319 9.04447C13.3319 4.63306 11.3528 2.85998 9.50821 2.43445C9.33529 2.39189 9.21039 2.33515 9.21039 2.15548V2.01836C9.21039 1.38478 8.682 0.850497 8.03832 0.855225C7.39464 0.845769 6.86625 1.38478 6.86625 2.01836V2.15548C6.86625 2.33042 6.74136 2.39189 6.56843 2.43445C4.71905 2.86471 2.74479 4.63306 2.74479 9.04447C2.74479 13.3424 1.2893 13.9003 0.549554 14.8649C0.0740009 15.4843 0.525537 16.3685 1.31332 16.3685H14.7681C15.5511 16.3685 16.0026 15.4796 15.5271 14.8649Z" fill="#1F8734"/>
</svg>
