<svg width="14" height="14" viewBox="0 0 14 14" fill="none" xmlns="http://www.w3.org/2000/svg">
<path d="M3.09806 0.87499C1.62423 1.13202 0.489463 2.25585 0.123056 3.81444C-0.183194 5.12147 0.0984471 6.40116 0.965244 7.64257C1.31251 8.13749 1.58868 8.45468 2.25313 9.12186C2.97774 9.84647 3.37149 10.1965 5.42228 11.9574C6.49962 12.8816 6.83321 13.1551 6.90431 13.1687C7.12306 13.2098 7.11485 13.2125 8.57774 11.9574C9.34064 11.3039 10.2184 10.5437 10.5274 10.273C11.2 9.68241 12.3184 8.56952 12.6246 8.18944C13.2426 7.41835 13.6254 6.73749 13.8223 6.05663C14.268 4.51171 13.8277 2.79999 12.7176 1.77186C11.6567 0.790224 10.0762 0.541396 8.80743 1.15663C8.19767 1.45194 7.59884 2.02069 7.18868 2.69335C7.09298 2.84921 7.00821 2.97772 7.00001 2.97772C6.99181 2.97772 6.90704 2.84921 6.81134 2.69335C6.29454 1.84569 5.54806 1.22772 4.73048 0.970693C4.24103 0.817568 3.62579 0.782021 3.09806 0.87499ZM4.36134 1.71991C5.29649 1.96874 6.06759 2.76991 6.54884 3.99218C6.60353 4.13437 6.66915 4.27382 6.69376 4.3039C6.80587 4.42694 7.03556 4.46796 7.18595 4.3914C7.30353 4.33124 7.34454 4.26835 7.45118 3.99218C7.85314 2.97226 8.43009 2.26679 9.16837 1.90311C9.56485 1.70624 9.78087 1.65976 10.2813 1.65702C10.6367 1.65429 10.7461 1.66522 10.9512 1.71718C11.427 1.83749 12.0176 2.18202 12.3074 2.51015C12.9473 3.23202 13.2617 4.22733 13.1551 5.20077C13.0074 6.54882 12.1789 7.7164 9.99415 9.6496C9.16564 10.3824 7.03009 12.209 7.00001 12.209C6.96993 12.209 4.83438 10.3824 4.00587 9.6496C1.8211 7.7164 0.992588 6.54882 0.844931 5.20077C0.71915 4.04413 1.19493 2.84101 2.02892 2.21483C2.38165 1.9496 2.73439 1.78554 3.15821 1.6953C3.48634 1.62421 4.04142 1.63515 4.36134 1.71991Z" fill="#E1E1E1"/>
</svg>
