<svg width="14" height="12" viewBox="0 0 14 12" fill="none" xmlns="http://www.w3.org/2000/svg">
<path d="M8.75 6C8.75 6.46413 8.56563 6.90925 8.23744 7.23744C7.90925 7.56563 7.46413 7.75 7 7.75C6.53587 7.75 6.09075 7.56563 5.76256 7.23744C5.43437 6.90925 5.25 6.46413 5.25 6C5.25 5.53587 5.43437 5.09075 5.76256 4.76256C6.09075 4.43437 6.53587 4.25 7 4.25C7.46413 4.25 7.90925 4.43437 8.23744 4.76256C8.56563 5.09075 8.75 5.53587 8.75 6V6Z" stroke="#E1E1E1" stroke-width="2" stroke-linecap="round" stroke-linejoin="round"/>
<path d="M1.43384 5.99999C2.177 3.63341 4.38842 1.91666 7 1.91666C9.61217 1.91666 11.823 3.63341 12.5662 5.99999C11.823 8.36657 9.61217 10.0833 7 10.0833C4.38842 10.0833 2.177 8.36657 1.43384 5.99999V5.99999Z" stroke="#E1E1E1" stroke-width="2" stroke-linecap="round" stroke-linejoin="round"/>
</svg>
