<svg width="16" height="16" viewBox="0 0 16 16" fill="none" xmlns="http://www.w3.org/2000/svg">
<path d="M7.78132 1.075C7.2407 1.19375 6.8907 1.675 6.95008 2.22188C6.97508 2.46562 7.07508 2.67188 7.25945 2.85L7.40945 3L6.05945 5.24062C5.3157 6.475 4.69383 7.50312 4.67195 7.525C4.64383 7.55625 4.3782 7.41563 3.3657 6.82188L2.09695 6.07812L2.1157 5.85313C2.13758 5.58125 2.09383 5.39375 1.95008 5.16563C1.5157 4.47813 0.443825 4.55312 0.106325 5.29375C-0.193675 5.95312 0.231325 6.70937 0.9532 6.79688L1.11258 6.81875L1.8157 9.36875L2.52195 11.9219H8.00007H13.4782L14.1844 9.36875L14.8876 6.81875L15.0469 6.79688C15.7688 6.70937 16.1938 5.95312 15.8938 5.29375C15.6282 4.71562 14.8751 4.50938 14.3438 4.86875C14.0157 5.09062 13.8469 5.45312 13.8844 5.86562L13.9063 6.07812L12.6344 6.82188C11.4501 7.51562 11.3594 7.5625 11.3188 7.50938C11.2969 7.47813 10.672 6.45 9.93445 5.225L8.5907 2.99687L8.72507 2.875C8.90633 2.71875 9.03445 2.45 9.05632 2.19687C9.11257 1.4875 8.46883 0.921875 7.78132 1.075Z" fill="white"/>
<path d="M2.69697 13.1875C2.41885 13.2438 2.19697 13.4188 2.05635 13.6875C1.95322 13.8875 1.95322 14.2375 2.05635 14.4375C2.15947 14.6344 2.3251 14.7969 2.5126 14.8813L2.67197 14.9531H8.0001H13.3282L13.4876 14.8813C13.6751 14.7969 13.8407 14.6344 13.9439 14.4375C14.047 14.2375 14.047 13.8875 13.9439 13.6875C13.8407 13.4906 13.6751 13.3281 13.4876 13.2438L13.3282 13.1719L8.07822 13.1688C5.19072 13.1656 2.76885 13.175 2.69697 13.1875Z" fill="white"/>
</svg>
