<svg width="24" height="24" viewBox="0 0 24 24" fill="none" xmlns="http://www.w3.org/2000/svg">
<path d="M11.3438 0.0750003C10.3922 0.276563 9.27188 0.9 7.97813 1.94063C7.26094 2.51719 6.09375 3.60469 5.52188 4.23281C5.15156 4.63594 5.0625 4.7625 5.0625 4.875C5.0625 5.07188 5.24531 5.25 5.44219 5.25C5.57812 5.25 5.67188 5.17031 6.23906 4.57969C8.45156 2.27813 10.4578 0.904688 11.8125 0.773438C13.0922 0.646875 15.0141 1.84219 17.4516 4.275C18.3375 5.16094 18.4359 5.25 18.5813 5.25C18.7734 5.25 18.9375 5.07656 18.9375 4.86563C18.9375 4.69688 18.2859 3.975 17.2922 3.04688C14.7469 0.675 12.8813 -0.257812 11.3438 0.0750003Z" fill="#E58B6C"/>
<path d="M10.9921 1.61719C10.7578 1.84687 10.9218 2.25 11.25 2.25C11.4421 2.25 11.625 2.06719 11.625 1.875C11.625 1.68281 11.4421 1.5 11.25 1.5C11.1609 1.5 11.0625 1.54219 10.9921 1.61719Z" fill="#E58B6C"/>
<path d="M12.8671 1.99219C12.7921 2.0625 12.7499 2.16094 12.7499 2.25C12.7499 2.33906 12.7921 2.4375 12.8671 2.50781C12.9374 2.58281 13.0359 2.625 13.1249 2.625C13.214 2.625 13.3124 2.58281 13.3828 2.50781C13.4578 2.4375 13.4999 2.33906 13.4999 2.25C13.4999 2.16094 13.4578 2.0625 13.3828 1.99219C13.3124 1.91719 13.214 1.875 13.1249 1.875C13.0359 1.875 12.9374 1.91719 12.8671 1.99219Z" fill="#E58B6C"/>
<path d="M11.7421 2.74219C11.5078 2.97187 11.6718 3.375 12 3.375C12.089 3.375 12.1875 3.33281 12.2578 3.25781C12.3328 3.1875 12.375 3.08906 12.375 3C12.375 2.91094 12.3328 2.8125 12.2578 2.74219C12.1875 2.66719 12.089 2.625 12 2.625C11.9109 2.625 11.8125 2.66719 11.7421 2.74219Z" fill="#E58B6C"/>
<path d="M9.86714 3.11719C9.63277 3.34687 9.79683 3.75 10.125 3.75C10.3171 3.75 10.5 3.56719 10.5 3.375C10.5 3.18281 10.3171 3 10.125 3C10.0359 3 9.93745 3.04219 9.86714 3.11719Z" fill="#E58B6C"/>
<path d="M13.6172 3.49219C13.5422 3.5625 13.5 3.66094 13.5 3.75C13.5 3.83906 13.5422 3.9375 13.6172 4.00781C13.6875 4.08281 13.7859 4.125 13.875 4.125C13.9641 4.125 14.0625 4.08281 14.1328 4.00781C14.2078 3.9375 14.25 3.83906 14.25 3.75C14.25 3.66094 14.2078 3.5625 14.1328 3.49219C14.0625 3.41719 13.9641 3.375 13.875 3.375C13.7859 3.375 13.6875 3.41719 13.6172 3.49219Z" fill="#E58B6C"/>
<path d="M8.36714 4.61719C8.13277 4.84687 8.29683 5.25 8.62495 5.25C8.81714 5.25 8.99995 5.06719 8.99995 4.875C8.99995 4.68281 8.81714 4.5 8.62495 4.5C8.53589 4.5 8.43745 4.54219 8.36714 4.61719Z" fill="#E58B6C"/>
<path d="M10.6171 4.61719C10.3828 4.84687 10.5468 5.25 10.875 5.25C11.0671 5.25 11.25 5.06719 11.25 4.875C11.25 4.68281 11.0671 4.5 10.875 4.5C10.7859 4.5 10.6875 4.54219 10.6171 4.61719Z" fill="#E58B6C"/>
<path d="M12.4921 4.61719C12.4171 4.6875 12.3749 4.78594 12.3749 4.875C12.3749 4.96406 12.4171 5.0625 12.4921 5.13281C12.5624 5.20781 12.6609 5.25 12.7499 5.25C12.839 5.25 12.9374 5.20781 13.0078 5.13281C13.0828 5.0625 13.1249 4.96406 13.1249 4.875C13.1249 4.78594 13.0828 4.6875 13.0078 4.61719C12.9374 4.54219 12.839 4.5 12.7499 4.5C12.6609 4.5 12.5624 4.54219 12.4921 4.61719Z" fill="#E58B6C"/>
<path d="M15.1172 4.61719C15.0422 4.6875 15 4.78594 15 4.875C15 4.96406 15.0422 5.0625 15.1172 5.13281C15.1875 5.20781 15.2859 5.25 15.375 5.25C15.4641 5.25 15.5625 5.20781 15.6328 5.13281C15.7078 5.0625 15.75 4.96406 15.75 4.875C15.75 4.78594 15.7078 4.6875 15.6328 4.61719C15.5625 4.54219 15.4641 4.5 15.375 4.5C15.2859 4.5 15.1875 4.54219 15.1172 4.61719Z" fill="#E58B6C"/>
<path d="M2.25465 6.0656C1.58434 6.30935 1.2984 7.17654 1.69684 7.74373C1.7859 7.87498 1.7859 7.87498 1.69684 8.00154C1.37809 8.46092 1.47184 9.09842 1.92184 9.47811C2.02496 9.56717 2.18903 9.66561 2.29215 9.69373C2.4234 9.73592 4.90778 9.74998 12.0093 9.74998C22.5468 9.74998 21.7875 9.77342 22.1156 9.45467C22.5328 9.05623 22.6125 8.44217 22.3031 8.00154C22.214 7.87498 22.214 7.87498 22.3031 7.74373C22.6125 7.30779 22.5328 6.69373 22.1156 6.29529C21.7875 5.97654 22.5515 5.99998 11.9812 6.00467C4.58903 6.00467 2.37653 6.01873 2.25465 6.0656ZM21.5343 6.80154C21.7921 6.92342 21.7921 7.32654 21.5343 7.44842C21.45 7.48592 19.6546 7.49998 14.9484 7.49998H8.47965L8.36715 7.61717C8.21246 7.76717 8.21246 7.98279 8.36715 8.13279L8.47965 8.24998H14.9484C19.6546 8.24998 21.45 8.26404 21.5343 8.30154C21.7921 8.42342 21.7921 8.82654 21.5343 8.94842C21.45 8.98592 18.9 8.99998 12 8.99998C5.09996 8.99998 2.54996 8.98592 2.46559 8.94842C2.20778 8.82654 2.20778 8.42342 2.46559 8.30154C2.54528 8.26873 3.09371 8.24998 4.17653 8.24998H5.77028L5.88277 8.13279C6.03746 7.98279 6.03746 7.76717 5.88277 7.61717L5.77028 7.49998H4.17653C3.09371 7.49998 2.54528 7.48123 2.46559 7.44842C2.30153 7.37342 2.22184 7.16248 2.29215 6.98904C2.32496 6.91404 2.39528 6.83435 2.45153 6.80623C2.60153 6.73123 21.375 6.73123 21.5343 6.80154Z" fill="#49AD4D"/>
<path d="M6.86714 7.61719C6.63277 7.84687 6.79683 8.25 7.12495 8.25C7.31714 8.25 7.49995 8.06719 7.49995 7.875C7.49995 7.68281 7.31714 7.5 7.12495 7.5C7.03589 7.5 6.93745 7.54219 6.86714 7.61719Z" fill="#49AD4D"/>
<path d="M2.52185 10.5515C2.38591 10.6265 2.34841 10.739 2.24998 11.3718C1.89373 13.5609 1.82341 14.7234 1.91716 17.039C1.9781 18.5578 2.02966 19.2796 2.13748 20.0437L2.21248 20.5687L1.85623 21.0984C1.44841 21.7078 1.42029 21.839 1.61248 22.2421C1.83279 22.7109 2.24529 22.9687 2.7656 22.964C2.93435 22.964 3.11248 22.9453 3.15935 22.9265C3.2156 22.9078 3.52498 22.9453 3.90935 23.0249C7.50466 23.7562 10.9406 24.0984 13.3125 23.9578C15.3187 23.8359 18.2484 23.4234 20.4609 22.9499C20.6203 22.9171 20.789 22.9078 20.8359 22.9265C20.8875 22.9453 21.0656 22.964 21.2344 22.964C21.7734 22.9687 22.2375 22.6546 22.4297 22.1578C22.5609 21.8156 22.5094 21.6468 22.1297 21.0749L21.7922 20.5734L21.8859 19.814C22.0172 18.7687 22.0734 17.7749 22.1062 15.9609C22.1344 14.6859 22.125 14.2828 22.0594 13.6499C21.9375 12.4874 21.6703 10.7859 21.5859 10.6593C21.45 10.4484 21.1078 10.4531 20.9672 10.6687C20.8969 10.7812 20.8969 10.8281 20.9953 11.4984C21.3609 13.9359 21.389 14.3343 21.3328 16.4109C21.2812 18.1453 21.1828 19.5515 21.0656 20.1562C20.9625 20.7046 20.9672 20.7187 21.3515 21.2953C21.5437 21.5812 21.7031 21.8531 21.7031 21.8953C21.7031 21.9937 21.5203 22.1578 21.3656 22.1953C21.2953 22.214 21.1312 22.1999 21.0047 22.1671C20.789 22.1156 20.7 22.1249 19.7719 22.3031C17.0953 22.8234 14.85 23.1187 12.9234 23.2031C10.6828 23.2968 7.84685 23.0062 4.20466 22.3031C3.32341 22.1343 3.16404 22.1156 3.03279 22.1624C2.78435 22.2515 2.60154 22.2328 2.44216 22.0968C2.36248 22.0312 2.29685 21.9374 2.29685 21.8906C2.29685 21.8437 2.45623 21.5671 2.64841 21.2812C2.8406 20.9953 2.99998 20.7234 2.99998 20.6812C2.99998 20.6343 2.95779 20.3156 2.90623 19.9687C2.77498 19.0265 2.7281 18.3468 2.66716 16.4624C2.60154 14.4843 2.62029 14.1281 2.91091 12.1078C3.10779 10.7203 3.10779 10.6546 2.90623 10.5468C2.79373 10.4859 2.62498 10.4906 2.52185 10.5515Z" fill="#49AD4D"/>
<path d="M9.29063 10.9733C7.39219 11.3764 5.92969 12.7592 5.40469 14.653C5.28282 15.0795 5.27344 15.1827 5.27813 15.9374C5.27813 16.6733 5.29219 16.8045 5.40001 17.2124C5.88282 18.9936 7.25157 20.3624 9.04219 20.8499L9.49219 20.9717L11.8125 20.9905C14.2922 21.0092 14.5266 20.9952 15.2109 20.7795C16.9875 20.2217 18.3281 18.7077 18.6797 16.8608C18.7688 16.3827 18.7688 15.492 18.6797 15.0139C18.3141 13.0827 16.8844 11.5499 14.9625 11.0249L14.5078 10.903L12.1172 10.8889C9.89063 10.8795 9.69844 10.8842 9.29063 10.9733ZM14.7234 11.7514C15.2484 11.8967 15.6328 12.0749 16.0547 12.3514C17.8453 13.542 18.4922 15.8436 17.5781 17.7561C17.3391 18.253 17.1656 18.5108 16.7859 18.9092C16.2375 19.4764 15.5297 19.8983 14.7422 20.1186C14.3766 20.2217 14.3109 20.2264 12 20.2264C9.68907 20.2264 9.62344 20.2217 9.25782 20.1186C8.44219 19.8889 7.74376 19.467 7.16719 18.853C6.38438 18.0139 6.02813 17.1092 6.02813 15.9374C6.02813 15.253 6.08907 14.9061 6.31407 14.3483C6.69844 13.3874 7.48126 12.5436 8.41407 12.0795C9.27657 11.653 9.48751 11.6295 12.1406 11.6436C14.2453 11.653 14.3859 11.6577 14.7234 11.7514Z" fill="#49AD4D"/>
<path d="M8.74683 12.8015C8.1937 12.8812 8.10464 13.0733 8.36714 13.603C8.76089 14.3858 9.3187 15.0796 9.82027 15.4124C10.1812 15.6515 10.6265 15.7687 11.0578 15.7358C11.2546 15.7218 11.4515 15.6983 11.4984 15.6796C11.5687 15.6468 11.5781 15.6843 11.5781 16.0921V16.5374L11.4281 16.5655C11.1703 16.6124 10.725 16.8515 10.4812 17.0671C10.1859 17.3296 9.92339 17.7327 9.81558 18.0937L9.7312 18.3749H9.27652C8.84058 18.3749 8.81714 18.3796 8.72339 18.4968C8.55933 18.7077 8.61089 18.9468 8.84527 19.0687C8.99058 19.1483 15.0093 19.1483 15.1546 19.0687C15.389 18.9468 15.4406 18.7077 15.2812 18.5015C15.1875 18.3843 15.1593 18.3796 14.6859 18.3655L14.1937 18.3515L14.1093 18.0843C13.9968 17.714 13.8187 17.428 13.5234 17.1374C13.2703 16.889 12.8156 16.6312 12.5296 16.5702L12.375 16.5374V16.0921V15.6468L12.5296 15.689C12.6093 15.7077 12.8718 15.7265 13.1062 15.7265C13.5093 15.7218 13.5562 15.7124 13.9031 15.5437C14.5031 15.2437 15.1546 14.503 15.6046 13.6077C15.7687 13.2796 15.7828 13.1483 15.6796 12.9983C15.5531 12.8202 15.314 12.778 14.4375 12.7733C13.7953 12.7733 13.5515 12.7921 13.3125 12.8577C12.8531 12.9796 12.4734 13.1858 12.2156 13.4483L11.9859 13.6827L11.7468 13.4437C11.4468 13.139 10.9781 12.9187 10.4296 12.8202C9.98902 12.7452 9.20152 12.7358 8.74683 12.8015ZM10.5796 13.6312C11.0484 13.7812 11.264 13.9593 11.4656 14.3671C11.6343 14.714 11.6203 14.8405 11.4046 14.9108C11.3062 14.9437 11.0906 14.9718 10.9218 14.9718C10.5281 14.9718 10.2375 14.8358 9.88589 14.4843C9.59995 14.1983 9.18277 13.5983 9.22027 13.528C9.26714 13.4577 10.2656 13.5327 10.5796 13.6312ZM14.7375 13.5421C14.7703 13.5937 14.3437 14.2171 14.1187 14.4515C13.7109 14.8733 13.2421 15.0515 12.7828 14.953C12.6421 14.9249 12.4921 14.8733 12.4453 14.8405C12.3703 14.7843 12.3703 14.7655 12.4359 14.5265C12.5859 14.0249 13.0171 13.6874 13.664 13.5702C14.0437 13.4999 14.7 13.4812 14.7375 13.5421ZM12.5484 17.3905C12.6609 17.4421 12.8156 17.5265 12.8906 17.578C13.0593 17.6952 13.2937 18.028 13.3406 18.2015L13.3687 18.328H11.9578C11.1796 18.328 10.5468 18.3187 10.5468 18.3046C10.5468 18.1171 10.9078 17.653 11.1937 17.4749C11.5687 17.2452 12.1359 17.2077 12.5484 17.3905Z" fill="#49AD4D"/>
</svg>
