<svg width="21" height="20" viewBox="0 0 21 20" fill="none" xmlns="http://www.w3.org/2000/svg">
<path d="M3.55725 2.89369C4.59556 1.9782 5.81511 1.28411 7.13918 0.855103C7.51778 1.32197 7.99842 1.69884 8.54537 1.95768C9.09232 2.21652 9.69151 2.35069 10.2984 2.3502C10.9053 2.35069 11.5045 2.21652 12.0514 1.95768C12.5984 1.69884 13.079 1.32197 13.4576 0.855103C14.7817 1.28411 16.0012 1.9782 17.0395 2.89369C16.8186 3.44957 16.7277 4.0473 16.7735 4.64251C16.8194 5.23771 17.0009 5.8151 17.3045 6.33182C17.6075 6.84952 18.0251 7.29333 18.5264 7.63025C19.0276 7.96716 19.5996 8.18851 20.1998 8.27784C20.4835 9.62054 20.4835 11.0063 20.1998 12.349C19.0267 12.5262 17.9446 13.2051 17.3045 14.2951C17.0007 14.8119 16.8192 15.3895 16.7733 15.9849C16.7274 16.5802 16.8184 17.1782 17.0395 17.7342C16.0011 18.6493 14.7816 19.3431 13.4576 19.7718C13.0789 19.3051 12.5982 18.9284 12.0513 18.6697C11.5043 18.4111 10.9052 18.2771 10.2984 18.2777C9.69151 18.2772 9.09232 18.4113 8.54537 18.6702C7.99842 18.929 7.51778 19.3059 7.13918 19.7728C5.81519 19.3441 4.59565 18.6503 3.55725 17.7352C3.77837 17.1792 3.86937 16.5812 3.8235 15.9859C3.77763 15.3905 3.59607 14.8129 3.2923 14.2961C2.98921 13.7785 2.57152 13.3349 2.07026 12.9982C1.56901 12.6614 0.997093 12.4402 0.39703 12.351C0.113181 11.008 0.113181 9.62185 0.39703 8.27883C0.997185 8.18951 1.56916 7.96816 2.07042 7.63124C2.57168 7.29433 2.98933 6.85052 3.2923 6.33281C3.59591 5.8161 3.77739 5.23871 3.82326 4.6435C3.86913 4.0483 3.77821 3.45057 3.55725 2.89469V2.89369ZM11.8153 12.8995C12.1631 12.7049 12.4684 12.4444 12.7135 12.1332C12.9587 11.8219 13.1388 11.466 13.2437 11.0859C13.3485 10.7059 13.3759 10.3092 13.3243 9.91863C13.2728 9.52809 13.1432 9.15145 12.9432 8.81039C12.7431 8.46934 12.4765 8.1706 12.1587 7.93138C11.8408 7.69216 11.4781 7.51718 11.0913 7.41651C10.7045 7.31585 10.3012 7.2915 9.90483 7.34485C9.50842 7.3982 9.12664 7.5282 8.78149 7.72738C8.09036 8.12619 7.58755 8.77788 7.38278 9.54025C7.17801 10.3026 7.2879 11.1138 7.68848 11.7967C8.08905 12.4796 8.74779 12.9788 9.52093 13.1854C10.2941 13.392 11.1189 13.2893 11.8153 12.8995Z" fill="#1F8734"/>
</svg>
