<svg width="315" height="315" viewBox="0 0 315 315" fill="none" xmlns="http://www.w3.org/2000/svg">
<path d="M266.944 101.102C266.944 101.102 256.315 58.4767 191.974 31.5946C127.632 4.71247 70.0685 29.6101 56.9456 61.1101C43.8227 92.6101 57.5756 109.62 48.8186 136.521C40.0616 163.422 -4.92665 197.492 13.2299 238.808C31.3865 280.123 116.348 291.923 185.1 283.399C253.852 274.875 307.566 180.445 266.944 101.102Z" fill="#92E3A9"/>
<path opacity="0.7" d="M266.944 101.102C266.944 101.102 256.315 58.4767 191.974 31.5946C127.632 4.71247 70.0685 29.6101 56.9456 61.1101C43.8227 92.6101 57.5756 109.62 48.8186 136.521C40.0616 163.422 -4.92665 197.492 13.2299 238.808C31.3865 280.123 116.348 291.923 185.1 283.399C253.852 274.875 307.566 180.445 266.944 101.102Z" fill="white"/>
<path d="M99.54 67.1455H47.25C45.5791 67.1455 43.9767 67.8093 42.7952 68.9907C41.6137 70.1722 40.95 71.7746 40.95 73.4455V92.9755C40.95 94.6464 41.6137 96.2488 42.7952 97.4303C43.9767 98.6118 45.5791 99.2755 47.25 99.2755H99.2249L105.84 108.096V73.4455C105.84 71.7746 105.176 70.1722 103.995 68.9907C102.813 67.8093 101.211 67.1455 99.54 67.1455Z" fill="#263238"/>
<path d="M52.3341 88.6475H50.4441V76.6775H52.3341V81.7994H54.4635V76.6775H56.3535V88.6475H54.4635V83.5256H52.3341V88.6475Z" fill="#92E3A9"/>
<path d="M57.7457 76.6963H59.6357V88.6663H57.7457V76.6963Z" fill="#92E3A9"/>
<path d="M63.0882 76.6963H68.8905V78.4036H66.9249V88.6474H65.0349V78.4036H63.0756L63.0882 76.6963Z" fill="#92E3A9"/>
<path d="M71.5869 88.6475H69.6969V76.6775H71.5869V81.7994H73.71V76.6775H75.6V88.6475H73.71V83.5256H71.5743L71.5869 88.6475Z" fill="#92E3A9"/>
<path d="M78.8759 81.7301H81.4526V83.4374H78.8759V86.9402H82.1204V88.6475H76.9985V76.6775H82.1204V78.3848H78.8759V81.7301Z" fill="#92E3A9"/>
<path d="M87.2045 88.6474C87.0505 88.1743 86.9926 87.6752 87.0344 87.1795V85.2895C87.0344 84.1807 86.6627 83.7712 85.7744 83.7712H85.1444V88.6348H83.2544V76.6648H86.0894C88.0361 76.6648 88.874 77.572 88.874 79.4116V80.3503C88.874 81.5788 88.4771 82.3852 87.614 82.7758C88.5527 83.1727 88.874 84.0736 88.874 85.2958V87.1417C88.8399 87.634 88.9108 88.1279 89.0819 88.5907L87.2045 88.6474ZM85.157 78.4036V82.0765H85.8941C86.5934 82.0765 87.0218 81.7678 87.0218 80.8165V79.6321C87.0218 78.7816 86.732 78.3721 86.0642 78.3721L85.157 78.4036Z" fill="#92E3A9"/>
<path d="M92.0241 81.7301H94.6008V83.4374H92.0241V86.9402H95.2623V88.6475H90.1404V76.6775H95.2623V78.3848H92.0241V81.7301Z" fill="#92E3A9"/>
<path d="M96.6671 86.0014L96.4277 81.6796V76.6963H98.3177V81.6796L98.0783 86.0014H96.6671ZM98.2673 86.8393V88.6474H96.4592V86.8393H98.2673Z" fill="#92E3A9"/>
<path d="M187.74 67.7754C187.74 67.7754 185.409 66.9501 184.88 69.0354C184.351 71.1207 187.438 71.8956 187.816 71.8956C188.194 71.8956 188.792 71.3727 188.414 70.1694C188.036 68.9661 187.74 67.7754 187.74 67.7754Z" fill="#263238" stroke="#263238" stroke-linecap="round" stroke-linejoin="round"/>
<path d="M200.97 62.6597C200.97 62.6597 200.743 65.6711 200.743 66.8744C200.743 68.0777 202.003 68.5313 202.633 68.5313C203.263 68.5313 203.54 69.9614 203.162 71.4671C202.784 72.9728 201.506 73.8737 198.419 73.8737C195.332 73.8737 193.454 72.5192 193.379 71.5427C193.303 70.5662 194.053 66.3452 195.338 65.2427C196.623 64.1402 200.97 62.6597 200.97 62.6597Z" fill="#263238" stroke="#263238" stroke-linecap="round" stroke-linejoin="round"/>
<path d="M189.699 71.9145V73.08C189.7 73.2634 189.753 73.4428 189.852 73.597C189.951 73.7511 190.093 73.8734 190.26 73.9494C190.801 74.1781 191.375 74.3165 191.961 74.3589C193.141 74.3591 194.306 74.1011 195.376 73.6029C195.524 73.5398 195.65 73.4344 195.738 73.2999C195.827 73.1655 195.874 73.0079 195.873 72.8469V71.631C195.872 71.5569 195.852 71.4842 195.816 71.4194C195.78 71.3545 195.729 71.2995 195.667 71.2591C195.605 71.2187 195.534 71.1941 195.46 71.1876C195.386 71.181 195.312 71.1927 195.243 71.2215L194.998 71.3475C194.998 71.3475 191.281 71.82 189.699 71.9145Z" fill="#92E3A9" stroke="#263238" stroke-linecap="round" stroke-linejoin="round"/>
<path d="M188.049 62.055C187.637 63.7099 187.359 65.3954 187.217 67.095C186.99 69.8796 187.217 72.4374 188.345 72.513C189.118 72.5144 189.877 72.2959 190.531 71.883C190.531 71.883 193.164 72.1854 194.065 71.7381L194.972 71.2845L195.646 66.8745C195.646 66.8745 195.722 60.0264 194.443 59.5728C193.164 59.1192 188.049 62.055 188.049 62.055Z" fill="white" stroke="#263238" stroke-linecap="round" stroke-linejoin="round"/>
<path d="M190.077 65.1421L189.479 66.7234C189.479 66.7234 188.269 67.0258 188.42 67.6243C188.572 68.2228 189.372 68.1346 189.372 68.1346" stroke="#263238" stroke-linecap="round" stroke-linejoin="round"/>
<path d="M192.011 65.8286C191.892 66.1562 191.646 66.3704 191.476 66.3074C191.306 66.2444 191.255 65.9231 191.381 65.5892C191.507 65.2553 191.747 65.0411 191.923 65.1104C192.1 65.1797 192.15 65.5199 192.011 65.8286Z" fill="#263238"/>
<path d="M189.176 65.0664C189.05 65.4003 188.811 65.6145 188.635 65.5515C188.458 65.4885 188.42 65.1609 188.54 64.8333C188.66 64.5057 188.906 64.2852 189.082 64.3482C189.258 64.4112 189.296 64.7388 189.176 65.0664Z" fill="#263238"/>
<path d="M191.432 63.7118C191.432 63.7118 192.862 63.3338 193.013 64.6946" stroke="#263238" stroke-linecap="round" stroke-linejoin="round"/>
<path d="M189.554 63.3338C189.554 63.3338 188.294 62.8865 187.897 63.9638" stroke="#263238" stroke-linecap="round" stroke-linejoin="round"/>
<path d="M190.531 71.9144L192.559 71.0891" stroke="#263238" stroke-linecap="round" stroke-linejoin="round"/>
<path d="M189 58.59C189 58.59 186.593 55.7298 184.785 57.834C182.977 59.9382 183.525 63.1071 186.745 63.2583C189.964 63.4095 193.593 60.2469 193.593 60.2469C193.593 60.2469 193.215 64.386 194.116 65.8161C195.017 67.2462 195.697 68.2227 195.697 68.2227C195.697 68.2227 196.957 69.048 199.086 67.3974C201.216 65.7468 201.72 61.7274 200.214 59.0373C198.708 56.3472 196.075 54.8226 192.912 55.8873C189.75 56.952 189 58.59 189 58.59Z" fill="#263238" stroke="#263238" stroke-linecap="round" stroke-linejoin="round"/>
<path d="M194.216 68.1533C194.216 68.1533 196.925 65.6711 196.925 67.1012C196.925 68.5313 195.665 69.8102 194.67 69.5078" fill="white"/>
<path d="M194.216 68.1533C194.216 68.1533 196.925 65.6711 196.925 67.1012C196.925 68.5313 195.665 69.8102 194.67 69.5078" stroke="#263238" stroke-linecap="round" stroke-linejoin="round"/>
<path d="M188.42 69.3C188.776 69.5564 189.204 69.6943 189.643 69.6943C190.081 69.6943 190.509 69.5564 190.865 69.3" stroke="#263238" stroke-linecap="round" stroke-linejoin="round"/>
<path d="M202.401 74.057C207.211 68.9377 206.961 60.888 201.842 56.0773C196.723 51.2666 188.673 51.5168 183.862 56.6361C179.052 61.7553 179.302 69.8051 184.421 74.6157C189.54 79.4264 197.59 79.1762 202.401 74.057Z" stroke="#263238" stroke-linecap="round" stroke-linejoin="round"/>
<path d="M279.692 168.819C286.922 167.129 291.412 159.897 289.722 152.667C288.031 145.437 280.8 140.947 273.57 142.637C266.34 144.328 261.849 151.559 263.54 158.789C265.23 166.019 272.462 170.51 279.692 168.819Z" stroke="#263238" stroke-linecap="round" stroke-linejoin="round"/>
<path d="M281.219 159.692C281.219 160.577 280.957 161.442 280.466 162.178C279.974 162.913 279.276 163.486 278.458 163.825C277.641 164.164 276.741 164.252 275.874 164.08C275.006 163.907 274.209 163.481 273.584 162.855C272.958 162.23 272.532 161.433 272.359 160.565C272.187 159.697 272.275 158.798 272.614 157.981C272.952 157.163 273.526 156.465 274.261 155.973C274.997 155.482 275.862 155.219 276.746 155.219C277.933 155.219 279.07 155.691 279.909 156.53C280.748 157.368 281.219 158.506 281.219 159.692Z" fill="#92E3A9" stroke="#263238" stroke-linecap="round" stroke-linejoin="round"/>
<path d="M283.141 162.672C284.106 161.468 284.711 160.015 284.886 158.482C285.062 156.949 284.801 155.397 284.133 154.006C283.465 152.615 282.417 151.441 281.111 150.619C279.805 149.797 278.293 149.361 276.75 149.361C275.206 149.361 273.694 149.797 272.388 150.619C271.082 151.441 270.035 152.615 269.367 154.006C268.699 155.397 268.437 156.949 268.613 158.482C268.788 160.015 269.393 161.468 270.358 162.672H283.141Z" fill="white" stroke="#263238" stroke-linecap="round" stroke-linejoin="round"/>
<path d="M279.941 160.354H273.351C272.965 160.354 272.583 160.278 272.227 160.13C271.871 159.983 271.547 159.767 271.275 159.494C271.002 159.221 270.786 158.898 270.638 158.541C270.491 158.185 270.415 157.804 270.415 157.418C270.414 157.032 270.489 156.65 270.637 156.294C270.784 155.937 271 155.613 271.273 155.34C271.546 155.067 271.87 154.851 272.226 154.704C272.583 154.557 272.965 154.481 273.351 154.482H279.941C280.326 154.481 280.708 154.557 281.065 154.704C281.422 154.851 281.746 155.067 282.018 155.34C282.291 155.613 282.507 155.937 282.655 156.294C282.802 156.65 282.877 157.032 282.876 157.418C282.876 158.197 282.567 158.943 282.016 159.494C281.466 160.044 280.719 160.354 279.941 160.354Z" fill="#92E3A9" stroke="#263238" stroke-linecap="round" stroke-linejoin="round"/>
<path d="M271.763 157.179C271.898 156.801 272.144 156.472 272.469 156.236C272.794 156.001 273.183 155.869 273.584 155.858C273.985 155.847 274.38 155.958 274.718 156.175C275.055 156.393 275.318 156.708 275.474 157.078" stroke="#263238" stroke-width="2" stroke-linecap="round" stroke-linejoin="round"/>
<path d="M277.924 157.179C278.059 156.801 278.306 156.472 278.63 156.236C278.955 156.001 279.344 155.869 279.745 155.858C280.147 155.847 280.542 155.958 280.879 156.175C281.216 156.393 281.48 156.708 281.635 157.078" stroke="#263238" stroke-width="2" stroke-linecap="round" stroke-linejoin="round"/>
<path d="M275.669 158.54C275.698 158.816 275.829 159.073 276.036 159.259C276.243 159.445 276.512 159.548 276.79 159.548C277.069 159.548 277.338 159.445 277.545 159.259C277.752 159.073 277.882 158.816 277.912 158.54H275.669Z" fill="white" stroke="#263238" stroke-linecap="round" stroke-linejoin="round"/>
<path d="M287.337 159.006C287.224 159.006 287.113 158.984 287.009 158.941C286.905 158.897 286.81 158.834 286.731 158.755C286.651 158.675 286.588 158.581 286.545 158.477C286.502 158.373 286.48 158.261 286.48 158.149V156.202C286.48 156.09 286.502 155.978 286.545 155.874C286.588 155.77 286.651 155.676 286.731 155.596C286.81 155.517 286.905 155.454 287.009 155.411C287.113 155.368 287.224 155.345 287.337 155.345C287.449 155.345 287.561 155.368 287.665 155.411C287.769 155.454 287.863 155.517 287.943 155.596C288.022 155.676 288.085 155.77 288.128 155.874C288.171 155.978 288.193 156.09 288.193 156.202V158.13C288.196 158.244 288.176 158.358 288.134 158.464C288.092 158.57 288.029 158.667 287.949 158.748C287.869 158.83 287.774 158.895 287.669 158.939C287.564 158.983 287.451 159.006 287.337 159.006Z" fill="#263238" stroke="#263238" stroke-linecap="round" stroke-linejoin="round"/>
<path d="M265.929 159.006C265.817 159.006 265.705 158.984 265.601 158.941C265.497 158.897 265.403 158.834 265.323 158.755C265.244 158.675 265.181 158.581 265.138 158.477C265.095 158.373 265.073 158.261 265.073 158.149V156.202C265.073 156.09 265.095 155.978 265.138 155.874C265.181 155.77 265.244 155.676 265.323 155.596C265.403 155.517 265.497 155.454 265.601 155.411C265.705 155.368 265.817 155.345 265.929 155.345C266.042 155.345 266.153 155.368 266.257 155.411C266.361 155.454 266.456 155.517 266.535 155.596C266.615 155.676 266.678 155.77 266.721 155.874C266.764 155.978 266.786 156.09 266.786 156.202V158.13C266.789 158.244 266.768 158.358 266.726 158.464C266.684 158.57 266.622 158.667 266.542 158.748C266.462 158.83 266.367 158.895 266.262 158.939C266.156 158.983 266.043 159.006 265.929 159.006Z" fill="#263238" stroke="#263238" stroke-linecap="round" stroke-linejoin="round"/>
<path d="M267.511 156.322C267.273 156.32 267.045 156.224 266.878 156.056C266.71 155.887 266.616 155.659 266.616 155.421V154.01C266.613 152.481 267.07 150.986 267.926 149.719C267.988 149.611 268.071 149.517 268.171 149.443C268.27 149.369 268.384 149.316 268.505 149.288C268.626 149.259 268.752 149.257 268.874 149.279C268.996 149.302 269.112 149.35 269.215 149.419C269.318 149.489 269.405 149.579 269.471 149.684C269.538 149.79 269.581 149.907 269.6 150.03C269.619 150.153 269.612 150.278 269.58 150.398C269.547 150.518 269.491 150.63 269.413 150.727C268.758 151.696 268.409 152.84 268.411 154.01V155.421C268.411 155.66 268.317 155.889 268.148 156.058C267.979 156.227 267.75 156.322 267.511 156.322Z" fill="#263238"/>
<path d="M284.911 150.677C284.837 150.677 284.765 150.659 284.7 150.624C284.635 150.588 284.58 150.537 284.539 150.475C283.962 149.614 283.181 148.909 282.265 148.422C281.35 147.935 280.328 147.682 279.292 147.685H274.289C273.252 147.682 272.231 147.935 271.316 148.422C270.4 148.909 269.619 149.614 269.041 150.475C268.974 150.575 268.869 150.643 268.751 150.666C268.633 150.688 268.511 150.663 268.411 150.595C268.362 150.562 268.319 150.52 268.286 150.47C268.253 150.42 268.23 150.364 268.219 150.305C268.207 150.247 268.208 150.186 268.221 150.128C268.233 150.069 268.257 150.014 268.292 149.965C268.952 148.983 269.844 148.179 270.889 147.623C271.934 147.067 273.1 146.776 274.283 146.777H279.285C280.47 146.777 281.637 147.068 282.683 147.625C283.729 148.182 284.622 148.988 285.283 149.971C285.317 150.021 285.341 150.076 285.353 150.135C285.365 150.194 285.365 150.254 285.353 150.313C285.341 150.372 285.318 150.428 285.284 150.477C285.251 150.527 285.207 150.569 285.157 150.601C285.084 150.65 284.999 150.676 284.911 150.677Z" fill="#263238"/>
<path d="M286.07 156.322C285.831 156.322 285.602 156.227 285.433 156.058C285.264 155.889 285.17 155.66 285.17 155.421V154.01C285.172 152.84 284.823 151.697 284.168 150.728C284.093 150.63 284.038 150.518 284.008 150.398C283.978 150.279 283.973 150.154 283.993 150.033C284.012 149.911 284.057 149.795 284.124 149.691C284.19 149.587 284.277 149.499 284.38 149.43C284.482 149.361 284.597 149.314 284.719 149.292C284.84 149.27 284.964 149.272 285.085 149.3C285.205 149.328 285.318 149.38 285.417 149.453C285.516 149.526 285.599 149.619 285.661 149.726C286.515 150.991 286.97 152.483 286.965 154.01V155.421C286.965 155.659 286.871 155.887 286.703 156.056C286.536 156.225 286.308 156.32 286.07 156.322Z" fill="#263238"/>
<path d="M267.624 160.278C267.153 160.278 266.701 160.091 266.368 159.758C266.035 159.425 265.847 158.973 265.847 158.502V155.679C265.847 155.208 266.035 154.756 266.368 154.423C266.701 154.09 267.153 153.903 267.624 153.903C268.095 153.903 268.547 154.09 268.88 154.423C269.213 154.756 269.401 155.208 269.401 155.679V158.502C269.401 158.973 269.213 159.425 268.88 159.758C268.547 160.091 268.095 160.278 267.624 160.278Z" fill="white" stroke="#263238" stroke-linecap="round" stroke-linejoin="round"/>
<path d="M267.807 153.903H267.441V160.278H267.807V153.903Z" fill="#92E3A9" stroke="#263238" stroke-linecap="round" stroke-linejoin="round"/>
<path d="M287.519 155.679C287.519 154.698 286.724 153.903 285.743 153.903C284.762 153.903 283.966 154.698 283.966 155.679V158.502C283.966 159.483 284.762 160.278 285.743 160.278C286.724 160.278 287.519 159.483 287.519 158.502V155.679Z" fill="white" stroke="#263238" stroke-linecap="round" stroke-linejoin="round"/>
<path d="M285.925 153.903H285.56V160.278H285.925V153.903Z" fill="#92E3A9" stroke="#263238" stroke-linecap="round" stroke-linejoin="round"/>
<path d="M276.778 153.323C277.404 153.321 278.019 153.163 278.569 152.864C279.119 152.565 279.586 152.134 279.928 151.61L280.703 150.406C279.475 149.726 278.092 149.375 276.688 149.386C275.284 149.397 273.907 149.77 272.689 150.469L273.848 151.918C274.202 152.355 274.648 152.708 275.155 152.951C275.661 153.195 276.216 153.321 276.778 153.323Z" fill="#92E3A9" stroke="#263238" stroke-linecap="round" stroke-linejoin="round"/>
<path d="M276.841 161.079C276.914 161.079 276.974 161.019 276.974 160.946C276.974 160.873 276.914 160.814 276.841 160.814C276.768 160.814 276.709 160.873 276.709 160.946C276.709 161.019 276.768 161.079 276.841 161.079Z" fill="#263238"/>
<path d="M276.974 161.406C276.972 161.372 276.957 161.34 276.933 161.317C276.908 161.293 276.875 161.28 276.841 161.28C276.824 161.279 276.807 161.282 276.791 161.288C276.775 161.294 276.76 161.303 276.748 161.315C276.735 161.326 276.726 161.341 276.719 161.356C276.712 161.372 276.709 161.389 276.709 161.406C276.709 161.441 276.723 161.475 276.747 161.5C276.772 161.525 276.806 161.539 276.841 161.539C276.876 161.539 276.91 161.525 276.935 161.5C276.96 161.475 276.974 161.441 276.974 161.406Z" fill="#263238"/>
<path d="M276.451 161.337C276.484 161.327 276.512 161.304 276.528 161.273C276.545 161.243 276.549 161.206 276.539 161.173C276.526 161.14 276.502 161.113 276.47 161.097C276.439 161.08 276.403 161.076 276.369 161.085C276.335 161.095 276.307 161.118 276.291 161.149C276.274 161.179 276.27 161.215 276.28 161.249C276.293 161.282 276.317 161.309 276.349 161.325C276.38 161.341 276.416 161.346 276.451 161.337Z" fill="#263238"/>
<path d="M277.276 161.337C277.309 161.327 277.337 161.304 277.354 161.273C277.37 161.243 277.374 161.207 277.364 161.173C277.353 161.139 277.329 161.111 277.297 161.095C277.265 161.078 277.228 161.075 277.194 161.085C277.177 161.09 277.162 161.098 277.149 161.109C277.136 161.12 277.125 161.134 277.117 161.149C277.11 161.164 277.105 161.181 277.104 161.198C277.103 161.216 277.106 161.233 277.112 161.249C277.122 161.282 277.145 161.31 277.176 161.327C277.206 161.343 277.242 161.347 277.276 161.337Z" fill="#263238"/>
<path d="M260.114 87.0345H209.985V64.701V58.7791L215.914 64.701H260.114V87.0345Z" fill="#D6D6D6" stroke="#263238" stroke-linecap="round" stroke-linejoin="round"/>
<path d="M260.114 119.385H209.985V97.0577V91.1357L215.914 97.0577H260.114V119.385Z" fill="#D6D6D6" stroke="#263238" stroke-linecap="round" stroke-linejoin="round"/>
<path d="M243.457 72.387H255.257" stroke="#263238" stroke-linecap="round" stroke-linejoin="round"/>
<path d="M226.945 72.387H240.427" stroke="#263238" stroke-linecap="round" stroke-linejoin="round"/>
<path d="M216.833 72.387H224.582" stroke="#263238" stroke-linecap="round" stroke-linejoin="round"/>
<path d="M238.064 76.0977H255.257" stroke="#263238" stroke-linecap="round" stroke-linejoin="round"/>
<path d="M216.833 76.0977H235.034" stroke="#263238" stroke-linecap="round" stroke-linejoin="round"/>
<path d="M251.887 79.802H255.257" stroke="#263238" stroke-linecap="round" stroke-linejoin="round"/>
<path d="M233.012 79.802H249.19" stroke="#263238" stroke-linecap="round" stroke-linejoin="round"/>
<path d="M216.833 79.802H230.315" stroke="#263238" stroke-linecap="round" stroke-linejoin="round"/>
<path d="M243.457 103.729H255.257" stroke="#263238" stroke-linecap="round" stroke-linejoin="round"/>
<path d="M226.945 103.729H240.427" stroke="#263238" stroke-linecap="round" stroke-linejoin="round"/>
<path d="M216.833 103.729H224.582" stroke="#263238" stroke-linecap="round" stroke-linejoin="round"/>
<path d="M238.064 107.44H255.257" stroke="#263238" stroke-linecap="round" stroke-linejoin="round"/>
<path d="M216.833 107.44H235.034" stroke="#263238" stroke-linecap="round" stroke-linejoin="round"/>
<path d="M251.887 111.145H255.257" stroke="#263238" stroke-linecap="round" stroke-linejoin="round"/>
<path d="M233.012 111.145H249.19" stroke="#263238" stroke-linecap="round" stroke-linejoin="round"/>
<path d="M216.833 111.145H230.315" stroke="#263238" stroke-linecap="round" stroke-linejoin="round"/>
<path d="M209.985 210.363H260.114V156.353V150.431L254.186 156.353H209.985V210.363Z" fill="#92E3A9" stroke="#263238" stroke-linecap="round" stroke-linejoin="round"/>
<path d="M243.457 163.724H255.257" stroke="#263238" stroke-linecap="round" stroke-linejoin="round"/>
<path d="M226.945 163.724H240.427" stroke="#263238" stroke-linecap="round" stroke-linejoin="round"/>
<path d="M216.833 163.724H224.582" stroke="#263238" stroke-linecap="round" stroke-linejoin="round"/>
<path d="M238.064 167.429H255.257" stroke="#263238" stroke-linecap="round" stroke-linejoin="round"/>
<path d="M216.833 167.429H235.034" stroke="#263238" stroke-linecap="round" stroke-linejoin="round"/>
<path d="M251.887 171.139H255.257" stroke="#263238" stroke-linecap="round" stroke-linejoin="round"/>
<path d="M233.012 171.139H249.19" stroke="#263238" stroke-linecap="round" stroke-linejoin="round"/>
<path d="M216.833 171.139H230.315" stroke="#263238" stroke-linecap="round" stroke-linejoin="round"/>
<path d="M243.457 174.17H255.257" stroke="#263238" stroke-linecap="round" stroke-linejoin="round"/>
<path d="M226.945 174.17H240.427" stroke="#263238" stroke-linecap="round" stroke-linejoin="round"/>
<path d="M216.833 174.17H224.582" stroke="#263238" stroke-linecap="round" stroke-linejoin="round"/>
<path d="M238.064 177.88H255.257" stroke="#263238" stroke-linecap="round" stroke-linejoin="round"/>
<path d="M216.833 177.88H235.034" stroke="#263238" stroke-linecap="round" stroke-linejoin="round"/>
<path d="M251.887 181.585H255.257" stroke="#263238" stroke-linecap="round" stroke-linejoin="round"/>
<path d="M233.012 181.585H249.19" stroke="#263238" stroke-linecap="round" stroke-linejoin="round"/>
<path d="M216.833 181.585H230.315" stroke="#263238" stroke-linecap="round" stroke-linejoin="round"/>
<path d="M243.457 184.622H255.257" stroke="#263238" stroke-linecap="round" stroke-linejoin="round"/>
<path d="M226.945 184.622H240.427" stroke="#263238" stroke-linecap="round" stroke-linejoin="round"/>
<path d="M216.833 184.622H224.582" stroke="#263238" stroke-linecap="round" stroke-linejoin="round"/>
<path d="M238.064 188.326H255.257" stroke="#263238" stroke-linecap="round" stroke-linejoin="round"/>
<path d="M216.833 188.326H235.034" stroke="#263238" stroke-linecap="round" stroke-linejoin="round"/>
<path d="M251.887 192.037H255.257" stroke="#263238" stroke-linecap="round" stroke-linejoin="round"/>
<path d="M233.012 192.037H249.19" stroke="#263238" stroke-linecap="round" stroke-linejoin="round"/>
<path d="M216.833 192.037H230.315" stroke="#263238" stroke-linecap="round" stroke-linejoin="round"/>
<path d="M243.457 195.067H255.257" stroke="#263238" stroke-linecap="round" stroke-linejoin="round"/>
<path d="M226.945 195.067H240.427" stroke="#263238" stroke-linecap="round" stroke-linejoin="round"/>
<path d="M216.833 195.067H224.582" stroke="#263238" stroke-linecap="round" stroke-linejoin="round"/>
<path d="M238.064 198.778H255.257" stroke="#263238" stroke-linecap="round" stroke-linejoin="round"/>
<path d="M216.833 198.778H235.034" stroke="#263238" stroke-linecap="round" stroke-linejoin="round"/>
<path d="M251.887 202.482H255.257" stroke="#263238" stroke-linecap="round" stroke-linejoin="round"/>
<path d="M233.012 202.482H249.19" stroke="#263238" stroke-linecap="round" stroke-linejoin="round"/>
<path d="M216.833 202.482H230.315" stroke="#263238" stroke-linecap="round" stroke-linejoin="round"/>
<path d="M276.633 240.395C284.058 240.395 290.077 234.376 290.077 226.951C290.077 219.526 284.058 213.507 276.633 213.507C269.208 213.507 263.189 219.526 263.189 226.951C263.189 234.376 269.208 240.395 276.633 240.395Z" stroke="#263238" stroke-linecap="round" stroke-linejoin="round"/>
<path d="M281.219 230.914C281.221 231.799 280.959 232.664 280.469 233.401C279.978 234.137 279.28 234.711 278.463 235.051C277.645 235.391 276.746 235.48 275.878 235.308C275.01 235.136 274.212 234.711 273.586 234.085C272.96 233.46 272.533 232.663 272.36 231.795C272.187 230.927 272.275 230.028 272.613 229.21C272.952 228.392 273.525 227.693 274.261 227.202C274.996 226.71 275.861 226.447 276.746 226.447C277.932 226.447 279.068 226.918 279.907 227.755C280.746 228.593 281.218 229.729 281.219 230.914Z" fill="#92E3A9" stroke="#263238" stroke-linecap="round" stroke-linejoin="round"/>
<path d="M283.141 233.894C284.106 232.689 284.711 231.237 284.886 229.704C285.062 228.17 284.801 226.619 284.133 225.228C283.465 223.836 282.417 222.662 281.111 221.84C279.805 221.019 278.293 220.583 276.75 220.583C275.206 220.583 273.694 221.019 272.388 221.84C271.082 222.662 270.035 223.836 269.367 225.228C268.699 226.619 268.437 228.17 268.613 229.704C268.788 231.237 269.393 232.689 270.358 233.894H283.141Z" fill="white" stroke="#263238" stroke-linecap="round" stroke-linejoin="round"/>
<path d="M279.941 231.575H273.351C272.965 231.575 272.583 231.499 272.227 231.352C271.871 231.204 271.547 230.988 271.275 230.716C271.002 230.443 270.786 230.119 270.638 229.763C270.491 229.407 270.415 229.025 270.415 228.64C270.415 228.254 270.491 227.872 270.638 227.516C270.786 227.16 271.002 226.836 271.275 226.564C271.547 226.291 271.871 226.075 272.227 225.927C272.583 225.78 272.965 225.704 273.351 225.704H279.941C280.326 225.704 280.708 225.78 281.064 225.927C281.42 226.075 281.744 226.291 282.016 226.564C282.289 226.836 282.505 227.16 282.653 227.516C282.8 227.872 282.876 228.254 282.876 228.64C282.876 229.418 282.567 230.165 282.016 230.716C281.466 231.266 280.719 231.575 279.941 231.575Z" fill="#92E3A9" stroke="#263238" stroke-linecap="round" stroke-linejoin="round"/>
<path d="M271.763 228.4C271.898 228.022 272.144 227.694 272.469 227.458C272.794 227.222 273.183 227.09 273.584 227.08C273.985 227.069 274.38 227.179 274.718 227.397C275.055 227.615 275.318 227.929 275.474 228.3" stroke="#263238" stroke-width="2" stroke-linecap="round" stroke-linejoin="round"/>
<path d="M277.924 228.4C278.059 228.022 278.306 227.694 278.63 227.458C278.955 227.222 279.344 227.09 279.745 227.08C280.147 227.069 280.542 227.179 280.879 227.397C281.216 227.615 281.48 227.929 281.635 228.3" stroke="#263238" stroke-width="2" stroke-linecap="round" stroke-linejoin="round"/>
<path d="M275.669 229.761C275.698 230.038 275.829 230.294 276.036 230.48C276.243 230.667 276.512 230.77 276.79 230.77C277.069 230.77 277.338 230.667 277.545 230.48C277.752 230.294 277.882 230.038 277.912 229.761H275.669Z" fill="white" stroke="#263238" stroke-linecap="round" stroke-linejoin="round"/>
<path d="M287.337 230.227C287.109 230.227 286.891 230.137 286.731 229.976C286.57 229.816 286.48 229.598 286.48 229.37V227.43C286.48 227.203 286.57 226.985 286.731 226.824C286.891 226.664 287.109 226.573 287.337 226.573C287.564 226.573 287.782 226.664 287.943 226.824C288.103 226.985 288.193 227.203 288.193 227.43V229.377C288.192 229.603 288.101 229.819 287.94 229.979C287.78 230.138 287.563 230.227 287.337 230.227Z" fill="#263238" stroke="#263238" stroke-linecap="round" stroke-linejoin="round"/>
<path d="M265.929 230.227C265.702 230.227 265.484 230.137 265.323 229.976C265.163 229.816 265.073 229.598 265.073 229.37V227.43C265.073 227.203 265.163 226.985 265.323 226.824C265.484 226.664 265.702 226.573 265.929 226.573C266.157 226.573 266.374 226.664 266.535 226.824C266.696 226.985 266.786 227.203 266.786 227.43V229.377C266.784 229.603 266.693 229.819 266.533 229.979C266.372 230.138 266.155 230.227 265.929 230.227Z" fill="#263238" stroke="#263238" stroke-linecap="round" stroke-linejoin="round"/>
<path d="M267.511 227.55C267.273 227.548 267.045 227.452 266.878 227.284C266.71 227.115 266.616 226.887 266.616 226.649V225.231C266.614 223.702 267.071 222.208 267.926 220.941C268.068 220.764 268.271 220.646 268.495 220.612C268.719 220.578 268.948 220.63 269.136 220.758C269.323 220.885 269.456 221.078 269.508 221.299C269.559 221.52 269.525 221.752 269.413 221.949C268.758 222.918 268.409 224.061 268.411 225.231V226.649C268.411 226.888 268.317 227.117 268.148 227.286C267.979 227.455 267.75 227.55 267.511 227.55Z" fill="#263238"/>
<path d="M284.911 221.899C284.838 221.898 284.766 221.88 284.701 221.846C284.637 221.812 284.581 221.763 284.539 221.703C283.963 220.841 283.182 220.134 282.266 219.646C281.351 219.158 280.329 218.904 279.292 218.906H274.289C273.253 218.907 272.233 219.162 271.318 219.648C270.403 220.135 269.621 220.838 269.041 221.697C269.008 221.746 268.966 221.788 268.917 221.82C268.867 221.852 268.812 221.875 268.754 221.886C268.697 221.897 268.637 221.897 268.579 221.885C268.521 221.873 268.467 221.85 268.418 221.817C268.369 221.784 268.327 221.741 268.295 221.692C268.262 221.643 268.24 221.587 268.229 221.53C268.218 221.472 268.218 221.412 268.23 221.354C268.242 221.297 268.265 221.242 268.298 221.193C268.959 220.211 269.851 219.406 270.895 218.85C271.94 218.295 273.106 218.004 274.289 218.005H279.292C280.476 218.006 281.643 218.297 282.689 218.854C283.735 219.411 284.628 220.216 285.289 221.199C285.323 221.249 285.347 221.304 285.359 221.363C285.371 221.422 285.371 221.482 285.36 221.541C285.348 221.6 285.324 221.655 285.291 221.705C285.257 221.755 285.214 221.797 285.163 221.829C285.088 221.877 285 221.901 284.911 221.899Z" fill="#263238"/>
<path d="M286.07 227.55C285.831 227.55 285.602 227.455 285.433 227.286C285.264 227.117 285.169 226.888 285.169 226.649V225.231C285.171 224.064 284.822 222.922 284.168 221.955C284.099 221.857 284.05 221.747 284.025 221.63C283.999 221.513 283.998 221.392 284.019 221.274C284.041 221.157 284.086 221.044 284.151 220.944C284.217 220.844 284.302 220.758 284.401 220.691C284.5 220.624 284.612 220.578 284.729 220.554C284.847 220.531 284.967 220.531 285.085 220.555C285.202 220.579 285.313 220.626 285.412 220.693C285.511 220.761 285.596 220.847 285.661 220.947C286.515 222.213 286.969 223.705 286.965 225.231V226.649C286.965 226.887 286.871 227.115 286.703 227.284C286.536 227.452 286.308 227.548 286.07 227.55Z" fill="#263238"/>
<path d="M267.624 231.506C267.153 231.506 266.701 231.319 266.368 230.986C266.035 230.653 265.847 230.201 265.847 229.73V226.901C265.847 226.43 266.035 225.978 266.368 225.645C266.701 225.311 267.153 225.124 267.624 225.124C268.095 225.124 268.547 225.311 268.88 225.645C269.213 225.978 269.401 226.43 269.401 226.901V229.73C269.399 230.2 269.211 230.651 268.878 230.984C268.546 231.317 268.095 231.505 267.624 231.506Z" fill="white" stroke="#263238" stroke-linecap="round" stroke-linejoin="round"/>
<path d="M267.807 225.124H267.441V231.5H267.807V225.124Z" fill="#92E3A9" stroke="#263238" stroke-linecap="round" stroke-linejoin="round"/>
<path d="M287.519 226.901C287.519 225.92 286.724 225.124 285.743 225.124C284.762 225.124 283.966 225.92 283.966 226.901V229.723C283.966 230.704 284.762 231.5 285.743 231.5C286.724 231.5 287.519 230.704 287.519 229.723V226.901Z" fill="white" stroke="#263238" stroke-linecap="round" stroke-linejoin="round"/>
<path d="M285.925 225.124H285.56V231.5H285.925V225.124Z" fill="#92E3A9" stroke="#263238" stroke-linecap="round" stroke-linejoin="round"/>
<path d="M276.778 224.545C277.404 224.542 278.019 224.384 278.569 224.085C279.119 223.786 279.586 223.355 279.928 222.831L280.703 221.634C279.474 220.956 278.092 220.605 276.689 220.615C275.285 220.625 273.908 220.995 272.689 221.691L273.848 223.14C274.202 223.577 274.648 223.93 275.155 224.173C275.661 224.416 276.216 224.543 276.778 224.545Z" fill="#92E3A9" stroke="#263238" stroke-linecap="round" stroke-linejoin="round"/>
<path d="M276.841 232.301C276.914 232.301 276.974 232.241 276.974 232.168C276.974 232.095 276.914 232.035 276.841 232.035C276.768 232.035 276.709 232.095 276.709 232.168C276.709 232.241 276.768 232.301 276.841 232.301Z" fill="#263238"/>
<path d="M276.841 232.767C276.914 232.767 276.974 232.707 276.974 232.634C276.974 232.561 276.914 232.501 276.841 232.501C276.768 232.501 276.709 232.561 276.709 232.634C276.709 232.707 276.768 232.767 276.841 232.767Z" fill="#263238"/>
<path d="M276.451 232.559C276.484 232.549 276.512 232.526 276.528 232.495C276.545 232.464 276.549 232.428 276.539 232.395C276.526 232.362 276.502 232.335 276.47 232.318C276.439 232.302 276.403 232.298 276.369 232.306C276.336 232.318 276.309 232.341 276.293 232.371C276.276 232.402 276.272 232.437 276.28 232.47C276.285 232.488 276.294 232.504 276.305 232.518C276.316 232.531 276.33 232.543 276.346 232.551C276.362 232.559 276.38 232.564 276.398 232.566C276.416 232.567 276.434 232.565 276.451 232.559Z" fill="#263238"/>
<path d="M277.276 232.559C277.309 232.548 277.337 232.525 277.354 232.495C277.37 232.464 277.374 232.428 277.364 232.394C277.353 232.361 277.329 232.333 277.297 232.316C277.265 232.3 277.228 232.296 277.194 232.306C277.177 232.311 277.162 232.319 277.149 232.33C277.136 232.342 277.125 232.355 277.117 232.371C277.11 232.386 277.105 232.403 277.104 232.42C277.103 232.437 277.106 232.454 277.112 232.47C277.116 232.487 277.124 232.503 277.135 232.517C277.145 232.531 277.159 232.542 277.174 232.551C277.19 232.559 277.207 232.564 277.224 232.565C277.242 232.567 277.259 232.564 277.276 232.559Z" fill="#263238"/>
<path d="M209.985 259.453H260.114V227.575V221.653L254.186 227.575H209.985V259.453Z" fill="#92E3A9" stroke="#263238" stroke-linecap="round" stroke-linejoin="round"/>
<path d="M243.457 234.946H255.257" stroke="#263238" stroke-linecap="round" stroke-linejoin="round"/>
<path d="M226.945 234.946H240.427" stroke="#263238" stroke-linecap="round" stroke-linejoin="round"/>
<path d="M216.833 234.946H224.582" stroke="#263238" stroke-linecap="round" stroke-linejoin="round"/>
<path d="M238.064 238.656H255.257" stroke="#263238" stroke-linecap="round" stroke-linejoin="round"/>
<path d="M216.833 238.656H235.034" stroke="#263238" stroke-linecap="round" stroke-linejoin="round"/>
<path d="M251.887 242.361H255.257" stroke="#263238" stroke-linecap="round" stroke-linejoin="round"/>
<path d="M233.012 242.361H249.19" stroke="#263238" stroke-linecap="round" stroke-linejoin="round"/>
<path d="M216.833 242.361H230.315" stroke="#263238" stroke-linecap="round" stroke-linejoin="round"/>
<path d="M243.457 245.398H255.257" stroke="#263238" stroke-linecap="round" stroke-linejoin="round"/>
<path d="M226.945 245.398H240.427" stroke="#263238" stroke-linecap="round" stroke-linejoin="round"/>
<path d="M216.833 245.398H224.582" stroke="#263238" stroke-linecap="round" stroke-linejoin="round"/>
<path d="M238.064 249.102H255.257" stroke="#263238" stroke-linecap="round" stroke-linejoin="round"/>
<path d="M216.833 249.102H235.034" stroke="#263238" stroke-linecap="round" stroke-linejoin="round"/>
<path d="M251.887 252.806H255.257" stroke="#263238" stroke-linecap="round" stroke-linejoin="round"/>
<path d="M233.012 252.806H249.19" stroke="#263238" stroke-linecap="round" stroke-linejoin="round"/>
<path d="M216.833 252.806H230.315" stroke="#263238" stroke-linecap="round" stroke-linejoin="round"/>
<path d="M285.39 35.0154H259.384C259.111 36.4557 258.345 37.7558 257.216 38.6919C256.088 39.6279 254.669 40.1413 253.203 40.1436H215.97C214.504 40.1413 213.085 39.6279 211.957 38.6919C210.829 37.7558 210.063 36.4557 209.79 35.0154H183.815C181.643 35.0154 179.56 35.8783 178.024 37.4142C176.488 38.9501 175.625 41.0333 175.625 43.2054V263.075C175.625 265.247 176.488 267.331 178.024 268.867C179.56 270.402 181.643 271.265 183.815 271.265H285.39C287.562 271.265 289.645 270.402 291.181 268.867C292.717 267.331 293.58 265.247 293.58 263.075V43.2054C293.58 41.0333 292.717 38.9501 291.181 37.4142C289.645 35.8783 287.562 35.0154 285.39 35.0154V35.0154Z" stroke="#263238" stroke-width="2" stroke-linecap="round" stroke-linejoin="round"/>
<path d="M293.58 49.8519V43.2117C293.58 41.0396 292.717 38.9564 291.181 37.4205C289.645 35.8846 287.562 35.0217 285.39 35.0217H259.384C259.111 36.462 258.345 37.7621 257.216 38.6982C256.088 39.6342 254.669 40.1476 253.203 40.1499H215.97C214.504 40.1473 213.084 39.6331 211.955 38.6958C210.827 37.7584 210.061 36.4568 209.79 35.0154H183.815C181.643 35.0154 179.56 35.8783 178.024 37.4142C176.488 38.9501 175.625 41.0333 175.625 43.2054V49.8519H293.58Z" stroke="#263238" stroke-width="2" stroke-linecap="round" stroke-linejoin="round"/>
<path d="M186.43 40.9499C186.43 42.5627 184.615 43.1423 184.609 44.3708V44.4527H186.367V45.0008H184.023V44.5409C184.023 42.8399 185.85 42.4745 185.85 40.9499C185.85 40.3955 185.667 40.1057 185.22 40.1057C184.773 40.1057 184.59 40.4207 184.59 40.8932V41.3657H184.036V40.9499C184.036 40.1309 184.407 39.5891 185.233 39.5891C186.058 39.5891 186.43 40.1309 186.43 40.9499Z" fill="#263238"/>
<path d="M189.353 40.95V41.0886C189.38 41.3148 189.333 41.5436 189.219 41.7411C189.106 41.9386 188.932 42.0942 188.723 42.1848C188.934 42.276 189.11 42.4336 189.224 42.6337C189.337 42.8337 189.383 43.0654 189.353 43.2936V43.7031C189.353 44.5221 188.968 45.0576 188.149 45.0576C187.33 45.0576 186.946 44.5221 186.946 43.7031V43.3377H187.507V43.7409C187.507 44.226 187.702 44.5158 188.137 44.5158C188.572 44.5158 188.767 44.2323 188.767 43.6905V43.281C188.767 42.7518 188.54 42.4998 188.093 42.4809H187.74V41.9517H188.093C188.185 41.9531 188.277 41.934 188.361 41.8959C188.446 41.8577 188.521 41.8015 188.581 41.7311C188.641 41.6607 188.685 41.578 188.709 41.4887C188.734 41.3994 188.739 41.3058 188.723 41.2146V40.95C188.723 40.4019 188.527 40.1184 188.093 40.1184C187.658 40.1184 187.463 40.4145 187.463 40.8996V41.1768H186.902V40.95C186.902 40.131 187.286 39.6018 188.105 39.6018C188.924 39.6018 189.353 40.1247 189.353 40.95Z" fill="#263238"/>
<path d="M190.506 41.3469V42.0903H189.932V41.3469H190.506ZM190.506 44.2575V45.0009H189.932V44.2575H190.506Z" fill="#263238"/>
<path d="M191.715 41.8256C191.794 41.6856 191.909 41.5702 192.049 41.4923C192.19 41.4144 192.349 41.3771 192.509 41.3846C193.196 41.3846 193.504 41.8886 193.504 42.6446V43.6904C193.504 44.5094 193.114 45.0449 192.295 45.0449C191.476 45.0449 191.098 44.5094 191.098 43.6904V43.3313H191.652V43.7282C191.652 44.2133 191.854 44.5031 192.282 44.5031C192.711 44.5031 192.912 44.2133 192.912 43.7282V42.7013C192.912 42.2162 192.717 41.9264 192.282 41.9264C192.202 41.9185 192.122 41.9274 192.045 41.9526C191.969 41.9779 191.899 42.0188 191.84 42.0729C191.78 42.1269 191.733 42.1928 191.701 42.2664C191.668 42.3399 191.652 42.4194 191.652 42.4997V42.6194H191.092L191.236 39.6521H193.347V40.1876H191.772L191.715 41.8256Z" fill="#263238"/>
<path d="M196.472 40.95V41.0445H195.93V40.9059C195.93 40.4271 195.728 40.1436 195.3 40.1436C194.872 40.1436 194.67 40.4334 194.67 41.0067V42.21C194.732 42.0333 194.849 41.8816 195.005 41.7781C195.161 41.6746 195.346 41.6249 195.533 41.6367C196.22 41.6367 196.529 42.1281 196.529 42.8967V43.7031C196.529 44.5221 196.125 45.0576 195.306 45.0576C194.487 45.0576 194.04 44.5158 194.04 43.6968V40.95C194.04 40.0995 194.418 39.5703 195.269 39.5703C196.119 39.5703 196.472 40.1184 196.472 40.95ZM194.632 42.9471V43.7472C194.632 44.2323 194.834 44.5221 195.262 44.5221C195.691 44.5221 195.892 44.2323 195.892 43.7472V42.9345C195.892 42.4557 195.684 42.1659 195.262 42.1659C194.84 42.1659 194.632 42.4557 194.632 42.9345V42.9471Z" fill="#263238"/>
<path d="M262.502 41.1704H260.99V44.9441H262.502V41.1704Z" fill="#263238"/>
<path d="M264.518 40.4146H263.006V44.9442H264.518V40.4146Z" fill="#263238"/>
<path d="M266.528 39.8789H265.016V44.9441H266.528V39.8789Z" fill="#263238"/>
<path d="M268.544 38.9402H267.032V44.9441H268.544V38.9402Z" fill="#263238"/>
<path d="M287.223 44.8371H278.164V39.3057H287.223V44.8371ZM278.668 44.3394H286.719V39.8097H278.668V44.3394Z" fill="#263238"/>
<path d="M284.206 40.3577H279.424V43.7912H284.206V40.3577Z" fill="#263238"/>
<path d="M288.049 41.4224H286.908V42.7265H288.049V41.4224Z" fill="#263238"/>
<path d="M274.844 43.6337C274.784 43.6348 274.725 43.6195 274.674 43.5896C272.828 42.4934 271.612 43.5077 271.562 43.5518C271.529 43.5851 271.489 43.6113 271.446 43.6287C271.403 43.6462 271.356 43.6544 271.309 43.6531C271.263 43.6517 271.217 43.6407 271.174 43.6208C271.132 43.6009 271.094 43.5724 271.063 43.5373C271.033 43.5021 271.009 43.461 270.995 43.4164C270.981 43.3719 270.976 43.3248 270.981 43.2783C270.986 43.2318 271 43.1868 271.023 43.146C271.046 43.1053 271.077 43.0697 271.114 43.0415C271.177 42.9848 272.74 41.6492 275.02 43.0037C275.096 43.0518 275.15 43.1271 275.171 43.214C275.192 43.3009 275.179 43.3926 275.134 43.4699C275.104 43.5202 275.061 43.5618 275.011 43.5905C274.96 43.6193 274.902 43.6342 274.844 43.6337Z" fill="#263238"/>
<path d="M275.524 42.4997C275.464 42.4985 275.405 42.4811 275.354 42.4493C272.689 40.868 270.894 42.3989 270.875 42.4115C270.842 42.4404 270.803 42.4626 270.762 42.4767C270.72 42.4908 270.676 42.4965 270.632 42.4936C270.588 42.4907 270.545 42.4791 270.506 42.4596C270.466 42.4401 270.431 42.4131 270.402 42.38C270.373 42.3469 270.351 42.3084 270.337 42.2667C270.323 42.2251 270.317 42.1811 270.32 42.1372C270.323 42.0933 270.335 42.0504 270.354 42.011C270.374 41.9716 270.401 41.9364 270.434 41.9075C270.434 41.9075 272.614 40.0175 275.701 41.8697C275.777 41.9166 275.832 41.992 275.853 42.0794C275.875 42.1667 275.861 42.2589 275.814 42.3359C275.784 42.3857 275.741 42.427 275.69 42.4556C275.64 42.4843 275.582 42.4995 275.524 42.4997Z" fill="#263238"/>
<path d="M276.148 41.183C276.086 41.1817 276.025 41.1644 275.971 41.1326C272.595 39.1292 270.352 41.0192 270.257 41.1011C270.189 41.1529 270.103 41.1768 270.018 41.168C269.932 41.1592 269.853 41.1184 269.797 41.0538C269.74 40.9892 269.71 40.9055 269.712 40.8196C269.715 40.7337 269.75 40.652 269.81 40.5908C269.842 40.5908 272.506 38.285 276.318 40.553C276.356 40.5757 276.39 40.6058 276.417 40.6416C276.444 40.6773 276.463 40.718 276.474 40.7613C276.486 40.8046 276.488 40.8496 276.482 40.8939C276.475 40.9381 276.46 40.9807 276.438 41.0192C276.407 41.0686 276.364 41.1095 276.314 41.1382C276.263 41.1668 276.206 41.1822 276.148 41.183Z" fill="#263238"/>
<path d="M273.823 44.2007C273.824 44.3694 273.775 44.5347 273.682 44.6755C273.589 44.8164 273.457 44.9263 273.301 44.9915C273.145 45.0566 272.974 45.074 272.808 45.0414C272.643 45.0088 272.491 44.9277 272.371 44.8083C272.252 44.689 272.171 44.5369 272.138 44.3713C272.106 44.2058 272.123 44.0342 272.188 43.8786C272.253 43.7229 272.363 43.5901 272.504 43.4972C272.645 43.4042 272.81 43.3552 272.979 43.3565C273.203 43.3565 273.418 43.4454 273.576 43.6037C273.734 43.762 273.823 43.9768 273.823 44.2007Z" fill="#263238"/>
<path d="M284.13 281.301H297.36" stroke="#263238" stroke-linecap="round" stroke-linejoin="round"/>
<path d="M34.65 281.301H279.72" stroke="#263238" stroke-linecap="round" stroke-linejoin="round"/>
<path d="M17.4196 281.301H26.4601" stroke="#263238" stroke-linecap="round" stroke-linejoin="round"/>
<path d="M108.158 196.459H98.532V280.123H108.158V196.459Z" fill="#263238" stroke="#263238" stroke-linecap="round" stroke-linejoin="round"/>
<path d="M31.8276 226.756V232.64H70.1946V226.756H31.8276Z" fill="#263238" stroke="#263238" stroke-linecap="round" stroke-linejoin="round"/>
<path d="M35.7714 206.445H29.8872V229.988H35.7714V206.445Z" fill="#263238" stroke="#263238" stroke-linecap="round" stroke-linejoin="round"/>
<path d="M38.2221 230.089C38.2221 230.796 38.0826 231.497 37.8115 232.151C37.5404 232.805 37.1431 233.399 36.6422 233.9C36.1414 234.4 35.5468 234.796 34.8926 235.067C34.2383 235.337 33.5372 235.476 32.8293 235.475C32.6529 235.475 32.4765 235.475 32.3064 235.475C31.3252 235.378 30.3893 235.014 29.6006 234.422C28.8119 233.83 28.2005 233.034 27.8329 232.119C27.4654 231.204 27.3557 230.206 27.5158 229.233C27.6759 228.26 28.0997 227.349 28.7411 226.6C29.3825 225.851 30.217 225.293 31.1538 224.985C32.0905 224.677 33.0937 224.632 34.0543 224.855C35.0149 225.077 35.896 225.559 36.602 226.247C37.3079 226.936 37.8116 227.805 38.0583 228.759C38.1659 229.194 38.2209 229.64 38.2221 230.089Z" fill="white" stroke="#263238" stroke-linecap="round" stroke-linejoin="round"/>
<path d="M38.619 210.073C38.6156 211.502 38.0462 212.871 37.0354 213.881C36.0246 214.89 34.6548 215.458 33.2262 215.46C33.0498 215.46 32.8734 215.46 32.697 215.46C31.7152 215.366 30.7781 215.004 29.9875 214.415C29.197 213.825 28.5832 213.03 28.213 212.116C27.8429 211.202 27.7304 210.204 27.888 209.23C28.0456 208.257 28.4671 207.345 29.1067 206.594C29.7463 205.844 30.5796 205.283 31.5158 204.973C32.452 204.662 33.4553 204.615 34.4166 204.835C35.3778 205.056 36.2603 205.535 36.9679 206.222C37.6755 206.909 38.1812 207.777 38.43 208.732C38.551 209.169 38.6145 209.62 38.619 210.073Z" fill="white" stroke="#263238" stroke-linecap="round" stroke-linejoin="round"/>
<path d="M48.275 195.457L40.4315 199.681L42.0563 202.698L49.8998 198.475L48.275 195.457Z" fill="#263238" stroke="#263238" stroke-linecap="round" stroke-linejoin="round"/>
<path d="M51.2001 198.803L47.3383 200.882L44.8687 196.302L48.7369 194.216C49.0404 194.05 49.3741 193.946 49.7184 193.91C50.0627 193.875 50.4106 193.909 50.7417 194.01C51.0728 194.111 51.3803 194.277 51.6462 194.498C51.9121 194.72 52.131 194.992 52.29 195.3C52.6062 195.91 52.669 196.619 52.465 197.275C52.2609 197.931 51.8064 198.48 51.2001 198.803Z" fill="white" stroke="#263238" stroke-linecap="round" stroke-linejoin="round"/>
<path d="M34.272 179.38L33.9948 195.357L30.5739 195.3L30.8448 179.323L34.272 179.38Z" fill="#263238" stroke="#263238" stroke-linecap="round" stroke-linejoin="round"/>
<path d="M35.1982 178.416L35.1288 182.826L29.925 182.7L29.9943 178.29C30.0001 177.948 30.0731 177.611 30.2092 177.298C30.3453 176.984 30.5418 176.701 30.7875 176.463C31.0332 176.226 31.3233 176.039 31.6412 175.913C31.9591 175.788 32.2987 175.726 32.6404 175.732C32.9856 175.737 33.3263 175.811 33.6428 175.949C33.9592 176.087 34.2448 176.287 34.483 176.537C34.7212 176.787 34.9071 177.082 35.0299 177.404C35.1527 177.727 35.2099 178.071 35.1982 178.416Z" fill="white" stroke="#263238" stroke-linecap="round" stroke-linejoin="round"/>
<path d="M47.0736 185.176L39.5577 199.275L36.5337 197.669L44.0433 183.569L47.0736 185.176Z" fill="#263238" stroke="#263238" stroke-linecap="round" stroke-linejoin="round"/>
<path d="M48.3336 184.741L46.2735 188.616L41.6808 186.178L43.7346 182.297C44.0595 181.689 44.6116 181.235 45.2702 181.033C45.9288 180.832 46.6405 180.898 47.25 181.22C47.8601 181.543 48.3169 182.096 48.5201 182.756C48.7232 183.417 48.6561 184.13 48.3336 184.741Z" fill="white" stroke="#263238" stroke-linecap="round" stroke-linejoin="round"/>
<path d="M22.1256 185.113L29.5722 199.25L26.5419 200.85L19.0953 186.713L22.1256 185.113Z" fill="#263238" stroke="#263238" stroke-linecap="round" stroke-linejoin="round"/>
<path d="M29.1123 195.363C29.0019 194.709 28.7 194.103 28.2447 193.62C27.7895 193.138 27.2015 192.802 26.555 192.654C25.9086 192.506 25.2328 192.553 24.6132 192.79C23.9936 193.026 23.458 193.441 23.0742 193.982C22.6904 194.522 22.4757 195.165 22.4572 195.828C22.4388 196.491 22.6173 197.144 22.9704 197.705C23.3234 198.267 23.8351 198.711 24.4406 198.981C25.046 199.252 25.7181 199.337 26.3718 199.225C27.247 199.075 28.0271 198.585 28.5409 197.861C29.0547 197.137 29.2602 196.238 29.1123 195.363Z" fill="white" stroke="#263238" stroke-linecap="round" stroke-linejoin="round"/>
<path d="M32.3883 195.804C34.2394 195.804 35.7399 194.303 35.7399 192.452C35.7399 190.601 34.2394 189.101 32.3883 189.101C30.5373 189.101 29.0367 190.601 29.0367 192.452C29.0367 194.303 30.5373 195.804 32.3883 195.804Z" fill="white" stroke="#263238" stroke-linecap="round" stroke-linejoin="round"/>
<path d="M43.3251 194.387C43.4259 193.731 43.3301 193.061 43.0498 192.46C42.7695 191.859 42.3172 191.355 41.7502 191.011C41.1832 190.667 40.5269 190.499 39.8645 190.528C39.2021 190.558 38.5632 190.783 38.0287 191.175C37.4943 191.568 37.0882 192.11 36.862 192.733C36.6358 193.357 36.5995 194.033 36.7578 194.677C36.9161 195.321 37.2618 195.903 37.7512 196.351C38.2407 196.798 38.8518 197.09 39.5073 197.19C39.9421 197.257 40.3859 197.238 40.8133 197.133C41.2406 197.029 41.6431 196.841 41.9978 196.58C42.3524 196.32 42.6522 195.992 42.88 195.616C43.1077 195.239 43.259 194.822 43.3251 194.387Z" fill="white" stroke="#263238" stroke-linecap="round" stroke-linejoin="round"/>
<path d="M22.4721 183.821L24.5259 187.702L19.9269 190.14L17.8731 186.253C17.7127 185.951 17.6135 185.621 17.5811 185.281C17.5488 184.94 17.5839 184.597 17.6846 184.27C17.7853 183.944 17.9495 183.64 18.1678 183.377C18.3861 183.114 18.6542 182.897 18.9567 182.738C19.5669 182.417 20.2792 182.351 20.938 182.554C21.5967 182.757 22.1482 183.213 22.4721 183.821Z" fill="white" stroke="#263238" stroke-linecap="round" stroke-linejoin="round"/>
<path d="M42.6825 201.833C42.6825 204.339 41.6868 206.743 39.9146 208.515C38.1424 210.287 35.7388 211.283 33.2325 211.283C32.9175 211.283 32.6025 211.283 32.3064 211.245C30.5873 211.075 28.9479 210.437 27.5663 209.4C26.1846 208.363 25.1136 206.967 24.4697 205.364C23.8258 203.761 23.6335 202.012 23.9139 200.308C24.1942 198.603 24.9364 197.008 26.0598 195.696C27.1832 194.384 28.6448 193.404 30.2858 192.865C31.9267 192.325 33.6842 192.245 35.3673 192.634C37.0503 193.023 38.5945 193.866 39.832 195.072C41.0695 196.277 41.953 197.798 42.3864 199.471C42.5817 200.243 42.6812 201.036 42.6825 201.833Z" fill="white" stroke="#263238" stroke-linecap="round" stroke-linejoin="round"/>
<path d="M42.6824 201.833C42.6824 204.339 41.6868 206.743 39.9146 208.515C38.1424 210.288 35.7387 211.283 33.2324 211.283C32.9174 211.283 32.6024 211.283 32.3063 211.245C31.9443 209.847 31.9076 208.385 32.199 206.97C32.4904 205.555 33.1022 204.226 33.9873 203.085C34.8725 201.944 36.0075 201.02 37.3051 200.386C38.6028 199.752 40.0285 199.424 41.4728 199.427C41.7815 199.427 42.1028 199.427 42.399 199.471C42.5901 200.244 42.6853 201.037 42.6824 201.833Z" fill="white" stroke="#263238" stroke-linecap="round" stroke-linejoin="round"/>
<path d="M90.2669 230.259C91.8714 223.402 87.6134 216.542 80.7563 214.938C73.8993 213.333 67.0398 217.591 65.4353 224.448C63.8308 231.306 68.0888 238.165 74.9458 239.77C81.8029 241.374 88.6624 237.116 90.2669 230.259Z" fill="white" stroke="#263238" stroke-linecap="round" stroke-linejoin="round"/>
<path d="M80.2201 233.056C83.3703 231.742 84.859 228.123 83.5451 224.973C82.2312 221.822 78.6123 220.334 75.462 221.648C72.3117 222.961 70.8231 226.58 72.137 229.731C73.4509 232.881 77.0698 234.37 80.2201 233.056Z" fill="#263238" stroke="#263238" stroke-linecap="round" stroke-linejoin="round"/>
<path d="M75.6567 281.301H132.231L133.043 277.471C133.369 275.941 133.077 274.344 132.229 273.029C131.382 271.714 130.048 270.788 128.52 270.453C120.5 268.651 103.137 268.002 103.137 268.002C98.9541 268.134 87.3117 268.632 79.2918 270.459C77.7744 270.805 76.4543 271.735 75.6172 273.048C74.7801 274.36 74.4933 275.949 74.8188 277.471L75.6567 281.301Z" fill="white" stroke="#263238" stroke-linecap="round" stroke-linejoin="round"/>
<path d="M117.558 268.934C110.313 268.267 103.156 268.002 103.156 268.002C100.523 268.084 94.9284 268.317 89.145 268.934C90.8334 274.699 96.5538 278.945 103.352 278.945C110.149 278.945 115.87 274.68 117.558 268.934Z" fill="#92E3A9" stroke="#263238" stroke-linecap="round" stroke-linejoin="round"/>
<path d="M162.441 254.287L165.96 249.572L135.211 226.626L131.692 231.342L162.441 254.287Z" fill="#263238" stroke="#263238" stroke-linecap="round" stroke-linejoin="round"/>
<path d="M147.139 268.209L151.855 271.729L165.935 252.86L161.219 249.341L147.139 268.209Z" fill="#263238" stroke="#263238" stroke-linecap="round" stroke-linejoin="round"/>
<path d="M159.308 247.792C159.732 247.223 160.264 246.743 160.874 246.381C161.484 246.018 162.159 245.779 162.861 245.677C163.563 245.575 164.278 245.612 164.966 245.787C165.654 245.962 166.3 246.271 166.868 246.695L167.278 247.029C168.006 247.694 168.539 248.546 168.817 249.492C169.095 250.438 169.109 251.442 168.856 252.395C168.604 253.348 168.094 254.214 167.384 254.898C166.674 255.582 165.789 256.058 164.827 256.275C163.865 256.491 162.862 256.44 161.927 256.126C160.992 255.812 160.161 255.248 159.525 254.495C158.888 253.741 158.47 252.828 158.317 251.854C158.163 250.88 158.279 249.882 158.653 248.97C158.822 248.552 159.042 248.156 159.308 247.792Z" fill="white" stroke="#263238" stroke-linecap="round" stroke-linejoin="round"/>
<path d="M147.004 262.867C147.803 261.681 149.04 260.861 150.444 260.587C151.847 260.313 153.302 260.607 154.489 261.406C154.634 261.5 154.772 261.607 154.911 261.715C155.671 262.342 156.245 263.167 156.57 264.098C156.895 265.029 156.958 266.032 156.753 266.996C156.547 267.961 156.081 268.851 155.405 269.569C154.73 270.287 153.87 270.807 152.919 271.07C151.969 271.334 150.964 271.332 150.015 271.064C149.066 270.797 148.208 270.274 147.535 269.553C146.862 268.832 146.4 267.94 146.199 266.975C145.997 266.009 146.065 265.007 146.393 264.077C146.546 263.65 146.751 263.244 147.004 262.867Z" fill="white" stroke="#263238" stroke-linecap="round" stroke-linejoin="round"/>
<path d="M130.811 269.617L139.676 270.488L140.011 267.077L131.146 266.206L130.811 269.617Z" fill="#263238" stroke="#263238" stroke-linecap="round" stroke-linejoin="round"/>
<path d="M130.271 265.23L134.644 265.658L134.133 270.837L129.761 270.409C129.074 270.342 128.442 270.005 128.004 269.472C127.566 268.939 127.357 268.254 127.424 267.567C127.492 266.88 127.831 266.248 128.364 265.81C128.898 265.372 129.584 265.163 130.271 265.23Z" fill="white" stroke="#263238" stroke-linecap="round" stroke-linejoin="round"/>
<path d="M139.028 267.435C139.721 266.403 140.61 265.518 141.645 264.83C142.68 264.142 143.84 263.665 145.06 263.427C146.279 263.188 147.534 263.192 148.752 263.439C149.97 263.685 151.127 264.17 152.158 264.865C152.416 265.041 152.662 265.224 152.901 265.419C154.233 266.52 155.238 267.964 155.806 269.596C156.374 271.228 156.484 272.984 156.123 274.674C155.763 276.364 154.946 277.923 153.762 279.181C152.577 280.439 151.071 281.348 149.406 281.81C147.741 282.272 145.981 282.268 144.318 281.799C142.655 281.33 141.152 280.415 139.973 279.152C138.794 277.888 137.984 276.326 137.631 274.635C137.277 272.943 137.395 271.187 137.97 269.558C138.231 268.808 138.587 268.095 139.028 267.435Z" fill="white" stroke="#263238" stroke-linecap="round" stroke-linejoin="round"/>
<path d="M128.848 277.25L140.566 268.487L142.449 271.001L130.731 279.758L128.848 277.25Z" fill="#263238" stroke="#263238" stroke-linecap="round" stroke-linejoin="round"/>
<path d="M127.632 277.118L130.851 274.68L133.711 278.46L130.492 280.873C129.986 281.251 129.351 281.413 128.726 281.323C128.102 281.234 127.538 280.899 127.159 280.394C126.796 279.894 126.643 279.272 126.731 278.66C126.819 278.049 127.142 277.495 127.632 277.118Z" fill="white" stroke="#263238" stroke-linecap="round" stroke-linejoin="round"/>
<path d="M143.98 271.19C144.129 270.543 144.082 269.866 143.846 269.246C143.61 268.625 143.195 268.089 142.653 267.705C142.112 267.321 141.468 267.106 140.805 267.088C140.141 267.07 139.487 267.249 138.926 267.604C138.364 267.958 137.92 268.471 137.651 269.078C137.381 269.684 137.298 270.358 137.412 271.012C137.525 271.666 137.831 272.272 138.289 272.752C138.747 273.232 139.338 273.566 139.986 273.71C140.85 273.902 141.754 273.745 142.502 273.273C143.251 272.801 143.782 272.052 143.98 271.19Z" fill="white" stroke="#263238" stroke-linecap="round" stroke-linejoin="round"/>
<path d="M150.192 286.058L151.931 274.037L154.508 274.403L152.775 286.423L150.192 286.058Z" fill="#263238" stroke="#263238" stroke-linecap="round" stroke-linejoin="round"/>
<path d="M149.404 286.694L149.877 283.387L153.789 283.947L153.317 287.249C153.28 287.506 153.194 287.753 153.062 287.977C152.93 288.201 152.755 288.397 152.547 288.553C152.339 288.709 152.103 288.823 151.851 288.888C151.6 288.953 151.338 288.967 151.08 288.931C150.562 288.856 150.094 288.578 149.78 288.159C149.466 287.74 149.331 287.213 149.404 286.694Z" fill="white" stroke="#263238" stroke-linecap="round" stroke-linejoin="round"/>
<path d="M155.516 273.615C155.219 273.153 154.792 272.789 154.289 272.57C153.785 272.35 153.228 272.284 152.688 272.381C152.147 272.478 151.647 272.733 151.252 273.113C150.856 273.494 150.582 273.983 150.464 274.52C150.346 275.056 150.39 275.615 150.59 276.127C150.789 276.639 151.136 277.079 151.587 277.394C152.037 277.708 152.57 277.882 153.119 277.894C153.668 277.905 154.208 277.754 154.671 277.458C155.292 277.06 155.73 276.432 155.888 275.711C156.047 274.991 155.913 274.237 155.516 273.615Z" fill="white" stroke="#263238" stroke-linecap="round" stroke-linejoin="round"/>
<path d="M138.594 284.458L146.406 272.084L149.058 273.748L141.252 286.127L138.594 284.458Z" fill="#263238" stroke="#263238" stroke-linecap="round" stroke-linejoin="round"/>
<path d="M137.416 284.76L139.551 281.358L143.59 283.878L141.448 287.286C141.11 287.82 140.576 288.198 139.961 288.338C139.346 288.479 138.7 288.37 138.165 288.036C137.632 287.7 137.254 287.167 137.114 286.553C136.973 285.939 137.082 285.294 137.416 284.76Z" fill="white" stroke="#263238" stroke-linecap="round" stroke-linejoin="round"/>
<path d="M150.57 273.382C150.477 272.726 150.19 272.113 149.748 271.619C149.305 271.126 148.726 270.776 148.084 270.612C147.442 270.448 146.765 270.479 146.141 270.701C145.516 270.922 144.971 271.324 144.575 271.855C144.18 272.387 143.95 273.024 143.917 273.686C143.884 274.347 144.048 275.004 144.388 275.573C144.729 276.141 145.23 276.596 145.83 276.879C146.429 277.162 147.099 277.26 147.754 277.162C148.628 277.033 149.415 276.562 149.943 275.854C150.471 275.145 150.696 274.257 150.57 273.382Z" fill="white" stroke="#263238" stroke-linecap="round" stroke-linejoin="round"/>
<path d="M136.098 238.297C142.019 234.485 143.73 226.595 139.918 220.673C136.106 214.752 128.216 213.041 122.294 216.853C116.373 220.665 114.662 228.555 118.474 234.477C122.286 240.398 130.176 242.109 136.098 238.297Z" fill="white" stroke="#263238" stroke-linecap="round" stroke-linejoin="round"/>
<path d="M134.819 230.156C136.242 227.054 134.88 223.385 131.778 221.962C128.675 220.539 125.007 221.901 123.583 225.003C122.16 228.106 123.522 231.774 126.624 233.197C129.727 234.62 133.396 233.259 134.819 230.156Z" fill="#263238" stroke="#263238" stroke-linecap="round" stroke-linejoin="round"/>
<path d="M103.345 202.306C114.657 202.306 123.826 193.136 123.826 181.824C123.826 170.513 114.657 161.343 103.345 161.343C92.0337 161.343 82.8639 170.513 82.8639 181.824C82.8639 193.136 92.0337 202.306 103.345 202.306Z" fill="#92E3A9" stroke="#263238" stroke-linecap="round" stroke-linejoin="round"/>
<path d="M132.628 195.464C137.026 189.949 139.779 183.305 140.569 176.295C141.359 169.286 140.155 162.196 137.095 155.84C134.034 149.485 129.242 144.122 123.27 140.369C117.297 136.616 110.386 134.625 103.333 134.625C96.2786 134.625 89.3679 136.616 83.3953 140.369C77.4227 144.122 72.6306 149.485 69.5703 155.84C66.51 162.196 65.3058 169.286 66.096 176.295C66.8863 183.305 69.639 189.949 74.0375 195.464H132.628Z" fill="white" stroke="#263238" stroke-linecap="round" stroke-linejoin="round"/>
<path d="M126.265 157.954H79.4808C76.6346 157.954 74.3274 160.261 74.3274 163.107V179.689C74.3274 182.535 76.6346 184.842 79.4808 184.842H126.265C129.111 184.842 131.418 182.535 131.418 179.689V163.107C131.418 160.261 129.111 157.954 126.265 157.954Z" fill="#92E3A9" stroke="#263238" stroke-linecap="round" stroke-linejoin="round"/>
<path d="M80.5015 170.308C81.1202 168.575 82.2479 167.07 83.7367 165.99C85.2255 164.91 87.006 164.304 88.8448 164.253C90.6837 164.202 92.495 164.708 94.0415 165.704C95.5881 166.7 96.7975 168.14 97.5115 169.835" stroke="#263238" stroke-width="5" stroke-linecap="round" stroke-linejoin="round"/>
<path d="M108.719 170.308C109.338 168.575 110.466 167.07 111.954 165.99C113.443 164.91 115.224 164.304 117.062 164.253C118.901 164.202 120.713 164.708 122.259 165.704C123.806 166.7 125.015 168.14 125.729 169.835" stroke="#263238" stroke-width="5" stroke-linecap="round" stroke-linejoin="round"/>
<path d="M98.406 176.539C98.5642 177.788 99.1726 178.937 100.117 179.769C101.062 180.602 102.278 181.061 103.537 181.061C104.797 181.061 106.013 180.602 106.957 179.769C107.902 178.937 108.511 177.788 108.669 176.539H98.406Z" fill="white" stroke="#263238" stroke-linecap="round" stroke-linejoin="round"/>
<path d="M151.83 178.668C150.791 178.668 149.794 178.255 149.059 177.52C148.324 176.785 147.911 175.789 147.911 174.749V165.835C147.911 165.32 148.011 164.809 148.208 164.333C148.404 163.857 148.693 163.424 149.057 163.06C149.421 162.695 149.853 162.406 150.329 162.209C150.805 162.011 151.315 161.91 151.83 161.91C152.345 161.909 152.855 162.01 153.331 162.206C153.808 162.403 154.24 162.691 154.605 163.055C154.969 163.419 155.259 163.852 155.456 164.327C155.653 164.803 155.755 165.313 155.755 165.829V174.743C155.756 175.259 155.655 175.769 155.458 176.246C155.261 176.723 154.972 177.156 154.607 177.52C154.243 177.885 153.81 178.174 153.333 178.371C152.856 178.568 152.346 178.669 151.83 178.668Z" fill="#263238" stroke="#263238" stroke-linecap="round" stroke-linejoin="round"/>
<path d="M53.7894 178.668C53.2743 178.669 52.764 178.568 52.2879 178.371C51.8117 178.175 51.379 177.886 51.0145 177.522C50.6499 177.158 50.3607 176.726 50.1634 176.25C49.9661 175.775 49.8645 175.264 49.8645 174.749V165.835C49.8637 165.319 49.9646 164.808 50.1616 164.332C50.3585 163.855 50.6476 163.422 51.0122 163.058C51.3769 162.693 51.8099 162.404 52.2864 162.207C52.763 162.01 53.2737 161.909 53.7894 161.91C54.304 161.91 54.8136 162.011 55.289 162.208C55.7644 162.405 56.1964 162.694 56.5603 163.058C56.9242 163.422 57.2128 163.854 57.4097 164.329C57.6067 164.804 57.708 165.314 57.708 165.829V174.743C57.7088 175.258 57.6081 175.768 57.4115 176.245C57.215 176.721 56.9265 177.153 56.5625 177.518C56.1986 177.882 55.7663 178.172 55.2905 178.369C54.8146 178.566 54.3045 178.668 53.7894 178.668Z" fill="#263238" stroke="#263238" stroke-linecap="round" stroke-linejoin="round"/>
<path d="M66.3516 138.442C62.8855 143.564 61.0374 149.608 61.047 155.793V162.269" stroke="#263238" stroke-width="14" stroke-linecap="round" stroke-linejoin="round"/>
<path d="M140.742 138.468C137.905 134.242 134.072 130.779 129.581 128.385C125.089 125.99 120.077 124.739 114.988 124.74H92.0871C87.0044 124.736 81.9987 125.983 77.511 128.369C73.0232 130.755 69.1909 134.208 66.3516 138.424" stroke="#263238" stroke-width="7" stroke-linecap="round" stroke-linejoin="round"/>
<path d="M146.021 162.269V155.793C146.031 149.62 144.192 143.586 140.742 138.468" stroke="#263238" stroke-width="14" stroke-linecap="round" stroke-linejoin="round"/>
<path d="M64.1718 155.295H58.9176C55.8766 155.295 53.4114 157.76 53.4114 160.801V179.002C53.4114 182.043 55.8766 184.508 58.9176 184.508H64.1718C67.2128 184.508 69.678 182.043 69.678 179.002V160.801C69.678 157.76 67.2128 155.295 64.1718 155.295Z" fill="white" stroke="#263238" stroke-linecap="round" stroke-linejoin="round"/>
<path d="M62.3763 155.295H60.7194V184.508H62.3763V155.295Z" fill="#92E3A9" stroke="#263238" stroke-linecap="round" stroke-linejoin="round"/>
<path d="M147.155 155.295H141.901C138.86 155.295 136.395 157.76 136.395 160.801V179.002C136.395 182.043 138.86 184.508 141.901 184.508H147.155C150.196 184.508 152.662 182.043 152.662 179.002V160.801C152.662 157.76 150.196 155.295 147.155 155.295Z" fill="white" stroke="#263238" stroke-linecap="round" stroke-linejoin="round"/>
<path d="M145.36 155.295H143.703V184.508H145.36V155.295Z" fill="#92E3A9" stroke="#263238" stroke-linecap="round" stroke-linejoin="round"/>
<path d="M103.478 152.643C106.347 152.643 109.172 151.925 111.693 150.554C114.214 149.183 116.352 147.202 117.911 144.793L121.464 139.293C115.834 136.184 109.497 134.576 103.066 134.626C96.6338 134.676 90.3231 136.38 84.7413 139.576L90.09 146.217C91.6991 148.221 93.7371 149.838 96.0539 150.95C98.3708 152.062 100.908 152.641 103.478 152.643Z" fill="#92E3A9" stroke="#263238" stroke-linecap="round" stroke-linejoin="round"/>
<path d="M104.366 187.564C104.366 187.439 104.329 187.317 104.26 187.214C104.19 187.11 104.092 187.029 103.977 186.982C103.862 186.934 103.735 186.921 103.613 186.946C103.491 186.97 103.378 187.03 103.29 187.118C103.202 187.206 103.142 187.318 103.118 187.441C103.094 187.563 103.106 187.69 103.154 187.805C103.201 187.92 103.282 188.018 103.386 188.087C103.489 188.157 103.611 188.194 103.736 188.194C103.903 188.194 104.063 188.127 104.181 188.009C104.299 187.891 104.366 187.731 104.366 187.564Z" fill="#263238"/>
<path d="M104.366 189.68C104.366 189.556 104.329 189.434 104.26 189.33C104.19 189.227 104.092 189.146 103.977 189.098C103.862 189.051 103.735 189.038 103.613 189.062C103.491 189.087 103.378 189.147 103.29 189.235C103.202 189.323 103.142 189.435 103.118 189.557C103.094 189.68 103.106 189.806 103.154 189.921C103.201 190.036 103.282 190.135 103.386 190.204C103.489 190.273 103.611 190.31 103.736 190.31C103.903 190.31 104.063 190.244 104.181 190.126C104.299 190.008 104.366 189.847 104.366 189.68Z" fill="#263238"/>
<path d="M101.965 189.353C102.081 189.279 102.168 189.169 102.215 189.04C102.262 188.912 102.266 188.771 102.226 188.64C102.187 188.509 102.105 188.395 101.994 188.314C101.884 188.234 101.75 188.191 101.613 188.194C101.498 188.268 101.41 188.378 101.363 188.506C101.316 188.635 101.312 188.775 101.352 188.906C101.392 189.037 101.473 189.152 101.584 189.232C101.695 189.313 101.829 189.355 101.965 189.353Z" fill="#263238"/>
<path d="M105.752 189.353C105.849 189.351 105.945 189.327 106.032 189.282C106.118 189.237 106.193 189.172 106.25 189.093C106.308 189.015 106.346 188.923 106.362 188.827C106.378 188.731 106.372 188.633 106.343 188.539C106.315 188.446 106.265 188.361 106.198 188.29C106.131 188.219 106.049 188.165 105.957 188.131C105.866 188.098 105.768 188.086 105.671 188.097C105.574 188.107 105.481 188.141 105.399 188.193C105.302 188.195 105.206 188.22 105.119 188.265C105.033 188.31 104.958 188.374 104.901 188.453C104.843 188.532 104.805 188.623 104.789 188.719C104.773 188.815 104.779 188.914 104.807 189.007C104.836 189.1 104.885 189.185 104.952 189.256C105.019 189.327 105.102 189.381 105.193 189.415C105.285 189.448 105.383 189.46 105.48 189.45C105.577 189.439 105.67 189.406 105.752 189.353Z" fill="#263238"/>
<path d="M128.52 211.201C120.5 209.393 103.137 208.744 103.137 208.744C98.9541 208.876 87.3117 209.374 79.2918 211.207C77.7735 211.552 76.4524 212.482 75.615 213.795C74.7777 215.107 74.4916 216.697 74.8188 218.219L82.2465 252.97C82.6114 254.655 83.5413 256.165 84.8819 257.249C86.2226 258.333 87.8934 258.926 89.6175 258.93H118.251C119.975 258.926 121.646 258.333 122.987 257.249C124.327 256.165 125.257 254.655 125.622 252.97L133.043 218.219C133.369 216.689 133.076 215.092 132.229 213.777C131.381 212.462 130.048 211.536 128.52 211.201Z" fill="white" stroke="#263238" stroke-linecap="round" stroke-linejoin="round"/>
<path d="M124.866 210.533C116.166 209.236 103.156 208.744 103.156 208.744C96.7863 208.927 90.4308 209.452 84.1176 210.319L92.5344 258.93H115.41L124.866 210.533Z" fill="#92E3A9" stroke="#263238" stroke-linecap="round" stroke-linejoin="round"/>
<path d="M110.666 219.309H96.7302C93.884 219.309 91.5768 221.617 91.5768 224.463V231.267C91.5768 234.113 93.884 236.42 96.7302 236.42H110.666C113.512 236.42 115.819 234.113 115.819 231.267V224.463C115.819 221.617 113.512 219.309 110.666 219.309Z" fill="white" stroke="#263238" stroke-linecap="round" stroke-linejoin="round"/>
<path d="M99.6283 226.359H95.7034V230.284H99.6283V226.359Z" fill="white" stroke="#263238" stroke-linecap="round" stroke-linejoin="round"/>
<path d="M105.657 226.359H101.732V230.284H105.657V226.359Z" fill="white" stroke="#263238" stroke-linecap="round" stroke-linejoin="round"/>
<path d="M111.693 226.359H107.768V230.284H111.693V226.359Z" fill="white" stroke="#263238" stroke-linecap="round" stroke-linejoin="round"/>
<path d="M48.5478 247.943H118.377C119.212 247.943 120.014 248.275 120.604 248.865C121.195 249.456 121.527 250.257 121.527 251.093V290.323H45.3978V251.093C45.3978 250.257 45.7297 249.456 46.3204 248.865C46.9112 248.275 47.7124 247.943 48.5478 247.943Z" fill="white" stroke="#263238" stroke-linecap="round" stroke-linejoin="round"/>
<path d="M121.527 262.042C111.964 264.468 102.148 270.642 83.8593 279.336C66.2193 287.727 51.7797 287.582 45.3978 286.933V290.323H121.527V262.042Z" fill="#263238" stroke="#263238" stroke-linecap="round" stroke-linejoin="round"/>
<path d="M121.527 287.973H45.3978V290.329H121.527V287.973Z" fill="white" stroke="#263238" stroke-linecap="round" stroke-linejoin="round"/>
<path d="M87.3873 269.136C87.3873 269.912 87.1571 270.671 86.7258 271.317C86.2945 271.962 85.6816 272.465 84.9644 272.762C84.2472 273.059 83.458 273.137 82.6967 272.985C81.9353 272.834 81.236 272.46 80.6871 271.911C80.1381 271.362 79.7643 270.663 79.6129 269.902C79.4615 269.14 79.5392 268.351 79.8362 267.634C80.1333 266.917 80.6364 266.304 81.2818 265.873C81.9273 265.441 82.6861 265.211 83.4624 265.211C84.5033 265.211 85.5016 265.625 86.2377 266.361C86.9738 267.097 87.3873 268.095 87.3873 269.136Z" fill="white" stroke="#263238" stroke-linecap="round" stroke-linejoin="round"/>
</svg>
