<svg width="315" height="315" viewBox="0 0 315 315" fill="none" xmlns="http://www.w3.org/2000/svg">
<path d="M271.36 117.495C269.694 112.076 267.517 106.828 264.858 101.821C251.149 76.3435 227.109 57.1222 200.812 45.7507C179.934 36.7354 154.117 32.023 131.966 40.1437C120.765 44.2513 110.218 52.1137 104.215 62.6032C96.39 76.2994 97.1271 93.2401 90.9153 107.636C85.8753 119.284 73.3509 126.284 63.5355 133.466C48.2202 144.629 33.1317 157.828 27.8208 176.709C20.7396 201.877 22.8375 231.84 37.17 254.224C47.88 270.925 66.213 275.94 85.1319 276.274C102.986 276.595 124.822 272.084 141.485 280.23C169.873 294.09 207.333 309.651 239.098 298.683C271.858 287.375 287.904 265.35 292.648 236.779C297.391 208.209 284.319 184.407 280.148 161.809C277.553 147.515 275.833 131.733 271.36 117.495Z" fill="#92E3A9"/>
<path opacity="0.8" d="M271.36 117.495C269.694 112.076 267.517 106.828 264.858 101.821C251.149 76.3435 227.109 57.1222 200.812 45.7507C179.934 36.7354 154.117 32.023 131.966 40.1437C120.765 44.2513 110.218 52.1137 104.215 62.6032C96.39 76.2994 97.1271 93.2401 90.9153 107.636C85.8753 119.284 73.3509 126.284 63.5355 133.466C48.2202 144.629 33.1317 157.828 27.8208 176.709C20.7396 201.877 22.8375 231.84 37.17 254.224C47.88 270.925 66.213 275.94 85.1319 276.274C102.986 276.595 124.822 272.084 141.485 280.23C169.873 294.09 207.333 309.651 239.098 298.683C271.858 287.375 287.904 265.35 292.648 236.779C297.391 208.209 284.319 184.407 280.148 161.809C277.553 147.515 275.833 131.733 271.36 117.495Z" fill="white"/>
<path d="M32.5142 203.276C32.3504 201.455 32.3126 199.779 32.2937 198.293C32.2937 197.448 32.2937 196.686 32.2937 195.974C32.9237 195.439 35.5508 193.265 36.2753 191.797C36.9998 190.329 37.4912 188.332 36.7226 186.795C36.5571 186.428 36.3168 186.1 36.0171 185.832C35.7173 185.564 35.3649 185.361 34.9822 185.237C34.5996 185.113 34.1953 185.071 33.7952 185.112C33.3951 185.154 33.0082 185.278 32.6591 185.478C30.6242 186.738 30.4541 191.092 31.0022 193.19C31.0463 193.372 32.111 196.119 32.1425 196.094L32.1866 196.062C32.1551 196.749 32.1236 197.486 32.111 198.286C32.111 199.773 32.111 201.436 32.2244 203.288C32.2244 203.591 32.2685 203.918 32.2937 204.227C32.5205 204.567 32.6465 204.788 32.6465 204.788C32.6213 204.278 32.5583 203.761 32.5142 203.276Z" fill="#BABABA"/>
<path d="M25.9686 198.658C23.2344 199.105 22.8816 201.669 25.4331 203.307C27.594 204.693 31.2858 204.788 32.3631 204.788C32.3631 204.599 32.3631 204.41 32.319 204.227C31.2858 202.646 28.2114 198.286 25.9686 198.658Z" fill="#BABABA"/>
<path d="M80.369 186.625C77.9561 186.549 75.4109 190.04 74.699 192.068C74.636 192.245 74.0186 195.105 74.069 195.098H74.1194C73.7099 195.647 73.2815 196.239 72.8594 196.9C72.0278 198.122 71.1017 199.508 70.2008 201.083L69.8858 201.632C69.8417 202.073 69.8039 202.337 69.8039 202.337L69.5897 202.161C68.8287 203.513 68.1369 204.903 67.517 206.325C66.6222 208.336 65.9095 210.424 65.3876 212.562C65.3876 212.562 65.3876 212.612 65.3876 212.638C65.3372 211.932 65.123 209.96 65.0915 209.815C64.619 207.698 62.477 203.874 60.0515 203.616C59.6537 203.583 59.2532 203.634 58.8769 203.768C58.5006 203.901 58.1571 204.113 57.8691 204.39C57.5812 204.666 57.3555 205.001 57.2072 205.372C57.0588 205.742 56.9911 206.14 57.0086 206.539C57.0086 208.247 58.4072 209.853 59.6987 210.83C61.1603 211.938 65.0096 212.827 65.312 212.896C64.8382 215.092 64.5099 217.316 64.3292 219.555C64.2158 220.859 64.1465 222.176 64.0898 223.505C64.0205 222.875 63.9638 222.346 63.9449 222.245C63.4724 220.135 61.3304 216.311 58.9049 216.052C58.5073 216.019 58.1072 216.07 57.7312 216.204C57.3552 216.337 57.012 216.549 56.7245 216.826C56.4371 217.103 56.212 217.438 56.0643 217.808C55.9167 218.179 55.8499 218.577 55.8683 218.975C55.8683 220.683 57.2669 222.283 58.5584 223.266C59.8499 224.249 63.1385 225.087 64.0079 225.288C64.0079 225.798 63.9701 226.302 63.9575 226.813C63.8882 229.251 63.8252 231.683 63.6992 234.07C63.6551 234.908 63.5795 235.734 63.5039 236.559C63.4472 236.017 63.3968 235.563 63.3779 235.494C62.9117 233.384 60.7634 229.56 58.3379 229.301C57.9401 229.267 57.5395 229.317 57.163 229.451C56.7865 229.584 56.4429 229.796 56.1552 230.073C55.8676 230.35 55.6425 230.685 55.4952 231.056C55.3479 231.427 55.2818 231.826 55.3013 232.224C55.3013 233.932 56.6936 235.532 57.9851 236.515C59.2766 237.498 62.2502 238.247 63.2771 238.499C63.2078 239.079 63.1385 239.658 63.0566 240.225C63.422 240.333 63.7937 240.421 64.178 240.496C64.3166 239.4 64.4237 238.285 64.5119 237.157C65.4065 237.409 68.6069 238.26 70.1819 238.027C71.7569 237.794 73.7225 237.057 74.5226 235.557C74.72 235.207 74.8424 234.82 74.8819 234.42C74.9215 234.021 74.8773 233.617 74.7523 233.236C74.6272 232.854 74.424 232.502 74.1556 232.204C73.8872 231.905 73.5595 231.665 73.1933 231.5C70.9505 230.555 67.3091 232.88 65.9231 234.511C65.8412 234.612 64.9781 235.897 64.5182 236.609C64.5749 235.784 64.6316 234.965 64.6568 234.133C64.7387 231.72 64.745 229.276 64.7576 226.844C64.7576 226.095 64.7576 225.351 64.7576 224.608C65.0789 224.702 68.8589 225.792 70.6481 225.528C72.242 225.294 74.1887 224.557 74.9888 223.064C75.187 222.714 75.3099 222.327 75.3495 221.926C75.3891 221.526 75.3446 221.122 75.2188 220.74C75.0931 220.358 74.8888 220.006 74.6192 219.708C74.3496 219.41 74.0205 219.171 73.6532 219.007C71.4167 218.062 67.7753 220.38 66.3893 222.012C66.2885 222.138 65.0537 223.984 64.7639 224.469C64.7639 222.831 64.8269 221.199 64.9277 219.593C65.0574 217.423 65.3268 215.264 65.7341 213.129C65.8853 213.173 69.8291 214.326 71.6561 214.061C73.25 213.828 75.203 213.085 75.9968 211.592C76.1942 211.242 76.3166 210.855 76.3561 210.455C76.3957 210.056 76.3515 209.652 76.2265 209.27C76.1014 208.889 75.8982 208.537 75.6298 208.238C75.3614 207.939 75.0337 207.7 74.6675 207.535C72.431 206.59 68.7833 208.914 67.3973 210.546C67.2902 210.672 65.9672 212.663 65.7467 213.066C65.7467 212.94 65.7845 212.808 65.8097 212.688C66.2798 210.565 66.9398 208.488 67.7816 206.483C68.2289 205.367 68.7203 204.334 69.2243 203.333C69.9362 203.622 73.2122 204.914 74.8943 204.857C76.5764 204.801 78.5294 204.284 79.487 202.885C79.7229 202.56 79.8879 202.189 79.9715 201.796C80.0551 201.403 80.0553 200.997 79.9722 200.604C79.8891 200.211 79.7245 199.84 79.489 199.514C79.2535 199.189 78.9523 198.917 78.605 198.715C76.4819 197.53 72.5948 199.433 71.045 200.901C70.9631 200.976 70.1945 201.89 69.6401 202.558C69.8732 202.11 70.1063 201.644 70.3394 201.222C71.2088 199.628 72.1034 198.223 72.9035 196.988C73.3634 196.289 73.7981 195.665 74.2076 195.098C75.0455 195.023 78.4412 194.664 79.8776 193.838C81.314 193.013 82.8071 191.652 83.0276 189.964C83.0877 189.568 83.0654 189.164 82.962 188.776C82.8587 188.389 82.6765 188.028 82.4269 187.714C82.1774 187.401 81.8658 187.142 81.5117 186.955C81.1575 186.767 80.7685 186.655 80.369 186.625Z" fill="#BABABA"/>
<path d="M47.25 238.638C47.4137 238.959 47.5713 239.268 47.7288 239.608L48.8061 239.255C48.3966 238.442 47.9745 237.63 47.5461 236.83C48.4218 236.546 51.534 235.494 52.7184 234.417C53.9028 233.339 55.1061 231.638 54.9422 229.944C54.9153 229.542 54.8054 229.15 54.6195 228.792C54.4335 228.435 54.1756 228.12 53.8619 227.867C53.5482 227.615 53.1856 227.43 52.7968 227.324C52.4081 227.218 52.0017 227.194 51.6033 227.254C49.2345 227.695 47.5082 231.664 47.2689 233.799C47.2689 233.938 47.2689 235.494 47.2689 236.319C46.8531 235.601 46.4499 234.877 46.0089 234.158C44.7488 232.079 43.4006 230.019 42.065 227.959L40.8554 226.069C41.1705 225.975 44.8938 224.809 46.2231 223.593C47.4075 222.522 48.6108 220.821 48.447 219.127C48.4209 218.724 48.3116 218.332 48.126 217.974C47.9403 217.616 47.6824 217.301 47.3685 217.048C47.0546 216.795 46.6915 216.61 46.3024 216.505C45.9133 216.4 45.5065 216.376 45.108 216.436C42.7391 216.877 41.013 220.846 40.7736 222.982C40.7736 223.146 40.7736 225.382 40.7736 225.956C39.8853 224.557 39.0159 223.159 38.2158 221.747C37.1265 219.847 36.1586 217.88 35.3178 215.857C35.4627 215.813 39.356 214.597 40.7168 213.368C41.9012 212.297 43.1046 210.596 42.9408 208.895C42.9139 208.494 42.804 208.102 42.618 207.745C42.432 207.388 42.1739 207.073 41.8601 206.821C41.5463 206.569 41.1835 206.384 40.7948 206.279C40.4061 206.175 39.9998 206.151 39.6018 206.212C37.233 206.653 35.5068 210.622 35.2674 212.757C35.2674 212.927 35.2674 215.334 35.2674 215.775C35.2233 215.655 35.1603 215.536 35.1162 215.422C34.3333 213.379 33.7304 211.271 33.3144 209.122C33.0687 207.938 32.9048 206.791 32.7662 205.67C33.5159 205.525 36.9306 204.8 38.2851 203.83C39.6396 202.86 40.9625 201.31 40.9877 199.634C41.0046 199.232 40.9378 198.83 40.7916 198.454C40.6453 198.079 40.4228 197.737 40.1381 197.452C39.8534 197.167 39.5126 196.943 39.1373 196.796C38.7619 196.649 38.3602 196.582 37.9575 196.598C35.5509 196.774 33.3962 200.523 32.9174 202.621C32.9174 202.734 32.7536 203.925 32.6654 204.794H32.3568C32.4764 206.193 32.6465 207.667 32.9237 209.204C33.2913 211.396 33.8543 213.551 34.6059 215.643C34.6125 215.667 34.6231 215.691 34.6374 215.712C34.2027 215.145 32.9426 213.601 32.8355 213.494C31.2794 211.976 27.4049 209.935 25.2755 211.044C24.9274 211.241 24.6248 211.509 24.3878 211.831C24.1507 212.153 23.9844 212.522 23.8999 212.913C23.8154 213.303 23.8146 213.708 23.8975 214.099C23.9804 214.49 24.1452 214.86 24.381 215.183C25.3386 216.613 27.3608 217.205 28.9673 217.312C30.7817 217.444 34.4483 216.052 34.7381 215.958C35.5537 218.071 36.5092 220.127 37.5984 222.113C38.2284 223.278 38.8899 224.431 39.5766 225.578C39.186 225.099 38.8331 224.671 38.7765 224.62C37.2267 223.096 33.3458 221.054 31.2164 222.163C30.8674 222.36 30.564 222.629 30.3262 222.951C30.0885 223.274 29.9219 223.643 29.8374 224.035C29.7528 224.426 29.7523 224.832 29.8358 225.224C29.9193 225.616 30.085 225.985 30.3219 226.309C31.2732 227.739 33.3018 228.325 34.9083 228.438C36.5148 228.551 39.69 227.43 40.5279 227.115C40.7988 227.55 41.057 227.991 41.3279 228.425C42.5879 230.517 43.9109 232.602 45.108 234.681C45.5301 235.418 45.9269 236.155 46.3175 236.893C45.971 236.464 45.6876 236.111 45.6308 236.061C44.0748 234.543 40.194 232.501 38.0709 233.61C37.7222 233.807 37.419 234.074 37.1813 234.396C36.9436 234.718 36.7767 235.087 36.6916 235.478C36.6065 235.869 36.6052 236.273 36.6876 236.665C36.77 237.056 36.9344 237.426 37.17 237.749C38.1213 239.179 40.1498 239.772 41.7563 239.885C43.3629 239.998 46.2483 238.99 47.25 238.638Z" fill="#BABABA"/>
<path d="M68.4558 193.341C66.0555 191.961 64.1592 193.731 65.1042 196.61C65.9106 199.074 68.7645 201.512 69.5709 202.154L69.867 201.625C70.0686 199.71 70.4151 194.462 68.4558 193.341Z" fill="#BABABA"/>
<path d="M213.765 293.303C211.107 293.372 208.53 297.398 207.894 299.691C207.862 299.811 207.654 301.064 207.516 302.016C208.776 302.129 210.036 302.217 211.296 302.28C212.156 302.074 212.983 301.747 213.753 301.31C215.233 300.346 216.84 298.702 216.953 296.818C216.996 296.374 216.946 295.925 216.805 295.501C216.664 295.076 216.437 294.686 216.137 294.355C215.837 294.024 215.471 293.76 215.062 293.579C214.654 293.397 214.212 293.303 213.765 293.303Z" fill="#BABABA"/>
<path d="M190.821 257.67C187.759 257.67 186.927 260.417 189.428 262.647C191.539 264.537 195.552 265.287 196.724 265.476L196.78 264.846C195.93 262.924 193.334 257.632 190.821 257.67Z" fill="#BABABA"/>
<path d="M240.125 292.849C240.402 292.502 240.603 292.101 240.716 291.671C240.83 291.241 240.852 290.793 240.782 290.354C240.712 289.915 240.551 289.496 240.31 289.123C240.069 288.75 239.752 288.431 239.381 288.187C237.107 286.77 232.722 288.666 230.933 290.203C230.794 290.317 229.131 292.125 228.728 292.604C229.037 290.814 229.358 289.044 229.761 287.305C230.276 284.954 230.945 282.639 231.764 280.375C231.922 280.451 236.017 282.397 238.064 282.429C239.841 282.429 242.096 281.982 243.224 280.495C243.501 280.148 243.703 279.746 243.816 279.317C243.929 278.887 243.952 278.439 243.882 278C243.812 277.561 243.651 277.142 243.41 276.769C243.168 276.395 242.852 276.077 242.481 275.833C240.206 274.415 235.822 276.312 234.032 277.849C233.888 277.969 232.098 279.909 231.796 280.287C231.846 280.155 231.878 280.016 231.928 279.884C232.812 277.65 233.894 275.499 235.16 273.458C235.841 272.324 236.559 271.278 237.283 270.308C238.008 270.749 241.359 272.727 243.199 272.954C245.039 273.181 247.262 272.954 248.548 271.606C248.861 271.291 249.105 270.915 249.265 270.501C249.424 270.087 249.495 269.644 249.473 269.201C249.451 268.758 249.337 268.324 249.137 267.928C248.938 267.531 248.657 267.181 248.314 266.899C246.204 265.236 241.637 266.641 239.684 267.964C239.576 268.04 238.581 268.897 237.863 269.527C238.19 269.079 238.531 268.613 238.852 268.191C240.08 266.603 241.296 265.23 242.386 264.02C243.016 263.34 243.589 262.76 244.138 262.174C245.07 262.237 248.837 262.439 250.532 261.803C252.227 261.166 254.111 259.913 254.621 258.117C254.755 257.693 254.799 257.245 254.75 256.803C254.702 256.361 254.563 255.933 254.341 255.548C254.118 255.162 253.819 254.827 253.46 254.563C253.102 254.3 252.693 254.113 252.258 254.016C249.644 253.506 246.261 256.876 245.146 258.968C245.051 259.15 243.886 262.156 243.923 262.162H243.98C243.445 262.685 242.871 263.258 242.26 263.894C241.145 265.085 239.891 266.414 238.625 268.002L238.19 268.544C238.064 269.016 237.983 269.294 237.983 269.294C237.983 269.294 237.901 269.212 237.775 269.067C236.773 270.327 235.752 271.725 234.788 273.244C233.462 275.283 232.321 277.438 231.38 279.682C231.38 279.682 231.38 279.739 231.38 279.764C231.449 278.983 231.563 276.797 231.55 276.614C231.412 274.226 229.736 269.684 227.14 268.979C226.712 268.874 226.266 268.861 225.833 268.942C225.399 269.023 224.988 269.195 224.626 269.447C224.264 269.699 223.961 270.026 223.735 270.404C223.509 270.783 223.366 271.205 223.316 271.643C223.039 273.533 224.261 275.493 225.502 276.791C226.901 278.252 230.945 279.89 231.267 280.022C230.362 282.334 229.615 284.704 229.03 287.116C228.684 288.515 228.4 289.945 228.079 291.375C228.117 290.701 228.142 290.115 228.136 290.014C227.991 287.626 226.321 283.084 223.726 282.379C223.298 282.272 222.852 282.258 222.418 282.337C221.984 282.417 221.572 282.588 221.21 282.84C220.848 283.092 220.544 283.418 220.318 283.797C220.092 284.176 219.95 284.599 219.902 285.037C219.624 286.927 220.847 288.893 222.088 290.191C223.329 291.488 226.769 292.969 227.676 293.341L227.354 294.991C226.926 297.253 226.504 299.508 226.038 301.732L227.172 301.575C227.562 299.452 227.921 297.31 228.274 295.168C228.407 294.355 228.551 293.548 228.696 292.736C229.024 292.893 232.961 294.739 234.959 294.771C236.741 294.802 238.997 294.336 240.125 292.849Z" fill="#BABABA"/>
<path d="M238.096 259.251C235.715 257.33 233.346 258.93 233.869 262.231C234.322 265.066 237.019 268.216 237.775 269.06L238.19 268.537C238.77 266.49 240.03 260.82 238.096 259.251Z" fill="#BABABA"/>
<path d="M197.19 263.819C197.329 261.809 197.581 259.969 197.82 258.35C197.959 257.431 198.103 256.599 198.248 255.83C199.055 255.364 202.274 253.443 203.32 251.968C204.366 250.494 205.248 248.403 204.681 246.595C204.564 246.166 204.358 245.767 204.078 245.422C203.798 245.078 203.449 244.795 203.054 244.593C202.658 244.391 202.225 244.274 201.782 244.248C201.338 244.223 200.894 244.29 200.479 244.446C198.034 245.473 197.095 250.186 197.329 252.567C197.329 252.775 198.028 255.956 198.072 255.937L198.122 255.906C197.965 256.649 197.807 257.449 197.656 258.325C197.379 259.944 197.089 261.778 196.906 263.8C196.875 264.134 196.843 264.487 196.818 264.833C197.001 265.249 197.108 265.507 197.108 265.507C197.095 264.94 197.121 264.361 197.19 263.819Z" fill="#BABABA"/>
<path d="M197.946 297.883C197.417 298.061 196.949 298.386 196.598 298.82C196.246 299.254 196.026 299.779 195.961 300.334C199.219 300.964 202.476 301.487 205.726 301.833C204.277 299.88 200.441 297.051 197.946 297.883Z" fill="#BABABA"/>
<path d="M220.828 296.73C220.4 296.623 219.954 296.609 219.52 296.689C219.086 296.768 218.674 296.94 218.312 297.191C217.95 297.443 217.646 297.769 217.42 298.148C217.194 298.527 217.052 298.95 217.004 299.389C216.898 300.423 217.118 301.465 217.634 302.369C220.015 302.318 222.379 302.161 224.727 301.896C224.028 299.678 222.661 297.24 220.828 296.73Z" fill="#BABABA"/>
<path d="M206.457 299.88C205.443 297.398 204.334 294.909 203.244 292.427C202.91 291.671 202.583 290.909 202.255 290.147C202.614 290.096 206.879 289.472 208.555 288.383C210.036 287.419 211.642 285.774 211.756 283.891C211.797 283.45 211.747 283.005 211.609 282.584C211.47 282.163 211.245 281.776 210.949 281.446C210.653 281.116 210.292 280.851 209.889 280.668C209.486 280.485 209.049 280.387 208.606 280.382C205.947 280.445 203.37 284.477 202.734 286.763C202.684 286.94 202.293 289.384 202.23 290.008C201.505 288.332 200.8 286.656 200.176 284.968C199.315 282.706 198.602 280.392 198.04 278.038C198.204 278.038 202.658 277.408 204.34 276.274C205.815 275.31 207.427 273.659 207.541 271.782C207.583 271.341 207.533 270.895 207.394 270.474C207.255 270.053 207.031 269.665 206.735 269.335C206.439 269.005 206.078 268.74 205.675 268.556C205.271 268.372 204.834 268.273 204.391 268.267C201.732 268.336 199.156 272.362 198.519 274.655C198.469 274.831 198.053 277.465 198.015 277.943C197.984 277.811 197.933 277.673 197.902 277.534C197.406 275.161 197.119 272.75 197.045 270.327C196.982 268.991 197.001 267.712 197.045 266.471C197.883 266.44 201.732 266.244 203.383 265.419C205.033 264.594 206.741 263.17 207.056 261.318C207.145 260.882 207.143 260.432 207.05 259.997C206.956 259.562 206.773 259.151 206.513 258.79C206.252 258.43 205.919 258.127 205.536 257.902C205.152 257.676 204.726 257.533 204.284 257.481C201.631 257.248 198.614 260.965 197.738 263.151C197.694 263.271 197.341 264.55 197.108 265.482L196.762 265.432C196.648 266.975 196.579 268.582 196.617 270.32C196.638 272.775 196.876 275.222 197.329 277.635V277.717C196.957 277.024 195.848 275.121 195.747 274.982C194.317 273.055 190.443 270.15 187.929 270.988C187.516 271.145 187.141 271.386 186.827 271.698C186.514 272.009 186.269 272.382 186.109 272.794C185.949 273.205 185.878 273.646 185.9 274.087C185.921 274.528 186.035 274.96 186.234 275.354C187.022 277.074 189.132 278.076 190.865 278.504C192.818 278.958 197.058 278.095 197.398 278.025C197.92 280.472 198.601 282.882 199.439 285.239C199.924 286.619 200.453 287.992 200.995 289.359C200.655 288.773 200.365 288.244 200.296 288.181C198.866 286.247 194.991 283.349 192.478 284.187C192.065 284.343 191.691 284.585 191.378 284.895C191.065 285.206 190.821 285.579 190.661 285.99C190.501 286.401 190.43 286.841 190.451 287.281C190.472 287.721 190.585 288.152 190.783 288.546C191.57 290.273 193.675 291.268 195.413 291.696C197.152 292.125 200.8 291.444 201.757 291.255C201.972 291.778 202.18 292.301 202.387 292.824C203.427 295.344 204.479 297.833 205.43 300.315C205.632 300.844 205.821 301.373 206.01 301.896L207.27 302.022C207.012 301.291 206.747 300.586 206.457 299.88Z" fill="#BABABA"/>
<path d="M211.208 85.132C211.741 85.4269 212.232 85.7913 212.669 86.2156M204.838 101.821L205.254 104.309L208.026 104.555L208.858 102.199C209.767 102.117 210.662 101.922 211.523 101.619L213.274 103.396L215.681 102.003L215.019 99.6094C215.716 99.0167 216.336 98.3395 216.865 97.5934L219.309 98.047L220.487 95.527L218.566 93.9457C218.794 93.0607 218.91 92.1506 218.912 91.2367L221.193 90.2035L220.708 87.463L218.188 87.2677C217.868 86.4249 217.445 85.6249 216.928 84.8863L218.226 82.6939L216.26 80.7283L214.055 82.0387C212.784 81.1806 211.349 80.595 209.84 80.3188L209.21 77.7988H206.426L205.796 80.3188C204.927 80.4795 204.08 80.7461 203.276 81.1126L201.291 79.3927L199.011 80.9866L199.949 83.4436C199.337 84.0679 198.802 84.7638 198.356 85.5163L195.735 85.2454L194.783 87.8599L196.951 89.3278C196.849 89.9378 196.798 90.5553 196.799 91.1737C196.799 91.4383 196.799 91.6966 196.799 91.9549L194.525 93.2149L195.243 95.8987L197.82 95.8672C198.203 96.6697 198.679 97.4246 199.238 98.1163L198.122 100.435L200.252 102.218L202.356 100.8L204.838 101.821ZM213.91 87.8095C214.656 89.1361 214.944 90.6713 214.731 92.1781C214.517 93.6848 213.813 95.0793 212.728 96.1464C211.643 97.2134 210.237 97.8936 208.727 98.082C207.217 98.2703 205.687 97.9563 204.373 97.1885C203.059 96.4207 202.034 95.2417 201.457 93.8336C200.88 92.4255 200.782 90.8665 201.179 89.3974C201.576 87.9283 202.446 86.6307 203.654 85.7049C204.861 84.7792 206.34 84.2768 207.862 84.2752C208.196 84.2746 208.528 84.2999 208.858 84.3508L213.91 87.8095Z" stroke="black" stroke-miterlimit="10"/>
<path d="M217.797 227.008C218.33 227.303 218.822 227.667 219.259 228.092M211.403 243.722L211.819 246.21L214.591 246.456L215.422 244.1C216.331 244.018 217.226 243.824 218.087 243.52L219.838 245.297L222.245 243.905L221.615 241.511C222.312 240.918 222.932 240.241 223.461 239.495L225.905 239.948L227.083 237.428L225.193 235.847C225.421 234.962 225.538 234.052 225.54 233.138L227.821 232.105L227.335 229.364L224.815 229.169C224.498 228.325 224.075 227.525 223.555 226.787L224.853 224.595L222.888 222.629L220.683 223.94C219.412 223.082 217.977 222.496 216.468 222.22L215.838 219.7H213.053L212.423 222.22C211.554 222.381 210.708 222.647 209.903 223.014L207.9 221.313L205.619 222.907L206.558 225.364C205.945 225.988 205.41 226.684 204.964 227.436L202.343 227.165L201.392 229.78L203.559 231.248C203.458 231.858 203.407 232.475 203.408 233.094C203.408 233.358 203.408 233.617 203.408 233.875L201.134 235.135L201.852 237.819L204.429 237.787C204.812 238.59 205.287 239.345 205.846 240.036L204.75 242.367L206.879 244.15L208.946 242.676L211.403 243.722ZM220.5 229.685C221.246 231.012 221.534 232.547 221.32 234.054C221.107 235.561 220.403 236.955 219.318 238.022C218.233 239.089 216.827 239.77 215.317 239.958C213.807 240.146 212.276 239.832 210.962 239.064C209.649 238.297 208.624 237.118 208.047 235.71C207.47 234.301 207.372 232.742 207.769 231.273C208.166 229.804 209.035 228.507 210.243 227.581C211.451 226.655 212.93 226.153 214.452 226.151C214.785 226.151 215.118 226.176 215.447 226.227L220.5 229.685Z" stroke="black" stroke-miterlimit="10"/>
<path d="M239.009 84.3823C238.114 85.789 236.742 86.8258 235.144 87.3024C233.546 87.7789 231.83 87.6634 230.31 86.9769C228.79 86.2904 227.569 85.079 226.871 83.5649C226.172 82.0508 226.043 80.3356 226.506 78.7339C226.97 77.1322 227.996 75.7515 229.396 74.845C230.795 73.9385 232.475 73.567 234.126 73.7986C235.777 74.0303 237.29 74.8496 238.386 76.1063C239.482 77.3629 240.088 78.9726 240.093 80.6401C240.093 80.8081 240.093 80.9782 240.093 81.1504M224.91 71.9713L225.275 72.9289C225.093 73.1116 224.916 73.3069 224.746 73.5022L224.91 71.9713ZM223.82 74.7622C223.77 74.8378 223.726 74.9134 223.681 74.989L221.061 74.7244L220.109 77.3326L222.277 78.8005C222.173 79.4104 222.12 80.0278 222.119 80.6464C222.119 80.911 222.119 81.1693 222.119 81.4276L219.839 82.6876L220.563 85.3714H223.14C223.519 86.178 223.995 86.9354 224.557 87.6268L223.442 89.9389L225.571 91.7281L227.638 90.2476C228.419 90.6979 229.253 91.0512 230.12 91.2997L230.536 93.7882L233.302 94.0276L234.139 91.6714C235.048 91.5918 235.943 91.3993 236.804 91.0981L238.549 92.8684L240.956 91.4824L240.326 89.0884C241.021 88.4942 241.641 87.8171 242.172 87.0724L244.616 87.5197L245.794 84.9997L243.873 83.4121C244.098 82.5286 244.214 81.621 244.219 80.7094L246.5 79.6699L246.015 76.9357L243.495 76.7404C243.174 75.8961 242.751 75.0943 242.235 74.3527L243.533 72.1666L241.567 70.201L239.362 71.5114C238.094 70.648 236.658 70.0619 235.147 69.7915L234.517 67.2715H231.739L231.109 69.7915C230.241 69.9552 229.395 70.2216 228.589 70.5853L226.598 68.8654L224.324 70.4593L224.614 71.2153L223.82 74.7622ZM239.954 82.0765C239.861 82.5331 239.719 82.9786 239.532 83.4058L239.954 82.0765Z" stroke="black" stroke-miterlimit="10"/>
<path d="M75.3039 131.739C78.4776 131.886 81.487 133.193 83.7602 135.413C86.0334 137.632 87.412 140.61 87.634 143.779C87.8561 146.948 86.9061 150.089 84.9646 152.604C83.0231 155.119 80.2254 156.833 77.1031 157.42C73.9807 158.008 70.7514 157.428 68.0286 155.791C65.3058 154.153 63.2793 151.573 62.3342 148.54C61.389 145.506 61.5912 142.232 62.9021 139.338C64.213 136.443 66.5414 134.132 69.4449 132.842M58.7349 157.683L56.6496 162.011L60.6312 165.35L64.4868 162.584C65.9491 163.429 67.5109 164.09 69.1362 164.55L69.9048 169.199L75.0834 169.653L76.6395 165.243C78.3393 165.091 80.0135 164.727 81.6228 164.159L84.8862 167.479L89.3844 164.884L88.1244 160.411C89.4281 159.297 90.5897 158.028 91.5831 156.631L96.1506 157.468L98.3493 152.762L94.7646 149.801C95.1824 148.154 95.3941 146.461 95.3946 144.761L99.6534 142.821L98.7525 137.705L94.0527 137.34C93.452 135.766 92.6629 134.27 91.7028 132.886L94.122 128.791L90.4491 125.118L86.3226 127.569C83.9525 125.956 81.2692 124.862 78.4476 124.356L77.2569 119.643H72.0594L70.8624 124.381C69.2526 124.689 67.6855 125.188 66.1941 125.868L62.4771 122.655L58.2246 125.635L59.976 130.227C58.8334 131.395 57.8332 132.693 56.9961 134.096L52.101 133.592L50.3244 138.474L54.3753 141.221C54.1828 142.362 54.0859 143.516 54.0855 144.673C54.0855 145.165 54.1044 145.65 54.1422 146.129L49.8771 148.51L51.2253 153.55L56.0448 153.493C56.5776 154.628 57.2101 155.714 57.9348 156.738L58.7349 157.683ZM70.371 132.47C70.937 132.272 71.5158 132.112 72.1035 131.991L70.371 132.47Z" stroke="black" stroke-miterlimit="10"/>
<path d="M125.294 143.697L120.141 140.37" stroke="#263238" stroke-width="3" stroke-linecap="round" stroke-linejoin="round"/>
<path d="M134.247 133.692L132.911 132.577" stroke="#263238" stroke-width="3" stroke-linecap="round" stroke-linejoin="round"/>
<path d="M119.202 163.025L108.536 160.354" stroke="#263238" stroke-width="3" stroke-linecap="round" stroke-linejoin="round"/>
<path d="M176.847 228.583C176.769 228.582 176.69 228.572 176.614 228.552C176.368 228.487 176.158 228.329 176.028 228.111C175.701 227.537 175.524 227.229 178.183 224.179C172.45 227.688 171.839 227.544 171.505 227.462C171.243 227.384 171.019 227.214 170.875 226.983C170.346 226.069 170.245 225.887 180.854 217.205C179.153 218.308 177.383 219.492 175.814 220.538C166.477 226.769 163.573 228.539 162.288 228.243C162.132 228.207 161.985 228.141 161.856 228.046C161.728 227.952 161.619 227.832 161.538 227.695C160.971 226.712 160.971 226.712 173.508 217.653L175.99 215.863C174.541 216.827 173.099 217.81 171.776 218.711C161.91 225.42 157.418 228.318 155.736 227.94C155.56 227.901 155.395 227.824 155.252 227.716C155.108 227.607 154.99 227.469 154.904 227.31C154.274 226.246 154.148 226.006 172.381 213.621L148.403 227.481C148.189 227.599 147.938 227.63 147.702 227.565C147.466 227.5 147.265 227.345 147.143 227.134C146.721 226.403 147.048 225.509 148.781 223.984C146.021 225.572 144.421 226.208 143.634 226.025C143.47 225.988 143.315 225.917 143.179 225.819C143.042 225.72 142.927 225.596 142.84 225.452C142.317 224.545 142.519 223.707 149.19 219.221C142.311 223.524 139.772 224.79 138.783 224.557C138.636 224.523 138.497 224.459 138.376 224.369C138.255 224.279 138.153 224.165 138.077 224.034C137.617 223.247 138.046 222.963 139.627 221.918L143.111 219.643L148.441 216.197C142.569 219.246 141.687 219.039 141.196 218.919C141.03 218.881 140.874 218.81 140.736 218.711C140.599 218.611 140.483 218.485 140.395 218.339C140.279 218.126 140.25 217.876 140.313 217.641C140.376 217.406 140.528 217.205 140.736 217.079C159.226 206.117 187.771 188.534 194.651 182.719C187.79 185.838 167.278 198.576 155.591 205.853C140.54 215.208 140.471 215.189 139.841 215.025C139.711 214.996 139.588 214.941 139.48 214.863C139.371 214.785 139.28 214.686 139.211 214.572C138.701 213.69 138.726 213.123 144.749 209.393C141.977 210.697 140.15 211.283 139.343 211.094C139.167 211.053 139.001 210.976 138.855 210.867C138.71 210.759 138.589 210.622 138.499 210.464C138.379 210.255 138.343 210.007 138.401 209.772C138.458 209.538 138.604 209.334 138.808 209.204C157.468 197.316 183.721 180.483 194.431 173.37C191.451 174.888 187.45 177.15 183.002 179.815C179.405 182.127 175.14 184.817 170.094 187.954C163.428 192.106 156.687 196.22 151.074 199.622C137.516 208.177 137.353 208.14 136.691 207.976C136.561 207.944 136.438 207.888 136.33 207.809C136.222 207.73 136.131 207.63 136.061 207.516C135.945 207.302 135.915 207.052 135.979 206.818C136.042 206.583 136.193 206.382 136.401 206.256C140.484 203.83 144.988 201.128 149.663 198.293L152.12 196.743C142.33 202.344 136.918 204.794 135.324 204.404C135.14 204.368 134.965 204.293 134.812 204.184C134.659 204.076 134.531 203.936 134.436 203.774C133.85 202.766 134.681 201.48 141.586 196.97C137.132 199.685 135.368 200.491 134.618 200.309C134.475 200.276 134.341 200.215 134.222 200.128C134.104 200.042 134.005 199.931 133.932 199.805C133.535 199.118 133.213 198.545 137.825 195.199C135.343 196.459 133.774 196.97 133.024 196.787C132.854 196.75 132.694 196.678 132.553 196.577C132.412 196.475 132.294 196.345 132.205 196.195C132.142 196.086 132.101 195.967 132.085 195.842C132.069 195.718 132.077 195.591 132.111 195.47C132.177 195.229 132.336 195.023 132.552 194.897C152.995 183.273 183.954 164.865 193.378 157.437C183.04 163.145 154.539 179.878 134.65 191.671C134.542 191.735 134.424 191.776 134.3 191.793C134.176 191.811 134.051 191.803 133.93 191.772C133.809 191.74 133.696 191.685 133.597 191.609C133.498 191.534 133.415 191.439 133.352 191.331C133.255 191.158 133.195 190.967 133.174 190.77C133.154 190.573 133.174 190.374 133.232 190.185C133.583 189.386 134.113 188.679 134.782 188.118C133.314 188.717 132.331 188.937 131.771 188.799C131.596 188.756 131.433 188.678 131.29 188.57C131.146 188.462 131.027 188.325 130.939 188.169C130.372 187.192 131.456 186.436 133.094 185.296C134.354 184.445 136.137 183.267 138.631 181.705C143.287 178.794 149.675 174.939 156.442 170.862C164.046 166.276 173.08 160.827 180.256 156.316C164.902 165.136 140.723 179.26 129.112 186.052C128.892 186.176 128.632 186.21 128.388 186.146C128.268 186.115 128.155 186.059 128.056 185.984C127.958 185.908 127.876 185.813 127.814 185.705C127.329 184.861 127.184 184.615 135.532 179.361C132.262 181.157 130.196 181.932 129.144 181.686C128.945 181.644 128.757 181.562 128.592 181.444C128.427 181.326 128.289 181.174 128.186 180.999C127.556 179.916 127.556 179.916 142.714 171.114C149.726 167.045 158.092 162.181 165.791 157.506C172.255 153.21 177.313 149.946 181.15 147.678C183.163 146.34 185.073 144.853 186.864 143.231C178.996 146.765 147.924 165.552 128.274 177.774C128.062 177.907 127.805 177.951 127.561 177.896C127.316 177.84 127.104 177.69 126.97 177.477C126.836 177.265 126.793 177.009 126.848 176.764C126.904 176.52 127.054 176.307 127.266 176.173L133.365 172.293C128.325 174.882 126.435 175.317 125.66 175.121C125.484 175.08 125.319 175.003 125.174 174.895C125.03 174.786 124.91 174.649 124.822 174.491C124.7 174.282 124.664 174.034 124.721 173.799C124.779 173.564 124.926 173.36 125.131 173.231L138.556 164.625C127.581 170.825 126.693 170.604 126.151 170.466C126.007 170.432 125.871 170.369 125.752 170.282C125.633 170.194 125.533 170.083 125.458 169.955C125.34 169.744 125.308 169.496 125.368 169.261C125.427 169.027 125.575 168.824 125.779 168.695C139.929 159.945 160.033 147.275 171.769 139.331C162.288 144.793 148.459 152.907 138.732 158.628L127.89 164.928C125.483 166.333 124.318 167.019 123.694 167.334L123.53 167.435C123.096 167.643 122.989 167.612 122.806 167.561C122.628 167.514 122.468 167.415 122.345 167.278C122.223 167.141 122.143 166.971 122.115 166.789C122.088 166.607 122.114 166.421 122.191 166.254C122.268 166.087 122.392 165.945 122.548 165.848C137.554 156.568 159.718 142.582 169.646 135.702C164.361 138.764 156.467 143.798 150.116 147.861C132.313 159.201 126.901 162.465 125.332 162.074C125.183 162.039 125.043 161.973 124.919 161.883C124.796 161.792 124.692 161.677 124.614 161.545C124.223 160.858 123.94 160.373 129.856 156.108C128.243 156.82 127.153 157.091 126.517 156.939C126.337 156.899 126.167 156.822 126.017 156.713C125.868 156.605 125.742 156.468 125.647 156.309C125.53 156.099 125.498 155.851 125.556 155.617C125.615 155.383 125.76 155.18 125.962 155.049C137.586 147.735 155.251 136.269 161.324 131.525C156.007 134.127 144.402 141.605 137.573 145.977C126.416 153.09 126 153.267 125.288 153.09C125.157 153.06 125.034 153.004 124.926 152.924C124.818 152.845 124.727 152.745 124.658 152.63C124.154 151.767 123.713 150.999 134.637 143.489C133.289 144.346 131.909 145.234 130.498 146.141C130.381 146.236 130.245 146.302 130.099 146.336C129.952 146.37 129.8 146.37 129.654 146.337C129.53 146.307 129.413 146.252 129.311 146.175C129.209 146.098 129.124 146.001 129.062 145.889C128.388 144.724 129.358 143.722 137.025 137.844C136.884 137.814 136.752 137.755 136.635 137.67C136.519 137.586 136.422 137.478 136.351 137.353C136.234 137.135 136.206 136.881 136.273 136.644C136.34 136.406 136.497 136.204 136.71 136.08C136.887 135.983 137.089 135.941 137.29 135.96C138.286 135.382 139.251 134.751 140.181 134.07C143.256 131.91 144.125 131.393 144.875 131.55C145.021 131.582 145.159 131.644 145.281 131.732C145.402 131.82 145.504 131.932 145.58 132.061C146.122 133.006 145.7 133.573 140.54 137.567C141.977 136.679 143.457 135.759 144.95 134.852C159.516 125.943 160.644 126.208 161.33 126.372C161.481 126.404 161.624 126.468 161.749 126.559C161.874 126.651 161.978 126.767 162.055 126.901C162.173 127.112 162.207 127.359 162.148 127.594C162.09 127.828 161.943 128.031 161.74 128.161C154.633 132.571 147.25 137.346 141.057 141.473C155.434 132.294 162.345 128.243 164.291 128.734C164.46 128.772 164.619 128.844 164.759 128.946C164.899 129.048 165.016 129.177 165.104 129.327C165.703 130.366 166.137 131.122 146.248 144.213L143.388 146.103C147.395 143.583 151.452 140.937 154.728 138.795C167.485 130.517 169.552 129.301 170.516 129.528C170.648 129.563 170.772 129.623 170.88 129.707C170.988 129.79 171.079 129.894 171.146 130.013C171.266 130.223 171.302 130.47 171.244 130.705C171.187 130.94 171.041 131.143 170.837 131.273C158.502 139.136 140.484 150.873 131.575 157.179C136.363 154.356 143.149 150.028 149.058 146.261C167.788 134.291 173.899 130.668 175.625 131.084C175.779 131.121 175.925 131.189 176.052 131.283C176.18 131.377 176.288 131.496 176.368 131.632C176.828 132.432 177.162 132.999 166.207 140.314C181.56 131.406 181.856 131.494 182.341 131.607C182.464 131.639 182.58 131.695 182.682 131.772C182.783 131.848 182.869 131.944 182.933 132.054C183.563 133.144 184.01 133.944 155.043 152.454C152.939 153.802 150.828 155.144 148.743 156.454C160.209 149.676 173.874 141.334 184.225 134.871C184.333 134.804 184.453 134.76 184.579 134.741C184.704 134.722 184.832 134.727 184.955 134.757C185.203 134.82 185.416 134.979 185.548 135.198C185.995 135.979 185.333 136.458 184.634 136.937C184.206 137.233 183.576 137.661 182.744 138.197C181.219 139.211 178.964 140.717 176.053 142.607C171.152 145.801 164.304 150.23 155.698 155.774C147.407 161.11 139.054 166.484 133.327 170.144C140.893 166.144 155.61 157.5 183.96 139.388C188.042 136.786 188.042 136.786 188.458 136.868C188.583 136.898 188.7 136.954 188.803 137.031C188.906 137.107 188.992 137.204 189.057 137.315C189.29 137.718 189.422 137.945 188.666 138.619C187.658 139.501 185.151 141.139 179.43 144.856C187.532 140.415 188.288 140.597 188.779 140.723C188.922 140.755 189.057 140.817 189.175 140.904C189.294 140.99 189.393 141.101 189.466 141.227C189.806 141.819 189.888 142.531 188.628 143.943C189.125 143.787 189.651 143.749 190.165 143.829C190.371 143.872 190.565 143.957 190.736 144.08C190.906 144.203 191.049 144.36 191.155 144.541C191.785 145.625 192.1 146.179 173.382 157.985C193.202 146.507 193.397 146.557 193.87 146.683C193.991 146.714 194.105 146.769 194.204 146.845C194.304 146.92 194.387 147.015 194.449 147.124C195.079 148.17 193.945 149.222 191.236 151.2C189.491 152.46 187.028 154.123 183.727 156.24C194.733 149.367 197.492 147.943 198.475 148.182C198.614 148.216 198.745 148.278 198.86 148.363C198.974 148.449 199.071 148.557 199.143 148.68C199.206 148.787 199.247 148.906 199.263 149.03C199.28 149.153 199.271 149.278 199.237 149.398C199.206 149.52 199.149 149.634 199.073 149.734C198.996 149.833 198.9 149.916 198.79 149.978C192.364 153.619 185.831 157.387 179.518 161.104L172.979 165.237C160.121 173.376 150.74 179.229 144.157 183.059C142.071 184.489 140.288 185.762 138.858 186.839C144.717 183.374 154.696 177.484 164.688 171.656C196.188 153.222 196.667 153.355 197.266 153.512C197.389 153.544 197.505 153.6 197.606 153.677C197.708 153.753 197.793 153.85 197.858 153.96C197.949 154.121 198.006 154.299 198.027 154.483C198.048 154.667 198.031 154.853 197.977 155.031C197.792 155.641 197.435 156.185 196.951 156.599C199.111 155.522 200.466 155.081 201.134 155.238C201.296 155.276 201.449 155.346 201.584 155.444C201.718 155.543 201.831 155.668 201.915 155.812C202.419 156.681 201.713 157.154 200.157 158.187C199.219 158.817 197.833 159.693 195.911 160.89L195.539 161.123C198.475 159.718 200.535 159.056 201.568 159.308C201.779 159.352 201.979 159.439 202.155 159.563C202.33 159.688 202.478 159.848 202.589 160.033C203.458 161.538 202.589 162.496 171.851 180.678C158.943 188.37 141.889 198.45 137.239 202.23C139.803 201.329 146.191 198.242 162.067 188.635C175.008 180.804 189.258 171.663 196.087 167.271C200.831 164.229 200.825 164.235 201.247 164.336C201.498 164.4 201.713 164.56 201.846 164.783C202.23 165.451 202.621 166.125 197.436 169.987C198.168 169.656 198.972 169.517 199.773 169.584C199.949 169.625 200.115 169.703 200.26 169.811C200.406 169.919 200.527 170.056 200.617 170.214C201.172 171.177 201.172 171.177 190.978 177.855C185.938 181.144 178.945 185.686 170.125 191.356C161.62 196.825 153.046 202.312 147.174 206.061C159.069 199.685 181.358 185.548 191.274 179.26C200.094 173.685 200.094 173.685 200.573 173.805C200.696 173.836 200.812 173.892 200.914 173.969C201.016 174.046 201.101 174.142 201.165 174.252C201.839 175.424 200.768 177.087 196.623 180.168C196.744 180.15 196.867 180.15 196.988 180.168C197.143 180.204 197.288 180.272 197.416 180.366C197.543 180.46 197.651 180.579 197.732 180.716C198.393 181.862 199.143 183.16 171.184 200.668C179.222 195.716 187.564 190.449 194.298 186.083C194.406 186.013 194.527 185.966 194.654 185.944C194.78 185.922 194.91 185.926 195.035 185.956C195.16 185.986 195.278 186.042 195.381 186.119C195.484 186.196 195.57 186.293 195.634 186.405C196.094 187.211 195.457 187.665 194.374 188.421C193.744 188.868 192.793 189.523 191.545 190.355C190.298 191.186 188.748 192.245 186.877 193.454C189.485 192.131 191.098 191.596 191.917 191.797C192.095 191.837 192.262 191.914 192.409 192.023C192.555 192.131 192.677 192.269 192.767 192.427C193.297 193.341 193.177 193.687 186.801 197.808C188.143 197.234 189.094 197.026 189.706 197.178C189.895 197.218 190.075 197.298 190.232 197.412C190.389 197.526 190.521 197.671 190.619 197.839C191.362 199.099 190.802 199.691 173.729 210.03C168.84 212.991 162.685 216.714 157.702 219.927L191.224 200.58C191.331 200.516 191.45 200.475 191.573 200.459C191.697 200.442 191.822 200.451 191.942 200.485C192.183 200.549 192.389 200.705 192.515 200.92C192.982 201.732 192.32 202.218 191.224 203.024C190.562 203.509 189.592 204.196 188.257 205.116C185.768 206.842 182.309 209.179 178.649 211.661C174.384 214.547 169.016 218.182 164.619 221.237C166.641 219.902 168.745 218.472 170.617 217.199C180.363 210.571 184.477 207.919 186.083 208.272C186.251 208.309 186.41 208.38 186.55 208.481C186.69 208.581 186.808 208.71 186.896 208.858C187.444 209.815 187.469 209.859 176.293 217.955C184.401 212.562 187.053 211.025 188.263 211.296C188.419 211.331 188.565 211.398 188.694 211.492C188.823 211.587 188.932 211.706 189.013 211.844C189.454 212.613 189.454 212.613 183.815 217.218C182.114 218.604 179.752 220.532 177.622 222.315C179.348 221.25 181.251 220.04 183.059 218.868C183.167 218.798 183.288 218.751 183.414 218.729C183.541 218.707 183.671 218.711 183.796 218.741C183.921 218.771 184.039 218.827 184.142 218.904C184.245 218.981 184.331 219.078 184.395 219.19C184.747 219.82 184.615 219.946 183.324 221.332C182.272 222.459 181.371 223.449 180.608 224.293C186.329 220.884 186.537 220.941 186.94 221.042C187.062 221.074 187.177 221.13 187.278 221.207C187.378 221.283 187.463 221.379 187.526 221.489C187.589 221.597 187.63 221.715 187.646 221.839C187.663 221.962 187.655 222.087 187.623 222.208C187.59 222.328 187.535 222.44 187.459 222.539C187.382 222.637 187.287 222.719 187.179 222.781C187.088 222.836 186.988 222.874 186.883 222.894C186.045 223.272 181.39 226.013 177.288 228.495C177.15 228.558 176.999 228.588 176.847 228.583ZM185.938 222.39C186.038 222.559 186.188 222.693 186.367 222.774C186.189 222.691 186.04 222.557 185.938 222.39ZM162.679 212.77C157.235 216.166 151.88 219.568 148.39 221.993C152.189 219.732 157.708 216.09 162.679 212.77ZM186.108 195.993C179.928 199.42 169.93 205.859 162.332 210.767C165.129 209.022 168.317 207.05 171.94 204.819C176.929 201.751 182.303 198.45 186.108 195.993ZM185.705 200.403C182.347 202.192 177.25 205.443 172.28 208.688L172.803 208.373C177.446 205.55 182.486 202.495 185.705 200.391V200.403ZM154.728 186.253C150.57 188.855 146.79 191.306 143.64 193.41C146.903 191.325 150.772 188.824 154.728 186.253ZM199.578 161.475C197.751 162.105 193.876 163.869 185.68 168.79C177.484 173.71 167.58 180.18 158.76 185.913C154.911 188.433 151.672 190.512 148.938 192.264C154.243 189 161.368 184.735 170.887 179.103C182.473 172.23 195.426 164.569 199.578 161.475ZM193.662 179.96L192.326 180.81C187.916 183.612 183.739 186.247 179.796 188.717C185.056 185.554 190.027 182.461 193.662 179.96ZM151.88 175.77C146.103 179.26 140.49 182.7 136.76 185.05C138.65 184.086 140.925 182.795 143.495 181.27C146.021 179.55 148.85 177.692 151.88 175.77ZM166.673 159.126C164.254 160.738 161.872 162.339 159.642 163.832C155.232 166.805 151.313 169.401 147.918 171.631L151.389 169.489C164.146 161.627 182.568 150.261 187.986 146.141C185.982 147.037 184.039 148.064 182.171 149.216C180.016 150.721 177.276 152.529 173.804 154.722C171.543 156.139 169.142 157.614 166.673 159.113V159.126Z" fill="#92E3A9"/>
<g opacity="0.4">
<path opacity="0.4" d="M176.847 228.583C176.769 228.582 176.69 228.572 176.614 228.552C176.368 228.487 176.158 228.329 176.028 228.111C175.701 227.537 175.524 227.229 178.183 224.179C172.45 227.688 171.839 227.544 171.505 227.462C171.243 227.384 171.019 227.214 170.875 226.983C170.346 226.069 170.245 225.887 180.854 217.205C179.153 218.308 177.383 219.492 175.814 220.538C166.477 226.769 163.573 228.539 162.288 228.243C162.132 228.207 161.985 228.141 161.856 228.046C161.728 227.952 161.619 227.832 161.538 227.695C160.971 226.712 160.971 226.712 173.508 217.653L175.99 215.863C174.541 216.827 173.099 217.81 171.776 218.711C161.91 225.42 157.418 228.318 155.736 227.94C155.56 227.901 155.395 227.824 155.252 227.716C155.108 227.607 154.99 227.469 154.904 227.31C154.274 226.246 154.148 226.006 172.381 213.621L148.403 227.481C148.189 227.599 147.938 227.63 147.702 227.565C147.466 227.5 147.265 227.345 147.143 227.134C146.721 226.403 147.048 225.509 148.781 223.984C146.021 225.572 144.421 226.208 143.634 226.025C143.47 225.988 143.315 225.917 143.179 225.819C143.042 225.72 142.927 225.596 142.84 225.452C142.317 224.545 142.519 223.707 149.19 219.221C142.311 223.524 139.772 224.79 138.783 224.557C138.636 224.523 138.497 224.459 138.376 224.369C138.255 224.279 138.153 224.165 138.077 224.034C137.617 223.247 138.046 222.963 139.627 221.918L143.111 219.643L148.441 216.197C142.569 219.246 141.687 219.039 141.196 218.919C141.03 218.881 140.874 218.81 140.736 218.711C140.599 218.611 140.483 218.485 140.395 218.339C140.279 218.126 140.25 217.876 140.313 217.641C140.376 217.406 140.528 217.205 140.736 217.079C159.226 206.117 187.771 188.534 194.651 182.719C187.79 185.838 167.278 198.576 155.591 205.853C140.54 215.208 140.471 215.189 139.841 215.025C139.711 214.996 139.588 214.941 139.48 214.863C139.371 214.785 139.28 214.686 139.211 214.572C138.701 213.69 138.726 213.123 144.749 209.393C141.977 210.697 140.15 211.283 139.343 211.094C139.167 211.053 139.001 210.976 138.855 210.867C138.71 210.759 138.589 210.622 138.499 210.464C138.379 210.255 138.343 210.007 138.401 209.772C138.458 209.538 138.604 209.334 138.808 209.204C157.468 197.316 183.721 180.483 194.431 173.37C191.451 174.888 187.45 177.15 183.002 179.815C179.405 182.127 175.14 184.817 170.094 187.954C163.428 192.106 156.687 196.22 151.074 199.622C137.516 208.177 137.353 208.14 136.691 207.976C136.561 207.944 136.438 207.888 136.33 207.809C136.222 207.73 136.131 207.63 136.061 207.516C135.945 207.302 135.915 207.052 135.979 206.818C136.042 206.583 136.193 206.382 136.401 206.256C140.484 203.83 144.988 201.128 149.663 198.293L152.12 196.743C142.33 202.344 136.918 204.794 135.324 204.404C135.14 204.368 134.965 204.293 134.812 204.184C134.659 204.076 134.531 203.936 134.436 203.774C133.85 202.766 134.681 201.48 141.586 196.97C137.132 199.685 135.368 200.491 134.618 200.309C134.475 200.276 134.341 200.215 134.222 200.128C134.104 200.042 134.005 199.931 133.932 199.805C133.535 199.118 133.213 198.545 137.825 195.199C135.343 196.459 133.774 196.97 133.024 196.787C132.854 196.75 132.694 196.678 132.553 196.577C132.412 196.475 132.294 196.345 132.205 196.195C132.142 196.086 132.101 195.967 132.085 195.842C132.069 195.718 132.077 195.591 132.111 195.47C132.177 195.229 132.336 195.023 132.552 194.897C152.995 183.273 183.954 164.865 193.378 157.437C183.04 163.145 154.539 179.878 134.65 191.671C134.542 191.735 134.424 191.776 134.3 191.793C134.176 191.811 134.051 191.803 133.93 191.772C133.809 191.74 133.696 191.685 133.597 191.609C133.498 191.534 133.415 191.439 133.352 191.331C133.255 191.158 133.195 190.967 133.174 190.77C133.154 190.573 133.174 190.374 133.232 190.185C133.583 189.386 134.113 188.679 134.782 188.118C133.314 188.717 132.331 188.937 131.771 188.799C131.596 188.756 131.433 188.678 131.29 188.57C131.146 188.462 131.027 188.325 130.939 188.169C130.372 187.192 131.456 186.436 133.094 185.296C134.354 184.445 136.137 183.267 138.631 181.705C143.287 178.794 149.675 174.939 156.442 170.862C164.046 166.276 173.08 160.827 180.256 156.316C164.902 165.136 140.723 179.26 129.112 186.052C128.892 186.176 128.632 186.21 128.388 186.146C128.268 186.115 128.155 186.059 128.056 185.984C127.958 185.908 127.876 185.813 127.814 185.705C127.329 184.861 127.184 184.615 135.532 179.361C132.262 181.157 130.196 181.932 129.144 181.686C128.945 181.644 128.757 181.562 128.592 181.444C128.427 181.326 128.289 181.174 128.186 180.999C127.556 179.916 127.556 179.916 142.714 171.114C149.726 167.045 158.092 162.181 165.791 157.506C172.255 153.21 177.313 149.946 181.15 147.678C183.163 146.34 185.073 144.853 186.864 143.231C178.996 146.765 147.924 165.552 128.274 177.774C128.062 177.907 127.805 177.951 127.561 177.896C127.316 177.84 127.104 177.69 126.97 177.477C126.836 177.265 126.793 177.009 126.848 176.764C126.904 176.52 127.054 176.307 127.266 176.173L133.365 172.293C128.325 174.882 126.435 175.317 125.66 175.121C125.484 175.08 125.319 175.003 125.174 174.895C125.03 174.786 124.91 174.649 124.822 174.491C124.7 174.282 124.664 174.034 124.721 173.799C124.779 173.564 124.926 173.36 125.131 173.231L138.556 164.625C127.581 170.825 126.693 170.604 126.151 170.466C126.007 170.432 125.871 170.369 125.752 170.282C125.633 170.194 125.533 170.083 125.458 169.955C125.34 169.744 125.308 169.496 125.368 169.261C125.427 169.027 125.575 168.824 125.779 168.695C139.929 159.945 160.033 147.275 171.769 139.331C162.288 144.793 148.459 152.907 138.732 158.628L127.89 164.928C125.483 166.333 124.318 167.019 123.694 167.334L123.53 167.435C123.096 167.643 122.989 167.612 122.806 167.561C122.628 167.514 122.468 167.415 122.345 167.278C122.223 167.141 122.143 166.971 122.115 166.789C122.088 166.607 122.114 166.421 122.191 166.254C122.268 166.087 122.392 165.945 122.548 165.848C137.554 156.568 159.718 142.582 169.646 135.702C164.361 138.764 156.467 143.798 150.116 147.861C132.313 159.201 126.901 162.465 125.332 162.074C125.183 162.039 125.043 161.973 124.919 161.883C124.796 161.792 124.692 161.677 124.614 161.545C124.223 160.858 123.94 160.373 129.856 156.108C128.243 156.82 127.153 157.091 126.517 156.939C126.337 156.899 126.167 156.822 126.017 156.713C125.868 156.605 125.742 156.468 125.647 156.309C125.53 156.099 125.498 155.851 125.556 155.617C125.615 155.383 125.76 155.18 125.962 155.049C137.586 147.735 155.251 136.269 161.324 131.525C156.007 134.127 144.402 141.605 137.573 145.977C126.416 153.09 126 153.267 125.288 153.09C125.157 153.06 125.034 153.004 124.926 152.924C124.818 152.845 124.727 152.745 124.658 152.63C124.154 151.767 123.713 150.999 134.637 143.489C133.289 144.346 131.909 145.234 130.498 146.141C130.381 146.236 130.245 146.302 130.099 146.336C129.952 146.37 129.8 146.37 129.654 146.337C129.53 146.307 129.413 146.252 129.311 146.175C129.209 146.098 129.124 146.001 129.062 145.889C128.388 144.724 129.358 143.722 137.025 137.844C136.884 137.814 136.752 137.755 136.635 137.67C136.519 137.586 136.422 137.478 136.351 137.353C136.234 137.135 136.206 136.881 136.273 136.644C136.34 136.406 136.497 136.204 136.71 136.08C136.887 135.983 137.089 135.941 137.29 135.96C138.286 135.382 139.251 134.751 140.181 134.07C143.256 131.91 144.125 131.393 144.875 131.55C145.021 131.582 145.159 131.644 145.281 131.732C145.402 131.82 145.504 131.932 145.58 132.061C146.122 133.006 145.7 133.573 140.54 137.567C141.977 136.679 143.457 135.759 144.95 134.852C159.516 125.943 160.644 126.208 161.33 126.372C161.481 126.404 161.624 126.468 161.749 126.559C161.874 126.651 161.978 126.767 162.055 126.901C162.173 127.112 162.207 127.359 162.148 127.594C162.09 127.828 161.943 128.031 161.74 128.161C154.633 132.571 147.25 137.346 141.057 141.473C155.434 132.294 162.345 128.243 164.291 128.734C164.46 128.772 164.619 128.844 164.759 128.946C164.899 129.048 165.016 129.177 165.104 129.327C165.703 130.366 166.137 131.122 146.248 144.213L143.388 146.103C147.395 143.583 151.452 140.937 154.728 138.795C167.485 130.517 169.552 129.301 170.516 129.528C170.648 129.563 170.772 129.623 170.88 129.707C170.988 129.79 171.079 129.894 171.146 130.013C171.266 130.223 171.302 130.47 171.244 130.705C171.187 130.94 171.041 131.143 170.837 131.273C158.502 139.136 140.484 150.873 131.575 157.179C136.363 154.356 143.149 150.028 149.058 146.261C167.788 134.291 173.899 130.668 175.625 131.084C175.779 131.121 175.925 131.189 176.052 131.283C176.18 131.377 176.288 131.496 176.368 131.632C176.828 132.432 177.162 132.999 166.207 140.314C181.56 131.406 181.856 131.494 182.341 131.607C182.464 131.639 182.58 131.695 182.682 131.772C182.783 131.848 182.869 131.944 182.933 132.054C183.563 133.144 184.01 133.944 155.043 152.454C152.939 153.802 150.828 155.144 148.743 156.454C160.209 149.676 173.874 141.334 184.225 134.871C184.333 134.804 184.453 134.76 184.579 134.741C184.704 134.722 184.832 134.727 184.955 134.757C185.203 134.82 185.416 134.979 185.548 135.198C185.995 135.979 185.333 136.458 184.634 136.937C184.206 137.233 183.576 137.661 182.744 138.197C181.219 139.211 178.964 140.717 176.053 142.607C171.152 145.801 164.304 150.23 155.698 155.774C147.407 161.11 139.054 166.484 133.327 170.144C140.893 166.144 155.61 157.5 183.96 139.388C188.042 136.786 188.042 136.786 188.458 136.868C188.583 136.898 188.7 136.954 188.803 137.031C188.906 137.107 188.992 137.204 189.057 137.315C189.29 137.718 189.422 137.945 188.666 138.619C187.658 139.501 185.151 141.139 179.43 144.856C187.532 140.415 188.288 140.597 188.779 140.723C188.922 140.755 189.057 140.817 189.175 140.904C189.294 140.99 189.393 141.101 189.466 141.227C189.806 141.819 189.888 142.531 188.628 143.943C189.125 143.787 189.651 143.749 190.165 143.829C190.371 143.872 190.565 143.957 190.736 144.08C190.906 144.203 191.049 144.36 191.155 144.541C191.785 145.625 192.1 146.179 173.382 157.985C193.202 146.507 193.397 146.557 193.87 146.683C193.991 146.714 194.105 146.769 194.204 146.845C194.304 146.92 194.387 147.015 194.449 147.124C195.079 148.17 193.945 149.222 191.236 151.2C189.491 152.46 187.028 154.123 183.727 156.24C194.733 149.367 197.492 147.943 198.475 148.182C198.614 148.216 198.745 148.278 198.86 148.363C198.974 148.449 199.071 148.557 199.143 148.68C199.206 148.787 199.247 148.906 199.263 149.03C199.28 149.153 199.271 149.278 199.237 149.398C199.206 149.52 199.149 149.634 199.073 149.734C198.996 149.833 198.9 149.916 198.79 149.978C192.364 153.619 185.831 157.387 179.518 161.104L172.979 165.237C160.121 173.376 150.74 179.229 144.157 183.059C142.071 184.489 140.288 185.762 138.858 186.839C144.717 183.374 154.696 177.484 164.688 171.656C196.188 153.222 196.667 153.355 197.266 153.512C197.389 153.544 197.505 153.6 197.606 153.677C197.708 153.753 197.793 153.85 197.858 153.96C197.949 154.121 198.006 154.299 198.027 154.483C198.048 154.667 198.031 154.853 197.977 155.031C197.792 155.641 197.435 156.185 196.951 156.599C199.111 155.522 200.466 155.081 201.134 155.238C201.296 155.276 201.449 155.346 201.584 155.444C201.718 155.543 201.831 155.668 201.915 155.812C202.419 156.681 201.713 157.154 200.157 158.187C199.219 158.817 197.833 159.693 195.911 160.89L195.539 161.123C198.475 159.718 200.535 159.056 201.568 159.308C201.779 159.352 201.979 159.439 202.155 159.563C202.33 159.688 202.478 159.848 202.589 160.033C203.458 161.538 202.589 162.496 171.851 180.678C158.943 188.37 141.889 198.45 137.239 202.23C139.803 201.329 146.191 198.242 162.067 188.635C175.008 180.804 189.258 171.663 196.087 167.271C200.831 164.229 200.825 164.235 201.247 164.336C201.498 164.4 201.713 164.56 201.846 164.783C202.23 165.451 202.621 166.125 197.436 169.987C198.168 169.656 198.972 169.517 199.773 169.584C199.949 169.625 200.115 169.703 200.26 169.811C200.406 169.919 200.527 170.056 200.617 170.214C201.172 171.177 201.172 171.177 190.978 177.855C185.938 181.144 178.945 185.686 170.125 191.356C161.62 196.825 153.046 202.312 147.174 206.061C159.069 199.685 181.358 185.548 191.274 179.26C200.094 173.685 200.094 173.685 200.573 173.805C200.696 173.836 200.812 173.892 200.914 173.969C201.016 174.046 201.101 174.142 201.165 174.252C201.839 175.424 200.768 177.087 196.623 180.168C196.744 180.15 196.867 180.15 196.988 180.168C197.143 180.204 197.288 180.272 197.416 180.366C197.543 180.46 197.651 180.579 197.732 180.716C198.393 181.862 199.143 183.16 171.184 200.668C179.222 195.716 187.564 190.449 194.298 186.083C194.406 186.013 194.527 185.966 194.654 185.944C194.78 185.922 194.91 185.926 195.035 185.956C195.16 185.986 195.278 186.042 195.381 186.119C195.484 186.196 195.57 186.293 195.634 186.405C196.094 187.211 195.457 187.665 194.374 188.421C193.744 188.868 192.793 189.523 191.545 190.355C190.298 191.186 188.748 192.245 186.877 193.454C189.485 192.131 191.098 191.596 191.917 191.797C192.095 191.837 192.262 191.914 192.409 192.023C192.555 192.131 192.677 192.269 192.767 192.427C193.297 193.341 193.177 193.687 186.801 197.808C188.143 197.234 189.094 197.026 189.706 197.178C189.895 197.218 190.075 197.298 190.232 197.412C190.389 197.526 190.521 197.671 190.619 197.839C191.362 199.099 190.802 199.691 173.729 210.03C168.84 212.991 162.685 216.714 157.702 219.927L191.224 200.58C191.331 200.516 191.45 200.475 191.573 200.459C191.697 200.442 191.822 200.451 191.942 200.485C192.183 200.549 192.389 200.705 192.515 200.92C192.982 201.732 192.32 202.218 191.224 203.024C190.562 203.509 189.592 204.196 188.257 205.116C185.768 206.842 182.309 209.179 178.649 211.661C174.384 214.547 169.016 218.182 164.619 221.237C166.641 219.902 168.745 218.472 170.617 217.199C180.363 210.571 184.477 207.919 186.083 208.272C186.251 208.309 186.41 208.38 186.55 208.481C186.69 208.581 186.808 208.71 186.896 208.858C187.444 209.815 187.469 209.859 176.293 217.955C184.401 212.562 187.053 211.025 188.263 211.296C188.419 211.331 188.565 211.398 188.694 211.492C188.823 211.587 188.932 211.706 189.013 211.844C189.454 212.613 189.454 212.613 183.815 217.218C182.114 218.604 179.752 220.532 177.622 222.315C179.348 221.25 181.251 220.04 183.059 218.868C183.167 218.798 183.288 218.751 183.414 218.729C183.541 218.707 183.671 218.711 183.796 218.741C183.921 218.771 184.039 218.827 184.142 218.904C184.245 218.981 184.331 219.078 184.395 219.19C184.747 219.82 184.615 219.946 183.324 221.332C182.272 222.459 181.371 223.449 180.608 224.293C186.329 220.884 186.537 220.941 186.94 221.042C187.062 221.074 187.177 221.13 187.278 221.207C187.378 221.283 187.463 221.379 187.526 221.489C187.589 221.597 187.63 221.715 187.646 221.839C187.663 221.962 187.655 222.087 187.623 222.208C187.59 222.328 187.535 222.44 187.459 222.539C187.382 222.637 187.287 222.719 187.179 222.781C187.088 222.836 186.988 222.874 186.883 222.894C186.045 223.272 181.39 226.013 177.288 228.495C177.15 228.558 176.999 228.588 176.847 228.583ZM185.938 222.39C186.038 222.559 186.188 222.693 186.367 222.774C186.189 222.691 186.04 222.557 185.938 222.39ZM162.679 212.77C157.235 216.166 151.88 219.568 148.39 221.993C152.189 219.732 157.708 216.09 162.679 212.77ZM186.108 195.993C179.928 199.42 169.93 205.859 162.332 210.767C165.129 209.022 168.317 207.05 171.94 204.819C176.929 201.751 182.303 198.45 186.108 195.993ZM185.705 200.403C182.347 202.192 177.25 205.443 172.28 208.688L172.803 208.373C177.446 205.55 182.486 202.495 185.705 200.391V200.403ZM154.728 186.253C150.57 188.855 146.79 191.306 143.64 193.41C146.903 191.325 150.772 188.824 154.728 186.253ZM199.578 161.475C197.751 162.105 193.876 163.869 185.68 168.79C177.484 173.71 167.58 180.18 158.76 185.913C154.911 188.433 151.672 190.512 148.938 192.264C154.243 189 161.368 184.735 170.887 179.103C182.473 172.23 195.426 164.569 199.578 161.475ZM193.662 179.96L192.326 180.81C187.916 183.612 183.739 186.247 179.796 188.717C185.056 185.554 190.027 182.461 193.662 179.96ZM151.88 175.77C146.103 179.26 140.49 182.7 136.76 185.05C138.65 184.086 140.925 182.795 143.495 181.27C146.021 179.55 148.85 177.692 151.88 175.77ZM166.673 159.126C164.254 160.738 161.872 162.339 159.642 163.832C155.232 166.805 151.313 169.401 147.918 171.631L151.389 169.489C164.146 161.627 182.568 150.261 187.986 146.141C185.982 147.037 184.039 148.064 182.171 149.216C180.016 150.721 177.276 152.529 173.804 154.722C171.543 156.139 169.142 157.614 166.673 159.113V159.126Z" fill="white"/>
</g>
<path d="M163.466 127.607H163.044C140.2 128.029 122.982 145.505 122.982 167.007C122.972 173.428 124.538 179.753 127.543 185.428C128.803 188.421 131.853 195.747 134.87 205.223C137.668 213.967 139.129 222.768 139.129 224.123C139.129 224.249 139.129 224.381 139.129 224.526C139.116 224.921 139.183 225.315 139.326 225.684C139.468 226.053 139.683 226.39 139.958 226.674C140.233 226.959 140.562 227.185 140.926 227.34C141.291 227.494 141.682 227.574 142.078 227.575H182.99C183.385 227.574 183.777 227.494 184.141 227.34C184.505 227.185 184.834 226.959 185.109 226.674C185.384 226.39 185.599 226.053 185.741 225.684C185.884 225.315 185.951 224.921 185.938 224.526C185.938 224.381 185.938 224.249 185.938 224.123C185.938 222.793 187.4 213.992 190.191 205.223C193.215 195.773 196.232 188.421 197.517 185.428C200.659 179.484 202.228 172.834 202.075 166.112C201.922 159.391 200.051 152.82 196.642 147.025C193.232 141.23 188.397 136.403 182.595 133.004C176.794 129.606 170.22 127.747 163.498 127.607H163.466Z" stroke="#263238" stroke-width="2" stroke-linecap="round" stroke-linejoin="round"/>
<path d="M177.269 133.932C176.129 133.419 174.959 132.973 173.767 132.596" stroke="#263238" stroke-width="3" stroke-linecap="round" stroke-linejoin="round"/>
<path d="M190.399 143.936C190.399 143.936 187.186 138.833 180.123 135.362" stroke="#263238" stroke-width="3" stroke-linecap="round" stroke-linejoin="round"/>
<path d="M159.919 209.708V189.473C159.919 189.473 161.475 179.619 156.353 179.619C151.231 179.619 151.622 184.748 157.531 190.26C163.441 195.773 172.513 190.657 173.697 186.323C174.882 181.988 171.725 180.023 169.754 183.563C167.782 187.104 169.754 227.317 169.754 227.317" stroke="#263238" stroke-width="3" stroke-linecap="round" stroke-linejoin="round"/>
<path d="M148.964 117.369L151.143 124.23" stroke="#263238" stroke-width="3" stroke-linecap="round" stroke-linejoin="round"/>
<path d="M202.375 132.332L195.199 137.945" stroke="#263238" stroke-width="3" stroke-linecap="round" stroke-linejoin="round"/>
<path d="M175.77 112.361L173.067 124.23" stroke="#263238" stroke-width="3" stroke-linecap="round" stroke-linejoin="round"/>
<path d="M184.13 230.523H140.918C140.365 230.523 139.917 230.972 139.917 231.525V232.023C139.917 232.576 140.365 233.025 140.918 233.025H184.13C184.683 233.025 185.132 232.576 185.132 232.023V231.525C185.132 230.972 184.683 230.523 184.13 230.523Z" fill="#263238" stroke="#263238" stroke-linecap="round" stroke-linejoin="round"/>
<path d="M184.13 236.156H140.918C140.365 236.156 139.917 236.604 139.917 237.157V237.655C139.917 238.208 140.365 238.657 140.918 238.657H184.13C184.683 238.657 185.132 238.208 185.132 237.655V237.157C185.132 236.604 184.683 236.156 184.13 236.156Z" fill="#263238" stroke="#263238" stroke-linecap="round" stroke-linejoin="round"/>
<path d="M184.13 241.788H140.918C140.365 241.788 139.917 242.236 139.917 242.79V243.287C139.917 243.84 140.365 244.289 140.918 244.289H184.13C184.683 244.289 185.132 243.84 185.132 243.287V242.79C185.132 242.236 184.683 241.788 184.13 241.788Z" fill="#263238" stroke="#263238" stroke-linecap="round" stroke-linejoin="round"/>
<path d="M163.85 247.288H141.662L148.05 256.108C148.598 256.865 149.317 257.482 150.15 257.907C150.982 258.332 151.903 258.553 152.838 258.552H172.368C173.305 258.551 174.228 258.328 175.061 257.901C175.894 257.474 176.615 256.855 177.162 256.095L183.5 247.319L163.85 247.288Z" fill="#263238" stroke="#263238" stroke-linecap="round" stroke-linejoin="round"/>
<path d="M211.485 153.09C211.485 153.09 207.453 157.5 204.151 159.692C200.85 161.885 198.551 164.802 201.581 166.295C203.402 167.189 205.991 165.929 205.991 165.929C205.991 165.929 201.953 167.026 201.222 170.698C200.491 174.371 208.53 172.885 208.53 172.885C208.53 172.885 202.665 176.917 204.498 178.384C206.331 179.852 209.998 178.75 211.831 178.75C213.664 178.75 222.837 172.885 225.061 172.885C227.285 172.885 231.664 177.654 231.664 181.32C231.664 184.987 237.51 184.621 238.26 173.25C239.009 161.878 236.061 152.347 231.292 149.411C226.523 146.475 211.485 153.09 211.485 153.09Z" fill="white" stroke="#263238" stroke-miterlimit="10" stroke-linecap="round"/>
<path d="M209.286 165.545L223.921 160.077C223.921 160.077 230.347 158.684 234.959 166.282" stroke="#263238" stroke-miterlimit="10" stroke-linecap="round"/>
<path d="M211.85 169.949L225.08 167.75C225.08 167.75 230.952 167.385 234.618 174.353" stroke="#263238" stroke-miterlimit="10" stroke-linecap="round"/>
<path d="M227.991 178.75L218.087 180.955L223.952 204.422C223.952 204.422 229.093 214.691 230.555 219.095C232.016 223.499 247.061 238.14 247.061 238.14L264.663 221.269C264.663 221.269 256.599 211.737 256.234 209.532C255.868 207.327 254.394 181.66 254.394 177.994C254.394 174.327 247.061 165.52 247.061 165.52C247.061 165.52 244.049 161.204 242.581 153.871C241.114 146.538 234.391 143.52 230.712 143.886C227.033 144.251 216.985 145.354 212.953 148.296C208.921 151.238 205.248 154.898 208.921 156.001C215.013 157.828 224.979 149.701 229.786 155.32C231.991 157.884 234.593 169.18 234.958 170.673C234.958 170.673 233.125 177.641 227.991 178.737" fill="white"/>
<path d="M227.991 178.75L218.087 180.955L223.952 204.422C223.952 204.422 229.093 214.691 230.555 219.095C232.016 223.499 247.061 238.14 247.061 238.14L264.663 221.269C264.663 221.269 256.599 211.737 256.234 209.532C255.868 207.327 254.394 181.66 254.394 177.994C254.394 174.327 247.061 165.52 247.061 165.52C247.061 165.52 244.049 161.204 242.581 153.871C241.114 146.538 234.391 143.52 230.712 143.886C227.033 144.251 216.985 145.354 212.953 148.296C208.921 151.238 205.248 154.898 208.921 156.001C215.013 157.828 224.979 149.701 229.786 155.32C231.991 157.884 234.593 169.18 234.958 170.673C234.958 170.673 233.125 177.641 227.991 178.737" stroke="#263238" stroke-miterlimit="10" stroke-linecap="round"/>
<path d="M191.06 144.661C191.172 144.543 191.323 144.469 191.485 144.453C191.647 144.437 191.809 144.479 191.942 144.572L193.441 145.612C193.589 145.716 193.69 145.874 193.722 146.052C193.754 146.231 193.714 146.414 193.612 146.563C193.509 146.711 193.351 146.811 193.174 146.843C192.997 146.875 192.815 146.836 192.667 146.733L191.167 145.687C191.02 145.584 190.919 145.427 190.887 145.25C190.855 145.073 190.895 144.89 190.997 144.742C191.014 144.713 191.036 144.685 191.06 144.661Z" fill="#263238" stroke="#263238" stroke-miterlimit="10" stroke-linecap="round"/>
<path d="M192.78 145.87C193.034 145.598 193.379 145.427 193.749 145.389C194.12 145.351 194.491 145.448 194.796 145.662L199.496 148.081L245.637 178.435C246.03 178.708 246.366 179.057 246.625 179.46C246.884 179.863 247.061 180.313 247.145 180.785C247.23 181.256 247.221 181.74 247.119 182.208C247.017 182.676 246.824 183.119 246.551 183.513C246.277 183.906 245.929 184.242 245.526 184.501C245.123 184.759 244.672 184.936 244.201 185.021C243.729 185.106 243.246 185.097 242.778 184.995C242.31 184.893 241.866 184.7 241.473 184.426L196.692 151.389L193.032 148.239C192.864 148.122 192.721 147.974 192.61 147.802C192.499 147.63 192.424 147.438 192.387 147.236C192.351 147.035 192.355 146.829 192.399 146.629C192.442 146.429 192.525 146.24 192.641 146.072C192.681 146 192.727 145.933 192.78 145.87Z" fill="#92E3A9" stroke="#263238" stroke-miterlimit="10" stroke-linecap="round"/>
<path d="M245.643 178.435L232.325 169.678C231.297 169.976 230.391 170.593 229.738 171.44C229.084 172.287 228.717 173.321 228.69 174.39C228.691 174.601 228.708 174.812 228.74 175.02L241.479 184.42C242.273 184.972 243.255 185.186 244.207 185.015C245.159 184.843 246.005 184.301 246.557 183.506C247.109 182.712 247.323 181.73 247.152 180.778C246.98 179.826 246.438 178.981 245.643 178.428V178.435Z" fill="#263238" stroke="#263238" stroke-miterlimit="10" stroke-linecap="round"/>
<path d="M230.58 219.095C226.548 213.23 221.413 198.192 219.24 195.256C217.066 192.32 211.138 185.806 208.939 179.229C206.741 172.652 205.298 167.385 205.298 161.879C205.298 156.372 210.029 155.427 213.696 161.299C217.363 167.171 221.76 176.186 221.76 176.186C221.76 176.186 224.696 179.852 230.58 178.75" fill="white"/>
<path d="M230.58 219.095C226.548 213.23 221.413 198.192 219.24 195.256C217.066 192.32 211.138 185.806 208.939 179.229C206.741 172.652 205.298 167.385 205.298 161.879C205.298 156.372 210.029 155.427 213.696 161.299C217.363 167.171 221.76 176.186 221.76 176.186C221.76 176.186 224.696 179.852 230.58 178.75" stroke="#263238" stroke-miterlimit="10" stroke-linecap="round"/>
<path d="M209.847 159.585L211.107 162.036C211.107 162.036 210.829 162.036 208.87 163.151C207.701 163.818 206.719 164.769 206.016 165.917C206.016 165.917 204.126 160.637 205.796 158.987C206.201 158.558 206.737 158.277 207.32 158.187C207.834 158.133 208.352 158.238 208.804 158.488C209.256 158.738 209.62 159.121 209.847 159.585Z" fill="white" stroke="#263238" stroke-miterlimit="10" stroke-linecap="round"/>
<path d="M260.82 213.797C260.82 213.797 251.112 216.67 246.072 221.71C242.734 225.111 239.61 228.715 236.716 232.502L245.713 242.934C245.713 242.934 253.273 234.297 258.313 230.334C261.745 227.698 265.351 225.295 269.104 223.14L260.82 213.797Z" fill="white" stroke="#263238" stroke-miterlimit="10" stroke-linecap="round"/>
<path d="M269.835 289.699L241.416 244.012C241.416 244.012 248.611 233.22 254.728 227.827C260.845 222.434 268.758 220.991 268.758 220.991L304.29 255.093" fill="#263238"/>
<path d="M269.835 289.699L241.416 244.012C241.416 244.012 248.611 233.22 254.728 227.827C260.845 222.434 268.758 220.991 268.758 220.991L304.29 255.093" stroke="#263238" stroke-miterlimit="10" stroke-linecap="round"/>
<path d="M215.082 172.929L215.712 172.866" stroke="#263238" stroke-miterlimit="10" stroke-linecap="round"/>
<path d="M209.595 175.978C209.595 175.978 209.929 173.968 213.967 173.124" stroke="#263238" stroke-miterlimit="10" stroke-linecap="round"/>
<path d="M213.98 174.56C213.98 174.56 213.696 175.411 210.867 176.545" stroke="#263238" stroke-miterlimit="10" stroke-linecap="round"/>
<path d="M213.866 171.87C212.451 172.093 211.105 172.638 209.935 173.464" stroke="#263238" stroke-miterlimit="10" stroke-linecap="round"/>
<path d="M125.219 109.211C125.219 109.211 131.166 109.696 134.933 110.949C138.701 112.203 142.405 112.209 141.719 108.921C141.309 106.936 138.726 105.67 138.726 105.67C138.726 105.67 142.071 108.19 145.417 106.508C148.762 104.826 142.651 99.37 142.651 99.37C142.651 99.37 149.442 101.525 149.474 99.1747C149.505 96.8248 146.387 94.6072 145.259 93.1582C144.131 91.7092 133.875 88.0741 132.521 86.3416C131.166 84.6091 132.231 78.202 135.129 75.9466C138.027 73.6912 134.133 69.3001 124.74 75.6883C115.347 82.0765 109.62 90.2602 110.193 95.8483C110.767 101.436 125.219 109.211 125.219 109.211Z" fill="white" stroke="#263238" stroke-miterlimit="10" stroke-linecap="round"/>
<path d="M136.414 103.32L123.108 95.1299C123.108 95.1299 118.068 90.9152 121.218 82.6118" stroke="#263238" stroke-miterlimit="10" stroke-linecap="round"/>
<path d="M138.31 98.5635L128.47 89.4915C128.47 89.4915 124.576 85.0815 127.84 77.9121" stroke="#263238" stroke-miterlimit="10" stroke-linecap="round"/>
<path d="M135.356 80.4195L143.168 86.8896L158.13 67.8447C158.13 67.8447 167.769 63.5166 170.308 59.6547C172.847 55.7928 175.008 34.8768 175.008 34.8768L150.822 31.5C150.822 31.5 148.359 43.7472 146.859 45.4041C145.36 47.061 121.458 57.771 118.566 60.0264C115.674 62.2818 113.224 73.4706 113.224 73.4706C111.934 78.0196 110.248 82.4466 108.184 86.7006C102.671 97.8642 103.654 97.0074 106.193 99.6786C108.732 102.35 114.912 107.78 119.706 109.166C124.501 110.552 130.46 115.504 129.125 109.45C127.751 103.244 114.295 100.63 115.775 93.3975C116.449 90.0837 123.789 81.081 124.721 79.8903C124.721 79.8903 131.342 77.0616 135.368 80.4384" fill="white"/>
<path d="M135.356 80.4195L143.168 86.8896L158.13 67.8447C158.13 67.8447 167.769 63.5166 170.308 59.6547C172.847 55.7928 175.008 34.8768 175.008 34.8768L150.822 31.5C150.822 31.5 148.359 43.7472 146.859 45.4041C145.36 47.061 121.458 57.771 118.566 60.0264C115.674 62.2818 113.224 73.4706 113.224 73.4706C111.934 78.0196 110.248 82.4466 108.184 86.7006C102.671 97.8642 103.654 97.0074 106.193 99.6786C108.732 102.35 114.912 107.78 119.706 109.166C124.501 110.552 130.46 115.504 129.125 109.45C127.751 103.244 114.295 100.63 115.775 93.3975C116.449 90.0837 123.789 81.081 124.721 79.8903C124.721 79.8903 131.342 77.0616 135.368 80.4384" stroke="#263238" stroke-miterlimit="10" stroke-linecap="round"/>
<path d="M131.116 130.505C130.952 130.493 130.799 130.423 130.683 130.307C130.567 130.191 130.497 130.038 130.486 129.875L130.391 128.048C130.379 127.955 130.385 127.86 130.411 127.77C130.437 127.68 130.481 127.596 130.541 127.523C130.601 127.451 130.675 127.392 130.758 127.349C130.842 127.307 130.934 127.282 131.027 127.277C131.121 127.272 131.215 127.286 131.303 127.319C131.391 127.352 131.471 127.402 131.539 127.468C131.606 127.533 131.659 127.611 131.695 127.698C131.73 127.785 131.748 127.878 131.746 127.972L131.846 129.799C131.857 129.977 131.797 130.153 131.679 130.287C131.561 130.422 131.395 130.504 131.216 130.517L131.116 130.505Z" fill="#263238" stroke="#263238" stroke-miterlimit="10" stroke-linecap="round"/>
<path d="M131.04 128.394C130.669 128.361 130.322 128.195 130.064 127.926C129.806 127.658 129.653 127.305 129.635 126.933L128.665 121.735L124.299 66.6793C124.247 65.7127 124.582 64.7651 125.228 64.045C125.875 63.3249 126.782 62.8913 127.748 62.8395C128.715 62.7877 129.662 63.122 130.383 63.7688C131.103 64.4157 131.536 65.3221 131.588 66.2887L132.999 121.924L132.735 126.769C132.746 126.972 132.717 127.176 132.649 127.368C132.581 127.561 132.476 127.738 132.339 127.889C132.203 128.041 132.038 128.164 131.854 128.252C131.67 128.339 131.47 128.39 131.267 128.4C131.191 128.405 131.115 128.402 131.04 128.394Z" fill="#92E3A9" stroke="#263238" stroke-miterlimit="10" stroke-linecap="round"/>
<path d="M124.268 66.6793L125.528 82.5679C126.391 83.2001 127.434 83.5409 128.504 83.5409C129.575 83.5409 130.617 83.2001 131.481 82.5679C131.649 82.4367 131.807 82.2935 131.954 82.1395L131.557 66.3139C131.505 65.3473 131.071 64.4408 130.351 63.794C129.631 63.1471 128.683 62.8128 127.717 62.8646C126.75 62.9164 125.844 63.3501 125.197 64.0702C124.55 64.7903 124.216 65.7379 124.268 66.7045V66.6793Z" fill="#263238" stroke="#263238" stroke-miterlimit="10" stroke-linecap="round"/>
<path d="M170.276 59.6294C168.21 66.4397 159.088 75.8015 157.5 79.1027C153.94 86.5823 149.821 93.7827 145.177 100.642C143.608 102.992 141.914 103.326 140.881 104.17C139.369 105.43 138.594 106.722 136.011 108.725C131.67 112.102 128.016 108.958 130.397 102.463C132.779 95.9678 137.151 86.9399 137.151 86.9399C137.151 86.9399 138.247 82.3724 133.78 78.416" fill="white"/>
<path d="M170.276 59.6294C168.21 66.4397 159.088 75.8015 157.5 79.1027C153.94 86.5823 149.821 93.7827 145.177 100.642C143.608 102.992 141.914 103.326 140.881 104.17C139.369 105.43 138.594 106.722 136.011 108.725C131.67 112.102 128.016 108.958 130.397 102.463C132.779 95.9678 137.151 86.9399 137.151 86.9399C137.151 86.9399 138.247 82.3724 133.78 78.416" stroke="#263238" stroke-miterlimit="10" stroke-linecap="round"/>
<path d="M131.355 106.508L132.539 104.038C132.539 104.038 132.71 104.259 134.795 105.116C136.037 105.629 137.39 105.82 138.726 105.67C138.726 105.67 135.721 110.408 133.371 110.112C132.785 110.056 132.235 109.805 131.809 109.4C131.441 109.025 131.2 108.545 131.119 108.026C131.038 107.508 131.12 106.977 131.355 106.508Z" fill="white" stroke="#263238" stroke-miterlimit="10" stroke-linecap="round"/>
<path d="M148.781 11.7621L143.772 44.289C143.772 44.289 149.814 49.5999 157.84 51.03C165.866 52.4601 180.52 54.6273 180.52 54.6273L193.347 11.7495" fill="#263238"/>
<path d="M148.781 11.7621L143.772 44.289C143.772 44.289 149.814 49.5999 157.84 51.03C165.866 52.4601 180.52 54.6273 180.52 54.6273L193.347 11.7495" stroke="#263238" stroke-miterlimit="10" stroke-linecap="round"/>
<path d="M177.937 47.357C177.937 47.8467 177.792 48.3254 177.52 48.7325C177.248 49.1397 176.861 49.457 176.409 49.6444C175.956 49.8318 175.459 49.8809 174.978 49.7853C174.498 49.6898 174.057 49.454 173.711 49.1077C173.364 48.7615 173.129 48.3203 173.033 47.84C172.938 47.3598 172.987 46.8619 173.174 46.4095C173.361 45.9571 173.679 45.5704 174.086 45.2984C174.493 45.0263 174.972 44.8811 175.461 44.8811C176.118 44.8811 176.748 45.142 177.212 45.6063C177.676 46.0706 177.937 46.7004 177.937 47.357Z" fill="white" stroke="#263238" stroke-width="2" stroke-linecap="round" stroke-linejoin="round"/>
<path d="M136.842 98.4753L136.42 98.0469" stroke="#263238" stroke-miterlimit="10" stroke-linecap="round"/>
<path d="M142.613 100.939C142.613 100.939 140.824 101.909 137.68 99.2439" stroke="#263238" stroke-miterlimit="10" stroke-linecap="round"/>
<path d="M138.802 98.3431C138.802 98.3431 139.646 98.047 142.279 99.6031" stroke="#263238" stroke-miterlimit="10" stroke-linecap="round"/>
<path d="M136.754 100.094C137.798 101.071 139.053 101.796 140.421 102.211" stroke="#263238" stroke-miterlimit="10" stroke-linecap="round"/>
<path d="M138.562 206.117C138.562 206.117 139.135 212.058 140.452 215.807C141.769 219.555 141.844 223.26 138.524 222.623C136.534 222.239 135.229 219.681 135.229 219.681C135.229 219.681 137.793 222.989 136.168 226.353C134.543 229.717 128.986 223.694 128.986 223.694C128.986 223.694 131.242 230.448 128.898 230.517C126.554 230.586 124.28 227.499 122.818 226.397C121.357 225.294 117.564 215.057 115.806 213.759C114.049 212.461 107.667 213.589 105.462 216.519C103.257 219.448 98.7839 215.624 105.046 206.105C111.308 196.585 119.391 190.733 124.96 191.262C130.53 191.791 138.562 206.117 138.562 206.117Z" fill="white" stroke="#263238" stroke-miterlimit="10" stroke-linecap="round"/>
<path d="M132.81 217.4L124.419 204.215C124.419 204.215 120.128 199.231 111.869 202.526" stroke="#263238" stroke-miterlimit="10" stroke-linecap="round"/>
<path d="M128.11 219.366L118.894 209.658C118.894 209.658 114.427 205.834 107.308 209.192" stroke="#263238" stroke-miterlimit="10" stroke-linecap="round"/>
<path d="M109.929 216.676L116.506 224.4L97.6877 239.608C97.6877 239.608 87.4061 244.711 83.5883 247.344C79.7705 249.978 58.9238 252.63 58.9238 252.63L55.0304 228.564C55.0304 228.564 67.2146 225.811 68.8274 224.274C70.4402 222.737 87.0974 203.125 89.2835 200.195C91.4696 197.266 102.652 194.651 102.652 194.651C102.652 194.651 107.654 193.02 113.242 188.049C118.831 183.078 126.019 184.722 128.728 187.224C131.437 189.725 138.808 196.674 140.263 201.424C141.718 206.174 142.437 211.334 138.846 210.004C132.88 207.793 129.811 195.313 122.592 196.894C119.29 197.619 110.395 205.084 109.223 206.042C109.223 206.042 106.489 212.707 109.929 216.676Z" fill="white"/>
<path d="M109.929 216.676L116.506 224.4L97.6877 239.608C97.6877 239.608 87.4061 244.711 83.5883 247.344C79.7705 249.978 58.9238 252.63 58.9238 252.63L55.0304 228.564C55.0304 228.564 67.2146 225.811 68.8274 224.274C70.4402 222.737 87.0974 203.125 89.2835 200.195C91.4696 197.266 102.652 194.651 102.652 194.651C102.652 194.651 107.654 193.02 113.242 188.049C118.831 183.078 126.019 184.722 128.728 187.224C131.437 189.725 138.808 196.674 140.263 201.424C141.718 206.174 142.437 211.334 138.846 210.004C132.88 207.793 129.811 195.313 122.592 196.894C119.29 197.619 110.395 205.084 109.223 206.042C109.223 206.042 106.489 212.707 109.929 216.676" stroke="#263238" stroke-miterlimit="10" stroke-linecap="round"/>
<path d="M159.938 211.68C159.926 211.517 159.856 211.363 159.741 211.248C159.625 211.132 159.471 211.062 159.308 211.05L157.481 210.981C157.392 210.978 157.303 210.992 157.219 211.023C157.135 211.054 157.058 211.102 156.993 211.162C156.927 211.223 156.874 211.296 156.837 211.378C156.8 211.459 156.779 211.547 156.775 211.636C156.772 211.725 156.786 211.815 156.818 211.898C156.849 211.982 156.896 212.059 156.957 212.125C157.018 212.19 157.091 212.243 157.172 212.28C157.254 212.318 157.341 212.338 157.431 212.342L159.258 212.411C159.434 212.416 159.605 212.354 159.736 212.237C159.868 212.12 159.949 211.956 159.963 211.781C159.959 211.747 159.95 211.713 159.938 211.68Z" fill="#263238" stroke="#263238" stroke-miterlimit="10" stroke-linecap="round"/>
<path d="M157.834 211.623C157.793 211.253 157.621 210.909 157.348 210.654C157.075 210.4 156.72 210.252 156.347 210.237L151.137 209.343L96.0245 205.796C95.5455 205.777 95.0675 205.853 94.6178 206.019C94.1681 206.186 93.7556 206.439 93.4037 206.764C93.0518 207.09 92.7675 207.481 92.567 207.917C92.3665 208.352 92.2537 208.823 92.2351 209.302C92.2164 209.781 92.2924 210.259 92.4585 210.709C92.6246 211.158 92.8777 211.571 93.2032 211.923C93.5288 212.275 93.9204 212.559 94.3559 212.759C94.7913 212.96 95.262 213.073 95.741 213.091L151.389 213.671L156.227 213.343C156.639 213.359 157.04 213.21 157.342 212.93C157.645 212.65 157.824 212.262 157.84 211.85C157.844 211.775 157.842 211.699 157.834 211.623Z" fill="#92E3A9" stroke="#263238" stroke-miterlimit="10" stroke-linecap="round"/>
<path d="M96.0245 205.796L111.926 206.823C112.568 207.679 112.921 208.718 112.933 209.788C112.946 210.859 112.617 211.905 111.995 212.776C111.863 212.943 111.722 213.103 111.573 213.255L95.7599 213.091C95.2809 213.073 94.8102 212.96 94.3748 212.759C93.9394 212.559 93.5477 212.275 93.2221 211.923C92.8966 211.571 92.6435 211.158 92.4774 210.709C92.3113 210.259 92.2354 209.781 92.254 209.302C92.2726 208.823 92.3854 208.352 92.5859 207.917C92.7864 207.481 93.0707 207.09 93.4226 206.764C93.7745 206.439 94.187 206.186 94.6367 206.019C95.0864 205.853 95.5644 205.777 96.0434 205.796H96.0245Z" fill="#263238" stroke="#263238" stroke-miterlimit="10" stroke-linecap="round"/>
<path d="M83.5884 247.344C90.342 245.089 103.496 236.175 107.018 235.154C110.54 234.133 119.158 232.508 124.891 228.564C130.624 224.62 134.927 221.294 138.241 216.897C141.555 212.499 138.354 208.902 131.89 211.378C125.427 213.854 116.449 218.383 116.449 218.383C116.449 218.383 111.901 219.543 107.875 215.133" fill="white"/>
<path d="M83.5884 247.344C90.342 245.089 103.496 236.175 107.018 235.154C110.54 234.133 119.158 232.508 124.891 228.564C130.624 224.62 134.927 221.294 138.241 216.897C141.555 212.499 138.354 208.902 131.89 211.378C125.427 213.854 116.449 218.383 116.449 218.383C116.449 218.383 111.901 219.543 107.875 215.133" stroke="#263238" stroke-miterlimit="10" stroke-linecap="round"/>
<path d="M135.954 212.31L133.497 213.526C133.497 213.526 133.724 213.696 134.612 215.762C135.151 216.999 135.367 218.351 135.242 219.694C135.242 219.694 139.936 216.619 139.602 214.269C139.537 213.684 139.28 213.137 138.871 212.713C138.488 212.349 138.001 212.114 137.477 212.041C136.954 211.969 136.421 212.063 135.954 212.31Z" fill="white" stroke="#263238" stroke-miterlimit="10" stroke-linecap="round"/>
<path d="M67.5234 223.379C67.5234 223.379 73.5462 231.525 74.5353 238.581C75.1525 243.305 75.4766 248.062 75.5055 252.825L57.1158 257.235C57.1158 257.235 56.2842 245.795 54.6462 239.595C53.4928 235.424 52.0616 231.335 50.3622 227.354L67.5234 223.379Z" fill="white" stroke="#263238" stroke-miterlimit="10" stroke-linecap="round"/>
<path d="M68.3612 237.592C66.7232 229.604 61.2737 223.688 61.2737 223.688L17.7596 230.618V279.758L69.2432 258.521C69.2432 258.521 69.9929 245.58 68.3612 237.592Z" fill="#263238" stroke="#263238" stroke-miterlimit="10" stroke-linecap="round"/>
<path d="M56.7 258.93C56.7074 259.315 56.5998 259.692 56.3909 260.015C56.1819 260.338 55.8813 260.591 55.5275 260.741C55.1738 260.892 54.7831 260.933 54.4056 260.86C54.0282 260.787 53.6812 260.603 53.4094 260.331C53.1375 260.059 52.9531 259.712 52.88 259.334C52.8068 258.957 52.8481 258.566 52.9987 258.213C53.1493 257.859 53.4022 257.558 53.725 257.349C54.0477 257.14 54.4256 257.033 54.81 257.04C55.3082 257.05 55.7833 257.252 56.1357 257.604C56.4881 257.957 56.6903 258.432 56.7 258.93Z" fill="white"/>
<path d="M62.1054 256.637C62.1041 257.018 61.99 257.39 61.7774 257.706C61.5648 258.022 61.2633 258.269 60.9109 258.414C60.5586 258.558 60.1711 258.596 59.7976 258.521C59.4241 258.446 59.0812 258.261 58.8122 257.992C58.5432 257.722 58.3602 257.378 58.2863 257.004C58.2125 256.631 58.251 256.243 58.3971 255.891C58.5432 255.54 58.7903 255.239 59.1072 255.027C59.4241 254.816 59.7965 254.703 60.1775 254.703C60.4312 254.703 60.6824 254.753 60.9167 254.85C61.151 254.948 61.3638 255.09 61.5429 255.27C61.722 255.449 61.8639 255.663 61.9604 255.897C62.0569 256.132 62.1062 256.383 62.1054 256.637Z" fill="white"/>
<path d="M123.732 219.801L123.304 219.385" stroke="#263238" stroke-miterlimit="10" stroke-linecap="round"/>
<path d="M126.283 225.54C126.283 225.54 127.228 223.732 124.513 220.626" stroke="#263238" stroke-miterlimit="10" stroke-linecap="round"/>
<path d="M123.637 221.76C123.637 221.76 123.348 222.611 124.929 225.219" stroke="#263238" stroke-miterlimit="10" stroke-linecap="round"/>
<path d="M125.37 219.688C126.365 220.718 127.109 221.964 127.543 223.329" stroke="#263238" stroke-miterlimit="10" stroke-linecap="round"/>
</svg>
