<svg width="24" height="24" viewBox="0 0 24 24" fill="none" xmlns="http://www.w3.org/2000/svg">
<g clip-path="url(#clip0_80_188)">
<path d="M11.2594 0.0983925C11.1516 0.154642 10.9875 0.281204 10.9031 0.384329C10.7016 0.618704 8.46563 3.96558 7.59844 5.33433C4.42969 10.3359 3.00469 13.4671 3 15.4546C3 16.6734 3.34219 18.1218 3.88594 19.2093C5.65313 22.725 9.49688 24.6 13.3266 23.8125C15.8813 23.2828 18.075 21.5859 19.2703 19.2093C19.9781 17.8031 20.3109 15.9046 20.0813 14.5734C19.7391 12.5812 18.3141 9.66089 15.5953 5.39058C14.5828 3.80152 12.3891 0.520267 12.2156 0.337454C12.0375 0.145267 11.7656 -4.57764e-05 11.5922 -4.57764e-05C11.5219 -4.57764e-05 11.3719 0.0468292 11.2594 0.0983925ZM18.1453 14.7703C18.5625 14.8968 18.8391 15.2859 18.8438 15.75C18.8438 16.8703 18.2953 18.4734 17.5125 19.6125C16.8375 20.6015 15.4125 21.7875 14.8078 21.8718C14.1609 21.9609 13.5891 21.3843 13.65 20.714C13.6875 20.3625 13.8516 20.1562 14.4188 19.7765C15.7875 18.8578 16.5891 17.5453 16.7813 15.8953C16.8094 15.6515 16.8609 15.3843 16.8984 15.3046C17.1234 14.8406 17.6344 14.6203 18.1453 14.7703Z" fill="#0A7BE0"/>
</g>
<defs>
<clipPath id="clip0_80_188">
<rect width="24" height="24" fill="white"/>
</clipPath>
</defs>
</svg>
