<svg width="30" height="30" viewBox="0 0 30 30" fill="none" xmlns="http://www.w3.org/2000/svg">
<path fill-rule="evenodd" clip-rule="evenodd" d="M6.97886 11.1705C5.27575 9.50627 4.22318 7.26907 4.0155 4.87509C1.52402 7.60312 0 11.2604 0 15.2804C0 22.2801 4.62012 28.18 10.923 29.9891C19.9524 30.3855 27.1112 19.831 19.2468 14.7618C18.041 18.9716 14.7793 22.2396 10.6355 23.402C9.52411 21.4695 9.02492 19.2349 9.2072 17.0026C7.47381 16.8062 5.80181 16.2381 4.29896 15.3363C4.76554 13.7072 5.6983 12.2563 6.97886 11.1705Z" fill="#1EA339"/>
<path fill-rule="evenodd" clip-rule="evenodd" d="M11.2094 15.5375C10.1977 17.5241 10.2616 19.9013 11.3779 21.8292C14.3481 21.0378 16.5944 18.5588 17.1317 15.4799C15.2023 16.0671 13.1488 16.0868 11.2094 15.5375Z" fill="#1EA339"/>
<path fill-rule="evenodd" clip-rule="evenodd" d="M5.80811 14.8048C6.89878 15.3994 8.09022 15.7798 9.31913 15.9252C9.41926 15.3591 9.61487 14.8145 9.89749 14.3164C9.02 13.8249 8.25937 13.1437 7.66958 12.3196C6.87189 12.9938 6.23574 13.8437 5.80811 14.8048Z" fill="#1EA339"/>
<path fill-rule="evenodd" clip-rule="evenodd" d="M14.0629 5.53328C16.8061 7.06896 18.6828 9.82546 19.134 12.9805C23.0995 14.412 24.6489 17.5595 24.4093 20.79C24.4086 20.7934 24.4082 20.7969 24.4078 20.8005C24.3792 21.1859 24.3246 21.5724 24.2456 21.9573C23.7185 24.8667 22.3393 27.5098 20.3377 29.5652C25.9864 27.3731 30 21.8046 30 15.2804C30 6.84166 23.2843 2.28882e-05 15.0001 2.28882e-05C10.6624 2.28882e-05 6.75404 1.87621 4.0155 4.8751C4.22318 7.26909 5.27574 9.50629 6.97886 11.1705C5.90618 9.34843 5.28632 7.28742 5.17349 5.16559C8.02951 3.86174 11.3204 3.99825 14.0629 5.53328Z" fill="#32C24F"/>
<path fill-rule="evenodd" clip-rule="evenodd" d="M17.2163 12.6067C16.7963 10.5485 15.5553 8.75985 13.7904 7.67037C12.025 6.58066 9.89491 6.28759 7.90918 6.86101C7.93607 9.1159 9.10317 11.1974 10.9966 12.3662C12.8898 13.5351 15.2409 13.6261 17.2163 12.6067Z" fill="#32C24F"/>
</svg>
