<svg width="16" height="16" viewBox="0 0 16 16" fill="none" xmlns="http://www.w3.org/2000/svg">
<path d="M15.414 0.585939C15.0389 0.210997 14.5303 0.000366211 14 0.000366211C13.4697 0.000366211 12.9611 0.210997 12.586 0.585939L5 8.17194V10.9999H7.828L15.414 3.41394C15.7889 3.03888 15.9996 2.53027 15.9996 1.99994C15.9996 1.46961 15.7889 0.960995 15.414 0.585939Z" fill="#1F8734"/>
<path fill-rule="evenodd" clip-rule="evenodd" d="M0 4C0 3.46957 0.210714 2.96086 0.585786 2.58579C0.960859 2.21071 1.46957 2 2 2H6C6.26522 2 6.51957 2.10536 6.70711 2.29289C6.89464 2.48043 7 2.73478 7 3C7 3.26522 6.89464 3.51957 6.70711 3.70711C6.51957 3.89464 6.26522 4 6 4H2V14H12V10C12 9.73478 12.1054 9.48043 12.2929 9.29289C12.4804 9.10536 12.7348 9 13 9C13.2652 9 13.5196 9.10536 13.7071 9.29289C13.8946 9.48043 14 9.73478 14 10V14C14 14.5304 13.7893 15.0391 13.4142 15.4142C13.0391 15.7893 12.5304 16 12 16H2C1.46957 16 0.960859 15.7893 0.585786 15.4142C0.210714 15.0391 0 14.5304 0 14V4Z" fill="#1F8734"/>
</svg>
