<svg width="24" height="24" viewBox="0 0 24 24" fill="none" xmlns="http://www.w3.org/2000/svg">
<path d="M11.6813 0.0985146C11.5734 0.154764 11.4094 0.281326 11.325 0.384451C11.1234 0.618826 8.8875 3.9657 8.02031 5.33445C4.85156 10.336 3.42656 13.4673 3.42188 15.4548C3.42188 16.6735 3.76406 18.122 4.30781 19.2095C6.075 22.7251 9.91875 24.6001 13.7484 23.8126C16.3031 23.2829 18.4969 21.586 19.6922 19.2095C20.4 17.8032 20.7328 15.9048 20.5031 14.5735C20.1609 12.5813 18.7359 9.66101 16.0172 5.3907C15.0047 3.80164 12.8109 0.52039 12.6375 0.337576C12.4594 0.14539 12.1875 7.62939e-05 12.0141 7.62939e-05C11.9438 7.62939e-05 11.7938 0.0469513 11.6813 0.0985146ZM18.5672 14.7704C18.9844 14.897 19.2609 15.286 19.2656 15.7501C19.2656 16.8704 18.7172 18.4735 17.9344 19.6126C17.2594 20.6016 15.8344 21.7876 15.2297 21.872C14.5828 21.961 14.0109 21.3845 14.0719 20.7141C14.1094 20.3626 14.2734 20.1563 14.8406 19.7766C16.2094 18.8579 17.0109 17.5454 17.2031 15.8954C17.2313 15.6516 17.2828 15.3845 17.3203 15.3048C17.5453 14.8407 18.0563 14.6204 18.5672 14.7704Z" fill="#FFC061"/>
<path d="M10.4318 15.6172C10.2315 15.6172 10.0481 15.5791 9.88153 15.5029C9.71683 15.4248 9.57833 15.3057 9.46603 15.1455H9.43234C9.4548 15.333 9.46603 15.5107 9.46603 15.6787V17H9V12.3477H9.379L9.44357 12.7871H9.46603C9.58582 12.6113 9.72525 12.4844 9.88434 12.4062C10.0434 12.3281 10.2259 12.2891 10.4318 12.2891C10.8398 12.2891 11.1542 12.4346 11.3751 12.7256C11.5978 13.0166 11.7092 13.4248 11.7092 13.9502C11.7092 14.4775 11.5959 14.8877 11.3695 15.1807C11.1449 15.4717 10.8323 15.6172 10.4318 15.6172ZM10.3644 12.7021C10.05 12.7021 9.82258 12.793 9.68221 12.9746C9.54183 13.1562 9.46978 13.4453 9.46603 13.8418V13.9502C9.46603 14.4014 9.53809 14.7246 9.68221 14.9199C9.82632 15.1133 10.0575 15.21 10.3756 15.21C10.6414 15.21 10.8492 15.0977 10.9989 14.873C11.1505 14.6484 11.2263 14.3389 11.2263 13.9443C11.2263 13.5439 11.1505 13.2373 10.9989 13.0244C10.8492 12.8096 10.6377 12.7021 10.3644 12.7021Z" fill="white"/>
<path d="M14.534 15.5586V13.4814C14.534 13.2197 14.4769 13.0244 14.3627 12.8955C14.2485 12.7666 14.0698 12.7021 13.8265 12.7021C13.5027 12.7021 13.2659 12.7939 13.1162 12.9775C12.9684 13.1611 12.8944 13.4619 12.8944 13.8799V15.5586H12.4284V11H12.8944V12.3799C12.8944 12.5459 12.8869 12.6836 12.872 12.793H12.9C12.9917 12.6387 13.1218 12.5176 13.2903 12.4297C13.4606 12.3398 13.6543 12.2949 13.8714 12.2949C14.2476 12.2949 14.5293 12.3887 14.7164 12.5762C14.9055 12.7617 15 13.0576 15 13.4639V15.5586H14.534Z" fill="white"/>
</svg>
