<svg width="20" height="20" viewBox="0 0 20 20" fill="none" xmlns="http://www.w3.org/2000/svg">
<path d="M11.8117 7.24243C11.8117 7.79471 12.2594 8.24242 12.8117 8.24242H19C19.5523 8.24242 20 8.69014 20 9.24242V10.8384C20 11.3907 19.5523 11.8384 19 11.8384H12.8117C12.2594 11.8384 11.8117 12.2861 11.8117 12.8384V19C11.8117 19.5523 11.364 20 10.8117 20H9.16786C8.61558 20 8.16786 19.5523 8.16786 19V12.8384C8.16786 12.2861 7.72015 11.8384 7.16786 11.8384H1C0.447715 11.8384 0 11.3907 0 10.8384V9.24242C0 8.69014 0.447715 8.24242 1 8.24242H7.16786C7.72015 8.24242 8.16786 7.79471 8.16786 7.24242V0.999999C8.16786 0.447714 8.61558 0 9.16786 0H10.8117C11.364 0 11.8117 0.447715 11.8117 1V7.24243Z" fill="#1F8734"/>
</svg>
