<svg width="25" height="23" viewBox="0 0 25 23" fill="none" xmlns="http://www.w3.org/2000/svg">
<g clip-path="url(#clip0_129_301)">
<path d="M9.60999 16.4139V20.6741C9.60999 20.9717 9.8168 21.2353 10.123 21.329C10.1996 21.3519 10.2781 21.363 10.3557 21.363C10.5884 21.363 10.8131 21.2619 10.9562 21.0819L13.6537 17.6907L9.60999 16.4139Z" fill="#1F8734"/>
<path d="M24.4587 0.363474C24.23 0.213755 23.9297 0.193547 23.6812 0.313874L1.30968 11.1066C1.0452 11.2342 0.889094 11.4951 0.910968 11.7697C0.933837 12.0453 1.1317 12.2804 1.41308 12.3695L7.63235 14.3333L20.8773 3.87133L10.6281 15.2785L21.0513 18.5696C21.1288 18.5935 21.2104 18.6063 21.2919 18.6063C21.4271 18.6063 21.5613 18.5723 21.6797 18.5062C21.8686 18.3997 21.9968 18.2206 22.0296 18.0194L24.7639 1.02665C24.8047 0.769463 24.6874 0.514113 24.4587 0.363474Z" fill="#1F8734"/>
</g>
<defs>
<clipPath id="clip0_129_301">
<rect width="23.8629" height="22.0446" fill="white" transform="translate(0.909424 0.236572)"/>
</clipPath>
</defs>
</svg>
