<svg width="19" height="19" viewBox="0 0 19 19" fill="none" xmlns="http://www.w3.org/2000/svg">
<g clip-path="url(#clip0_80_639)">
<path d="M6.06655 12.0963H15.9702C16.2155 12.0963 16.4306 11.9341 16.497 11.6986L18.6898 4.0241C18.7369 3.85865 18.7046 3.68093 18.6009 3.54346C18.4969 3.40642 18.3353 3.32548 18.1629 3.32548H4.80106L4.40921 1.56221C4.35353 1.31111 4.13084 1.13281 3.87389 1.13281H0.548349C0.24543 1.13281 0.000183105 1.37806 0.000183105 1.68098C0.000183105 1.98404 0.24543 2.22914 0.548349 2.22914H3.43393L5.41346 11.1368C4.83104 11.3901 4.42205 11.9698 4.42205 12.6444C4.42205 13.5512 5.15979 14.2889 6.06655 14.2889H15.9702C16.2733 14.2889 16.5184 14.0438 16.5184 13.7408C16.5184 13.4379 16.2733 13.1926 15.9702 13.1926H6.06655C5.76463 13.1926 5.51839 12.9469 5.51839 12.6444C5.51839 12.3419 5.76463 12.0963 6.06655 12.0963Z" fill="white"/>
<path d="M5.51758 15.9333C5.51758 16.8402 6.25532 17.5778 7.16222 17.5778C8.06898 17.5778 8.80672 16.8402 8.80672 15.9333C8.80672 15.0266 8.06898 14.2888 7.16222 14.2888C6.25532 14.2888 5.51758 15.0266 5.51758 15.9333Z" fill="white"/>
<path d="M13.2291 15.9333C13.2291 16.8402 13.9668 17.5778 14.8736 17.5778C15.7805 17.5778 16.5181 16.8402 16.5181 15.9333C16.5181 15.0266 15.7805 14.2888 14.8736 14.2888C13.9668 14.2888 13.2291 15.0266 13.2291 15.9333Z" fill="white"/>
</g>
<defs>
<clipPath id="clip0_80_639">
<rect width="18.7107" height="18.7107" fill="white"/>
</clipPath>
</defs>
</svg>
