<svg width="24" height="19" viewBox="0 0 24 19" fill="none" xmlns="http://www.w3.org/2000/svg">
<path d="M8.23923 0.0279579C7.06266 0.187333 6.07829 0.721708 5.23923 1.65452L5.06579 1.84671L4.77048 1.71077C4.02048 1.35921 3.08766 1.45765 2.3986 1.9639C2.04704 2.2264 1.85954 2.4514 1.65798 2.8639C1.44235 3.30921 1.40954 3.56702 1.54548 3.73577C1.60173 3.81077 1.67204 3.86702 1.70954 3.86702C1.74704 3.86702 1.78454 3.95608 1.80329 4.11077C1.82204 4.24671 1.85485 4.4014 1.8736 4.45296C1.89704 4.51858 1.8736 4.58421 1.7986 4.67796C1.73766 4.75296 1.6861 4.84202 1.6861 4.88421C1.6861 5.00608 1.83141 5.2639 2.01891 5.47952L2.20173 5.68577L1.96735 6.12171C1.68141 6.67015 1.50798 7.25608 1.44235 7.92171C1.40016 8.29671 1.36735 8.4514 1.31579 8.47952C1.09079 8.61546 0.729852 9.02327 0.598602 9.29515C0.467352 9.55765 0.443914 9.66077 0.429852 10.0264C0.420477 10.2936 0.439227 10.5326 0.476727 10.6639C0.537664 10.8655 0.537664 10.8748 0.387664 11.0998C0.186102 11.3998 0.125164 11.6483 0.148602 12.0561C0.176727 12.4873 0.345477 12.8342 0.659539 13.1201C1.09079 13.5092 0.523602 13.4811 7.92516 13.467L14.5064 13.453L14.858 13.3451C15.3033 13.2092 15.983 12.8811 16.2877 12.6608C16.8455 12.2576 17.4736 11.5217 17.783 10.9123C18.1814 10.1201 18.2892 9.60921 18.322 8.3764L18.3502 7.37796L20.572 6.37483C21.7955 5.82171 22.883 5.31546 22.9908 5.24983C23.0986 5.1889 23.2955 5.02015 23.4267 4.87952C24.2002 4.0264 24.1767 2.77483 23.3705 1.9639C22.8033 1.4014 21.9502 1.19515 21.233 1.44358C21.0642 1.50452 19.9627 1.99202 18.7814 2.5264C17.5955 3.06546 16.6158 3.48265 16.597 3.4639C16.5783 3.44046 16.5127 3.29515 16.4564 3.14515C16.0064 1.92171 14.5767 1.22796 13.3111 1.61233C13.1189 1.67327 12.9033 1.74827 12.833 1.78577C12.7064 1.8514 12.697 1.84671 12.5283 1.65921C11.7736 0.824833 10.9111 0.309208 9.88923 0.0888958C9.49079 0.00452042 8.63298 -0.0282917 8.23923 0.0279579ZM22.3111 2.14202C22.4002 2.17015 22.5642 2.25452 22.672 2.33421C23.3658 2.8264 23.4502 3.81546 22.8549 4.40608C22.6345 4.62171 22.4564 4.71546 20.5252 5.59202C19.372 6.11233 18.4205 6.5389 18.4064 6.5389C18.397 6.5389 18.3736 6.14515 18.3595 5.65765C18.3314 4.64515 18.2705 4.4014 17.9424 4.03577C17.8392 3.9139 17.7642 3.80608 17.7736 3.79671C17.7924 3.77327 19.9955 2.77015 20.9752 2.33421C21.6314 2.04358 21.8658 2.01077 22.3111 2.14202ZM17.122 4.30765C17.3142 4.38733 17.5111 4.61702 17.5814 4.84202C17.6142 4.9639 17.6236 5.65765 17.6095 7.12483C17.5861 9.44983 17.5767 9.52952 17.2767 10.2701C16.7939 11.4561 15.8517 12.2998 14.6236 12.6467C14.272 12.7498 14.2439 12.7498 7.94391 12.7639C4.46579 12.7733 1.55016 12.7639 1.46579 12.7498C0.851727 12.6373 0.654852 11.6951 1.17048 11.3155C1.2361 11.2639 3.15329 10.3826 5.4361 9.3514C7.93923 8.22171 9.61735 7.4389 9.66891 7.37796C9.7111 7.32171 9.7486 7.21858 9.7486 7.1389C9.7486 7.01702 9.78141 6.9889 10.0392 6.86702L10.3299 6.7264L10.4377 6.82952C10.4986 6.88577 10.6017 6.92796 10.6767 6.92796C10.747 6.92796 12.008 6.38421 13.4752 5.71858C17.1361 4.05921 16.8267 4.18108 17.122 4.30765Z" fill="#884D00"/>
<path d="M0.77205 13.8936C0.275175 14.0155 0.00798764 14.3577 0.204863 14.6249C0.251738 14.6905 0.256425 14.7421 0.2283 14.803C0.200175 14.8499 0.181425 14.9952 0.176738 15.1311C0.176738 15.2952 0.148613 15.4077 0.0876751 15.4874C-0.0576374 15.6702 -0.0248249 15.8108 0.204863 16.0311C1.12361 16.9124 2.6283 15.9889 2.27205 14.7655C2.09861 14.1608 1.38143 13.7483 0.77205 13.8936Z" fill="#884D00"/>
<path d="M3.57047 15.0279C2.86735 15.1217 2.38454 15.8014 2.52985 16.4951C2.63297 16.9873 3.04079 17.4139 3.47672 17.4889C3.61266 17.5123 3.65954 17.5498 3.69704 17.6529C3.77204 17.8639 4.10485 18.192 4.37204 18.3092C4.7236 18.4686 5.18766 18.4592 5.5111 18.2904C5.81579 18.1358 6.1111 17.8029 6.21422 17.4983C6.46735 16.7248 5.91422 15.8248 5.12204 15.7358C4.96266 15.717 4.89704 15.6842 4.81266 15.567C4.50797 15.1404 4.0861 14.9529 3.57047 15.0279Z" fill="#884D00"/>
<path d="M1.39077 17.2029C1.12827 17.2686 0.912649 17.4561 0.790774 17.7186C0.668899 17.9764 0.678274 18.1967 0.823586 18.4826C1.02984 18.8998 1.51734 19.1014 1.93452 18.942C2.52515 18.717 2.73609 17.9764 2.34234 17.4983C2.10796 17.2123 1.76109 17.1045 1.39077 17.2029Z" fill="#884D00"/>
</svg>
