<svg width="10" height="9" viewBox="0 0 10 9" fill="none" xmlns="http://www.w3.org/2000/svg">
<path d="M9.17572 3.40114C9.1155 3.21098 8.95027 3.07592 8.7548 3.05794L6.09951 2.81182L5.04954 0.303112C4.97212 0.119256 4.7958 0.000244141 4.5999 0.000244141C4.404 0.000244141 4.22768 0.119256 4.15026 0.303541L3.10029 2.81182L0.444582 3.05794C0.249454 3.07635 0.084648 3.21098 0.024074 3.40114C-0.0365 3.5913 0.0194415 3.79988 0.167051 3.93136L2.17413 5.72821L1.58229 8.38953C1.53898 8.58521 1.61339 8.78748 1.77244 8.90485C1.85793 8.9679 1.95795 9 2.05881 9C2.14578 9 2.23204 8.97607 2.30946 8.92878L4.5999 7.53137L6.8895 8.92878C7.05704 9.03167 7.26824 9.02228 7.42694 8.90485C7.58606 8.78712 7.66039 8.58478 7.61709 8.38953L7.02524 5.72821L9.03233 3.93172C9.17994 3.79988 9.2363 3.59166 9.17572 3.40114Z" fill="#FFC107"/>
</svg>
