<svg width="28" height="28" viewBox="0 0 28 28" fill="none" xmlns="http://www.w3.org/2000/svg">
<path fill-rule="evenodd" clip-rule="evenodd" d="M14 2.80005C14.3713 2.80005 14.7274 2.94755 14.9899 3.2101C15.2525 3.47265 15.4 3.82875 15.4 4.20005V5.60005C15.4 5.97135 15.2525 6.32745 14.9899 6.59C14.7274 6.85255 14.3713 7.00005 14 7.00005C13.6287 7.00005 13.2726 6.85255 13.01 6.59C12.7475 6.32745 12.6 5.97135 12.6 5.60005V4.20005C12.6 3.82875 12.7475 3.47265 13.01 3.2101C13.2726 2.94755 13.6287 2.80005 14 2.80005ZM19.6 14C19.6 15.4853 19.01 16.9096 17.9598 17.9598C16.9096 19.01 15.4852 19.6 14 19.6C12.5148 19.6 11.0904 19.01 10.0402 17.9598C8.98999 16.9096 8.39999 15.4853 8.39999 14C8.39999 12.5148 8.98999 11.0905 10.0402 10.0403C11.0904 8.99005 12.5148 8.40005 14 8.40005C15.4852 8.40005 16.9096 8.99005 17.9598 10.0403C19.01 11.0905 19.6 12.5148 19.6 14ZM18.9504 20.93L19.9402 21.9198C20.2042 22.1749 20.5579 22.316 20.9249 22.3128C21.292 22.3096 21.6432 22.1624 21.9027 21.9028C22.1623 21.6432 22.3095 21.2921 22.3127 20.925C22.3159 20.5579 22.1748 20.2043 21.9198 19.9402L20.93 18.9504C20.6659 18.6954 20.3123 18.5543 19.9452 18.5575C19.5782 18.5607 19.227 18.7079 18.9674 18.9675C18.7079 19.2271 18.5606 19.5782 18.5574 19.9453C18.5543 20.3124 18.6954 20.666 18.9504 20.93ZM21.9184 6.08025C22.1808 6.34279 22.3283 6.69882 22.3283 7.07005C22.3283 7.44128 22.1808 7.79731 21.9184 8.05985L20.93 9.04965C20.8008 9.18336 20.6464 9.29002 20.4756 9.36339C20.3047 9.43676 20.121 9.47538 19.9351 9.477C19.7493 9.47861 19.5649 9.44319 19.3929 9.3728C19.2208 9.30241 19.0645 9.19845 18.933 9.067C18.8016 8.93555 18.6976 8.77924 18.6272 8.60718C18.5568 8.43513 18.5214 8.25078 18.523 8.06489C18.5247 7.879 18.5633 7.69529 18.6366 7.52448C18.71 7.35368 18.8167 7.19919 18.9504 7.07005L19.9402 6.08025C20.2027 5.81779 20.5588 5.67035 20.93 5.67035C21.3012 5.67035 21.6572 5.81779 21.9198 6.08025H21.9184ZM23.8 15.4C24.1713 15.4 24.5274 15.2525 24.7899 14.99C25.0525 14.7274 25.2 14.3714 25.2 14C25.2 13.6287 25.0525 13.2727 24.7899 13.0101C24.5274 12.7475 24.1713 12.6 23.8 12.6H22.4C22.0287 12.6 21.6726 12.7475 21.41 13.0101C21.1475 13.2727 21 13.6287 21 14C21 14.3714 21.1475 14.7274 21.41 14.99C21.6726 15.2525 22.0287 15.4 22.4 15.4H23.8ZM14 21C14.3713 21 14.7274 21.1475 14.9899 21.4101C15.2525 21.6726 15.4 22.0287 15.4 22.4V23.8C15.4 24.1714 15.2525 24.5274 14.9899 24.79C14.7274 25.0525 14.3713 25.2 14 25.2C13.6287 25.2 13.2726 25.0525 13.01 24.79C12.7475 24.5274 12.6 24.1714 12.6 23.8V22.4C12.6 22.0287 12.7475 21.6726 13.01 21.4101C13.2726 21.1475 13.6287 21 14 21ZM7.06999 9.04965C7.19997 9.17972 7.3543 9.28292 7.52417 9.35335C7.69403 9.42378 7.8761 9.46007 8.05999 9.46013C8.24388 9.4602 8.42598 9.42404 8.5959 9.35373C8.76581 9.28342 8.92021 9.18033 9.05029 9.05035C9.18036 8.92037 9.28356 8.76604 9.35399 8.59617C9.42442 8.42631 9.46071 8.24423 9.46077 8.06034C9.46084 7.87646 9.42468 7.69436 9.35437 7.52444C9.28406 7.35453 9.18097 7.20012 9.05099 7.07005L8.05979 6.08025C7.79574 5.82523 7.4421 5.68412 7.07503 5.68731C6.70795 5.6905 6.35681 5.83773 6.09724 6.0973C5.83767 6.35687 5.69043 6.70801 5.68724 7.07509C5.68405 7.44216 5.82517 7.79581 6.08019 8.05985L7.06999 9.04965ZM9.04959 20.93L8.05979 21.9198C7.79574 22.1749 7.4421 22.316 7.07503 22.3128C6.70795 22.3096 6.35681 22.1624 6.09724 21.9028C5.83767 21.6432 5.69043 21.2921 5.68724 20.925C5.68405 20.5579 5.82517 20.2043 6.08019 19.9402L7.06999 18.9504C7.33403 18.6954 7.68767 18.5543 8.05475 18.5575C8.42182 18.5607 8.77296 18.7079 9.03253 18.9675C9.2921 19.2271 9.43934 19.5782 9.44253 19.9453C9.44572 20.3124 9.30461 20.666 9.04959 20.93ZM5.59999 15.4C5.97129 15.4 6.32739 15.2525 6.58994 14.99C6.85249 14.7274 6.99999 14.3714 6.99999 14C6.99999 13.6287 6.85249 13.2727 6.58994 13.0101C6.32739 12.7475 5.97129 12.6 5.59999 12.6H4.19999C3.82868 12.6 3.47259 12.7475 3.21004 13.0101C2.94749 13.2727 2.79999 13.6287 2.79999 14C2.79999 14.3714 2.94749 14.7274 3.21004 14.99C3.47259 15.2525 3.82868 15.4 4.19999 15.4H5.59999Z" fill="#FFC061"/>
</svg>
