<svg width="24" height="24" viewBox="0 0 24 24" fill="none" xmlns="http://www.w3.org/2000/svg">
<path d="M11.6813 0.0985146C11.5734 0.154764 11.4094 0.281326 11.325 0.384451C11.1234 0.618826 8.8875 3.9657 8.02031 5.33445C4.85156 10.336 3.42656 13.4673 3.42188 15.4548C3.42188 16.6735 3.76406 18.122 4.30781 19.2095C6.075 22.7251 9.91875 24.6001 13.7484 23.8126C16.3031 23.2829 18.4969 21.586 19.6922 19.2095C20.4 17.8032 20.7328 15.9048 20.5031 14.5735C20.1609 12.5813 18.7359 9.66101 16.0172 5.3907C15.0047 3.80164 12.8109 0.52039 12.6375 0.337576C12.4594 0.14539 12.1875 7.62939e-05 12.0141 7.62939e-05C11.9438 7.62939e-05 11.7938 0.0469513 11.6813 0.0985146ZM18.5672 14.7704C18.9844 14.897 19.2609 15.286 19.2656 15.7501C19.2656 16.8704 18.7172 18.4735 17.9344 19.6126C17.2594 20.6016 15.8344 21.7876 15.2297 21.872C14.5828 21.961 14.0109 21.3845 14.0719 20.7141C14.1094 20.3626 14.2734 20.1563 14.8406 19.7766C16.2094 18.8579 17.0109 17.5454 17.2031 15.8954C17.2313 15.6516 17.2828 15.3845 17.3203 15.3048C17.5453 14.8407 18.0563 14.6204 18.5672 14.7704Z" fill="#61B4FF"/>
</svg>
