<svg width="319" height="296" viewBox="0 0 319 296" fill="none" xmlns="http://www.w3.org/2000/svg">
<path fill-rule="evenodd" clip-rule="evenodd" d="M186.371 79.0247C215.47 97.923 256.433 83.0037 282.775 105.307C308.746 127.297 318.229 161.904 318.435 190.843C318.639 219.355 303.007 243.35 283.898 262.694C266.501 280.306 243.595 296.402 214.952 295.6C187.485 294.831 164.113 268.745 136.867 258.576C118.273 251.637 99.6707 251.559 80.875 245.562C54.8511 237.258 20.2392 238.526 5.13776 216.545C-9.78195 194.828 13.3419 173.36 15.6844 150.673C17.6344 131.787 7.99912 109.579 17.7787 94.1164C27.5593 78.6522 54.2359 80.4365 67.976 67.9937C89.8494 48.1855 86.9447 -2.78777 121.256 0.409064C154.747 3.52946 156.571 59.6711 186.371 79.0247Z" fill="white"/>
</svg>
