<svg width="123" height="95" viewBox="0 0 123 95" fill="none" xmlns="http://www.w3.org/2000/svg">
<path d="M108.466 89.2398L108.736 89.0112C108.726 88.9999 107.456 87.5137 105.539 86.019C103.621 84.5279 101.058 83.0071 98.3991 83C95.813 82.9979 94.0241 83.7657 92.6903 84.6401C91.36 85.5144 90.4513 86.477 89.6556 86.8637C89.4447 86.9689 89.1643 87.0239 88.8193 87.0232C87.8858 87.0275 86.5364 86.6132 85.0946 86.1517C83.6486 85.693 82.1004 85.1926 80.6678 85.0621C80.5365 85.0501 80.4073 85.0444 80.2795 85.0444C78.6049 85.048 77.2768 86.0148 76.2389 86.9978C75.7186 87.4918 75.2657 87.9971 74.8781 88.4064C74.4955 88.8157 74.159 89.1269 73.9638 89.2179C73.8537 89.2737 73.699 89.3047 73.4917 89.3047C73.0871 89.3069 72.5114 89.1798 71.8412 89.0429C71.169 88.9074 70.3959 88.7663 69.5547 88.7663C68.8065 88.7663 68.0036 88.8792 67.1809 89.206C65.6547 89.8107 64.8546 90.52 64.3237 91.05C64.0596 91.3146 63.8601 91.5256 63.6883 91.6505C63.5137 91.7747 63.3895 91.8262 63.1687 91.8298C62.9444 91.8319 62.5745 91.7507 62.1401 91.6159C61.4849 91.4148 60.6735 91.1029 59.8252 90.8397C58.9755 90.5771 58.0874 90.3591 57.2469 90.3584C56.6449 90.3598 56.0146 90.5637 55.3906 90.851C53.5279 91.7154 51.6936 93.383 51.6794 93.3936L51 94.0076H122.954L122.697 93.4966C122.685 93.4705 122.294 92.7013 121.368 91.8178C120.442 90.9349 118.973 89.9392 116.83 89.4833C115.893 89.2836 115.153 89.2144 114.526 89.2144C113.876 89.2144 113.351 89.2892 112.87 89.3598C112.389 89.4311 111.953 89.4981 111.449 89.4974C110.745 89.4974 109.889 89.3697 108.585 88.9074L108.466 89.2398L108.736 89.0112L108.466 89.2398L108.346 89.5722C109.702 90.0535 110.653 90.2038 111.449 90.2031C112.017 90.2031 112.497 90.1283 112.974 90.0577C113.453 89.9872 113.93 89.9201 114.526 89.9201C115.1 89.9201 115.786 89.9829 116.681 90.1735C118.682 90.5997 120.026 91.5178 120.877 92.3273C121.301 92.7317 121.601 93.1092 121.793 93.383C121.889 93.5192 121.958 93.63 122.002 93.7048L122.051 93.7888L122.061 93.8086L122.063 93.8121L122.38 93.6547V93.3019H51.9179V93.6547L52.1571 93.9158C52.1571 93.9151 52.2039 93.8728 52.2948 93.7944C52.6128 93.5192 53.4462 92.8234 54.4117 92.2045C55.3721 91.5821 56.4845 91.0549 57.2469 91.0641C58.2003 91.0613 59.3609 91.4134 60.425 91.7804C60.9581 91.9631 61.4692 92.148 61.93 92.2899C62.3935 92.431 62.8003 92.5333 63.1687 92.5355C63.5399 92.539 63.8601 92.4063 64.1107 92.2179C64.4891 91.9342 64.773 91.5637 65.2465 91.1551C65.7178 90.7465 66.3695 90.2899 67.445 89.8616C68.1712 89.5729 68.8768 89.472 69.5547 89.472C70.3157 89.472 71.0391 89.6004 71.7 89.7345C72.3616 89.8665 72.9543 90.0083 73.4917 90.0105C73.7664 90.0105 74.0348 89.9716 74.2811 89.8496C74.6566 89.6576 74.9931 89.3097 75.3949 88.8905C75.9897 88.261 76.6911 87.465 77.5082 86.8355C78.3274 86.2046 79.2438 85.7494 80.2795 85.7501C80.386 85.7501 80.4939 85.7551 80.6032 85.7649C81.9186 85.8821 83.4335 86.3634 84.8781 86.8242C86.3277 87.2822 87.6963 87.7247 88.8193 87.7289C89.2367 87.7289 89.6272 87.6661 89.9729 87.4953C90.9532 86.9985 91.8207 86.0479 93.08 85.23C94.3365 84.4121 95.9522 83.7085 98.3991 83.7057C100.774 83.6994 103.244 85.1213 105.101 86.5737C106.03 87.2977 106.806 88.0246 107.349 88.568C107.62 88.8404 107.833 89.0669 107.977 89.2243C108.049 89.3033 108.105 89.3647 108.141 89.4064L108.195 89.4685L108.256 89.5405L108.346 89.5722L108.466 89.2398Z" fill="#17282F"/>
<path fill-rule="evenodd" clip-rule="evenodd" d="M35.3445 81.3028C33.0011 82.1224 45.6581 90.0901 45.8643 88.0991C45.92 87.5625 35.6039 81.2123 35.3445 81.3028ZM39.4593 76.9129C36.4896 77.5401 46.9879 86.1094 47.2612 83.6303C47.3194 83.1102 39.9161 76.8161 39.4593 76.9129ZM83.6012 75.7492C81.998 75.841 79.8874 77.6382 78.2577 78.1289C78.0502 78.1914 72.9345 78.9638 74.997 80.1913C76.5635 81.1231 80.7112 79.0747 82.1043 78.3941C82.2232 78.3354 85.699 75.6307 83.6012 75.7492ZM101.557 78.4463C101.652 78.3571 106.021 74.1088 103.588 74.5855C102.258 74.8455 100.273 77.5911 99.205 78.4986C97.4285 80.0129 95.838 81.5144 93.8312 82.7342C93.1416 83.1535 83.4911 87.8773 83.4417 87.4376C83.7897 90.5948 95.1876 83.7233 95.7836 83.267C97.7866 81.7323 99.7099 80.1735 101.557 78.4463ZM80.6618 72.787C80.4745 72.3765 80.1532 72.2529 79.7002 72.4173C76.9962 72.7946 74.3074 73.7608 71.5756 73.8959C70.5646 73.9456 69.1904 75.2445 70.8796 75.4216C71.9577 75.5351 80.8415 74.602 80.6618 72.787ZM53.7283 72.5754C52.4364 72.0668 49.9779 68.8509 48.705 69.2435C46.7083 69.8515 52.0505 73.3121 52.6591 73.6333C53.4486 74.0527 60.4851 76.0742 60.1409 73.5798C60.0612 73.0037 54.633 72.9323 53.7283 72.5754ZM114.169 72.787C112.252 75.5708 110.061 77.8868 107.803 80.3838C105.638 82.7775 103 85.0209 100.417 86.9507C99.7922 87.4172 95.3458 89.5866 95.1446 90.5069C96.9654 93.7508 110.129 79.9721 111.315 78.7867C113.313 76.7906 115.147 73.9889 116.253 71.4116C116.456 70.9438 118.326 66.6624 118.123 66.7044C116.603 67.292 115.11 71.4269 114.169 72.787ZM50.4688 77.4942C48.0647 76.4222 45.8618 75.0609 43.8423 73.358C41.5433 71.418 39.4099 69.1058 37.803 66.5464C37.5537 66.1474 36.0315 62.8015 35.452 62.8436C33.5553 64.0532 42.7491 74.2248 43.4147 74.7971C44.7281 75.9277 53.7498 81.9924 55.706 79.6101C55.6958 79.09 51.2698 77.8536 50.4688 77.4942ZM91.3031 67.2512C90.7704 67.8325 87.8311 69.8069 87.8767 70.513C90.9311 70.5984 105.325 54.5839 102.893 52.2641C102.381 52.1876 96.9616 60.9074 96.3733 61.574C94.6904 63.4758 93.0202 65.3814 91.3031 67.2512ZM97.6563 68.6087C96.8047 69.6323 92.7165 72.1318 92.6861 73.3682C94.7777 74.8608 102.305 65.0168 103.321 63.7422C103.836 63.0959 111.923 50.8404 109.573 51.1539C108.535 51.2903 107.118 55.9274 106.581 56.8133C105.242 59.0044 103.521 60.9099 102.038 63.0016C100.678 64.9212 99.1747 66.7847 97.6563 68.6087ZM30.535 50.2018C31.4157 50.1673 30.1605 39.9359 29.3051 39.2527C28.37 39.1928 29.9175 50.2247 30.535 50.2018ZM25.4041 35.0732C23.9478 34.0458 23.0418 40.7733 23 41.7382C22.9924 41.9052 24.0515 49.0304 25.0309 47.1337C25.0979 47.0024 24.4311 45.5901 24.3894 45.3875C24.0768 43.9013 24.2995 42.3271 24.4425 40.8383C24.6361 38.8231 25.079 37.0603 25.4041 35.0732ZM111.925 41.844C113.911 42.1996 112.673 28.8874 110.803 29.5718C110.956 29.5158 112.106 41.8771 111.925 41.844ZM43.7879 42.5846C44.1119 41.6898 43.0768 40.0531 43.5741 38.7237C43.9841 37.6237 44.58 36.3414 45.1773 35.3383C45.9858 33.977 50.7902 29.4342 50.6826 28.1965C48.9175 27.3565 43.8841 34.757 43.3071 36.2382C43.0072 37.0055 41.0384 43.0052 43.7879 42.5846ZM37.3753 37.6122C37.6448 37.3981 37.4538 35.685 37.5891 35.2847C37.9713 34.1503 38.7722 33.2785 39.1392 32.1644C40.426 30.8325 43.545 28.7229 44.1093 26.9283C43.4552 25.7645 32.7025 36.2968 37.3753 37.6122ZM72.0045 68.132C58.9464 69.8489 47.7218 63.5331 49.9412 49.3019C51.6089 38.5784 58.3935 33.4964 68.1035 30.3953C74.6085 28.3253 82.2333 29.4699 87.2351 34.3097C90.964 37.9258 93.9021 44.9171 92.7165 50.2744C91.3031 56.6641 88.9269 60.4982 83.6556 64.2418C81.3818 65.8555 79.2244 67.2092 76.6014 68.155C74.5845 68.8802 73.8886 67.8809 72.0045 68.132ZM89.2128 23.437C87.3338 23.7226 92.404 27.1743 92.9531 27.8269C94.35 29.4864 93.9451 31.8942 95.1358 33.3562C96.5112 35.0438 95.4407 28.909 94.9839 28.092C94.1805 26.6542 91.0678 23.1541 89.2128 23.437ZM61.4771 21.1096C60.566 21.3212 58.3024 23.2484 60.4281 22.9425C61.6163 22.7717 71.1593 21.4461 71.2036 20.8457C71.2478 20.2173 69.7687 19.9471 69.3866 19.9471C66.8901 19.9203 63.9191 20.5436 61.4771 21.1096ZM119.513 27.1398C118.705 24.2209 117.104 22.1955 115.024 19.9994C112.457 17.2908 114.941 21.4231 115.349 21.9865C116.559 23.655 117.518 25.4892 118.071 27.4572C118.667 29.5731 119.27 31.8522 118.459 34.042C118.218 34.6946 117.146 36.6843 117.696 37.2948C121.015 37.6135 119.882 28.4731 119.513 27.1398ZM65.378 16.085C66.8129 15.737 69.7725 14.8843 71.2036 15.556C71.6743 15.7765 71.9665 16.8612 72.646 16.6139C74.2466 14.8677 67.357 14.5223 66.9281 14.6038C65.8184 14.8154 58.0468 15.8135 57.9506 17.2487C58.4049 18.2404 64.5429 16.2876 65.378 16.085ZM88.9459 16.3501C90.2985 16.9058 91.646 17.7356 92.8468 18.5182C94.8612 19.8235 97.5627 20.9617 98.8507 23.1337C99.2417 23.7939 99.2038 27.563 99.5264 27.563C100.656 27.563 100.521 23.2152 100.221 22.5907C99.5859 21.274 98.4876 20.1204 97.2818 19.2588C95.0611 17.6744 92.2534 15.6184 89.6405 14.8154C88.9104 14.5898 86.9378 13.4057 86.2191 13.6517C83.4455 14.6089 88.4574 16.1487 88.9459 16.3501ZM37.6954 14.7096C37.5917 14.832 34.8143 19.4398 36.6807 19.2588C36.8692 19.2397 37.7954 16.7376 37.803 16.4036C40.0426 13.8951 42.8276 12.0482 45.4986 10.0547C47.7851 8.34922 45.0507 8.70483 43.7879 9.63149C41.709 11.1598 39.3796 12.7199 37.6954 14.7096ZM76.013 8.83868C77.6934 6.57748 68.2263 6.13391 67.047 6.69857C64.7315 7.8075 70.1546 7.98978 69.918 7.98468C71.4731 8.01655 74.6984 9.18666 76.013 8.83868ZM34.4626 10.8743C36.0885 9.75896 37.6385 8.52384 39.2999 7.46335C39.9528 7.04527 40.9992 5.15372 39.2455 5.50679C36.6161 6.03194 32.1458 9.9578 30.268 11.9067C27.2363 15.0525 31.7497 16.0289 31.7636 15.7153C31.8054 14.7593 29.9897 15.3367 30.7488 14.0226C31.5232 12.6791 33.2365 11.7168 34.4626 10.8743ZM71.3212 1.33875C72.9813 1.31452 74.3238 1.23677 75.8523 1.80399C76.3471 1.98753 77.601 2.94606 78.097 2.59681C79.0447 0.886253 62.3969 -1.64773 61.6378 1.4866C62.2299 2.37374 69.9737 1.35786 71.3212 1.33875Z" fill="#F68712"/>
<path d="M51.204 11.6845L51.3564 11.5507C51.3508 11.5445 50.2161 10.1665 48.5079 8.78301C46.7984 7.40244 44.5166 6.00372 42.1813 6C39.8863 5.99835 38.3116 6.70226 37.1289 7.50607C35.9478 8.3103 35.1403 9.20369 34.396 9.58269C34.1848 9.69209 33.9152 9.74453 33.5939 9.74412C32.7258 9.74659 31.5129 9.35604 30.2195 8.92709C28.9235 8.49979 27.5413 8.03741 26.2767 7.91809C26.163 7.90736 26.0505 7.9024 25.9398 7.9024C24.488 7.90446 23.322 8.77805 22.3993 9.68631C21.937 10.1421 21.5326 10.6103 21.1836 10.993C20.8374 11.3757 20.5359 11.6717 20.331 11.7741C20.2098 11.8368 20.0519 11.8674 19.8547 11.8674C19.4697 11.8686 18.9512 11.7477 18.3517 11.6209C17.7513 11.495 17.0662 11.3666 16.3258 11.3666C15.6671 11.3662 14.9636 11.469 14.2426 11.7671C12.8895 12.324 12.1923 12.968 11.7208 13.456C11.4855 13.7 11.3055 13.8998 11.1379 14.027C10.9683 14.1533 10.8245 14.2153 10.6015 14.2173C10.3767 14.2186 10.0389 14.1393 9.64473 14.0125C9.05151 13.8235 8.32513 13.5341 7.56929 13.2909C6.8128 13.0477 6.02615 12.8487 5.29402 12.8479C4.78203 12.8491 4.22976 13.032 3.67965 13.295C2.03417 14.0873 0.390723 15.635 0.382764 15.6408L0 16H64L63.8552 15.7011C63.848 15.6858 63.5048 14.9815 62.6869 14.1723C61.8698 13.3631 60.5743 12.4503 58.6765 12.0309C57.8442 11.8463 57.1894 11.7832 56.6363 11.7836C56.0627 11.7832 55.6 11.8513 55.1696 11.9173C54.7385 11.9838 54.3405 12.047 53.8782 12.047C53.2318 12.0466 52.4491 11.924 51.2712 11.4901L51.204 11.6845L51.3564 11.5507L51.204 11.6845L51.1368 11.879C52.3431 12.3244 53.1798 12.4602 53.8782 12.4598C54.3765 12.4598 54.7997 12.3913 55.2284 12.3257C55.6576 12.26 56.0935 12.1964 56.6363 12.1964C57.1598 12.1964 57.7838 12.2555 58.5925 12.4342C60.4099 12.8368 61.6354 13.7042 62.4101 14.4704C62.7973 14.8531 63.0713 15.2106 63.2473 15.4707C63.3353 15.6008 63.3989 15.7065 63.4397 15.7787L63.4848 15.8609L63.4952 15.8807L63.4976 15.8856L63.6764 15.7936V15.5872H0.517311V15.7936L0.651818 15.9463C0.651978 15.9463 0.695415 15.9055 0.777567 15.8316C1.06506 15.5735 1.81531 14.9229 2.68803 14.342C3.5581 13.7586 4.56221 13.2554 5.29402 13.2608C6.17614 13.2595 7.22416 13.5927 8.18111 13.9345C8.66026 14.1046 9.11726 14.2764 9.52658 14.4072C9.9367 14.5373 10.2956 14.6293 10.6015 14.6302C10.9095 14.6326 11.1635 14.5232 11.3755 14.3589C11.6953 14.112 11.9546 13.7636 12.3866 13.3755C12.8172 12.9874 13.4158 12.5535 14.391 12.1502C15.0583 11.8748 15.7068 11.7795 16.3258 11.7795C17.0212 11.779 17.6782 11.9008 18.272 12.0255C18.8668 12.1494 19.3949 12.279 19.8547 12.2802C20.09 12.2798 20.3117 12.2451 20.5099 12.1432C20.8162 11.9817 21.118 11.6647 21.475 11.2758C22.0057 10.6932 22.6385 9.94641 23.3831 9.35067C24.1285 8.75452 24.9748 8.31483 25.9398 8.31525C26.0385 8.31525 26.1388 8.31979 26.2405 8.32929C27.4387 8.44076 28.8026 8.892 30.0976 9.32053C31.3955 9.74742 32.6188 10.1545 33.5939 10.157C33.9557 10.157 34.288 10.0996 34.5748 9.95178C35.4227 9.50921 36.2074 8.62199 37.3485 7.85121C38.4876 7.08042 39.9647 6.41409 42.1813 6.41285C44.3571 6.40872 46.5864 7.74964 48.2611 9.10791C49.0982 9.78581 49.7977 10.465 50.2865 10.974C50.5309 11.2283 50.7229 11.4401 50.8532 11.5883C50.9184 11.6622 50.9684 11.72 51.002 11.7592C51.0352 11.7984 51.0516 11.8183 51.0516 11.8183L51.086 11.8604L51.1368 11.879L51.204 11.6845Z" fill="#17282F"/>
</svg>
